SplineFontDB: 3.2
FontName: Entity-BlackOblique
FullName: Entity Black Oblique
FamilyName: Entity
Weight: Black
Copyright: Based on Geist Copyright 2024 The Geist Project Authors https:github.comvercelgeist-font.git
Version: 0.1
ItalicAngle: -10
UnderlinePosition: -125
UnderlineWidth: 50
Ascent: 800
Descent: 200
InvalidEm: 0
sfntRevision: 0x0000199a
LayerCount: 2
Layer: 0 0 "Back" 1
Layer: 1 0 "Fore" 0
XUID: [1021 1008 -1557834819 3747531]
StyleMap: 0x0040
FSType: 0
OS2Version: 4
OS2_WeightWidthSlopeOnly: 0
OS2_UseTypoMetrics: 1
CreationTime: 1728311655
ModificationTime: 1746832028
PfmFamily: 81
TTFWeight: 900
TTFWidth: 5
LineGap: 0
VLineGap: 0
Panose: 0 0 0 0 0 0 0 0 0 0
OS2TypoAscent: 1005
OS2TypoAOffset: 0
OS2TypoDescent: -295
OS2TypoDOffset: 0
OS2TypoLinegap: 0
OS2WinAscent: 1012
OS2WinAOffset: 0
OS2WinDescent: 262
OS2WinDOffset: 0
HheadAscent: 1005
HheadAOffset: 0
HheadDescent: -295
HheadDOffset: 0
OS2SubXSize: 650
OS2SubYSize: 600
OS2SubXOff: 0
OS2SubYOff: 75
OS2SupXSize: 650
OS2SupYSize: 600
OS2SupXOff: 0
OS2SupYOff: 350
OS2StrikeYSize: 50
OS2StrikeYPos: 324
OS2CapHeight: 710
OS2XHeight: 540
OS2Vendor: 'VRCL'
OS2CodePages: 20000097.00000000
OS2UnicodeRanges: a10002ff.5001e5fb.00000000.00000000
Lookup: 1 0 0 "'aalt' Access All Alternates in Latin lookup 0" { "'aalt' Access All Alternates in Latin lookup 0 subtable"  } ['aalt' ('DFLT' <'dflt' > 'latn' <'AZE ' 'CAT ' 'CRT ' 'KAZ ' 'MAH ' 'MOL ' 'NLD ' 'ROM ' 'TAT ' 'TRK ' 'dflt' > ) ]
Lookup: 3 0 0 "'aalt' Access All Alternates in Latin lookup 1" { "'aalt' Access All Alternates in Latin lookup 1 subtable"  } ['aalt' ('DFLT' <'dflt' > 'latn' <'AZE ' 'CAT ' 'CRT ' 'KAZ ' 'MAH ' 'MOL ' 'NLD ' 'ROM ' 'TAT ' 'TRK ' 'dflt' > ) ]

StartChar: .notdef
Encoding: 65536 -1 0
Width: 600
GlyphClass: 1
Flags: HMW
HStem: 0 36<95 510 95 565> 674 36<95 95 95 510>
VStem: 40 33<64 646 64 710> 532 33<64 646 646 646>
LayerCount: 2
Fore
SplineSet
-22.595703125 0 m 1
 102.595703125 710 l 1
 627.595703125 710 l 1
 502.404296875 0 l 1
 -22.595703125 0 l 1
151.248046875 674 m 1
 308.11328125 384 l 1
 566.248046875 674 l 1
 151.248046875 674 l 1
124.311523438 646 m 1
 21.6884765625 64 l 1
 282 355 l 1
 124.311523438 646 l 1
323 355 m 1
 480.688476562 64 l 1
 583.311523438 646 l 1
 323 355 l 1
38.751953125 36 m 1
 453.751953125 36 l 1
 297.88671875 326 l 1
 38.751953125 36 l 1
EndSplineSet
Validated: 1
EndChar

StartChar: A
Encoding: 65 65 1
Width: 771
GlyphClass: 2
Flags: HMW
HStem: 0 21G<18 18 18 217 553 553 553 753> 117 152<309 462 309 513 257 462> 690 20G<274 497 497 497>
VStem: 18 735<0 0>
AnchorPoint: "Anchor-3" 448.596 710 basechar 0
AnchorPoint: "Anchor-2" 690.404 0 basechar 0
AnchorPoint: "Anchor-0" 323.404 0 basechar 0
LayerCount: 2
Fore
SplineSet
-44.595703125 0 m 1
 336.595703125 710 l 1
 559.595703125 710 l 1
 690.404296875 0 l 1
 490.404296875 0 l 1
 471.034179688 117 l 1
 215.034179688 117 l 1
 154.404296875 0 l 1
 -44.595703125 0 l 1
293.8359375 269 m 1
 446.8359375 269 l 1
 410.509765625 494 l 1
 293.8359375 269 l 1
EndSplineSet
Validated: 1
Substitution2: "Single Substitution lookup 27 subtable" ordfeminine
Substitution2: "'aalt' Access All Alternates in Latin lookup 0 subtable" ordfeminine
EndChar

StartChar: Aacute
Encoding: 193 193 2
Width: 771
GlyphClass: 2
Flags: HMW
HStem: 0 21G<18 18 18 217 553 553 553 753> 117 152<309 462 309 513 257 462> 690 20G<274 497 497 497> 757 160<297 531 351 441>
VStem: 18 735<0 0>
AnchorPoint: "Anchor-3" 430.347 710 basechar 0
AnchorPoint: "Anchor-2" 672.154 0 basechar 0
AnchorPoint: "Anchor-0" 305.154 0 basechar 0
LayerCount: 2
Fore
SplineSet
349.633789062 757 m 1
 431.845703125 917 l 1
 611.845703125 917 l 1
 493.633789062 757 l 1
 349.633789062 757 l 1
-62.845703125 0 m 1
 318.346679688 710 l 1
 541.346679688 710 l 1
 672.154296875 0 l 1
 472.154296875 0 l 1
 452.784179688 117 l 1
 196.784179688 117 l 1
 136.154296875 0 l 1
 -62.845703125 0 l 1
275.5859375 269 m 1
 428.5859375 269 l 1
 392.259765625 494 l 1
 275.5859375 269 l 1
EndSplineSet
Validated: 1
EndChar

StartChar: Abreve
Encoding: 258 258 3
Width: 771
GlyphClass: 2
Flags: HMW
HStem: 0 21G<18 18 18 217 553 553 553 753> 117 152<309 462 309 513 257 462> 690 20G<274 497 497 497> 754 96<368 404 368 436> 754 160<218 436>
VStem: 18 735<0 0> 218 106<914 914> 448 106<914 914>
AnchorPoint: "Anchor-3" 430.61 710 basechar 0
AnchorPoint: "Anchor-2" 672.419 0 basechar 0
AnchorPoint: "Anchor-0" 305.419 0 basechar 0
LayerCount: 2
Fore
SplineSet
438.369140625 754 m 0xe9
 338.369140625 754 284.243164062 810 298.581054688 914 c 1xea
 404.581054688 914 l 1
 400.470703125 868 419.296875 850 455.296875 850 c 0xf3
 491.296875 850 516.470703125 868 528.581054688 914 c 1
 634.581054688 914 l 1
 612.243164062 810 538.369140625 754 438.369140625 754 c 0xe9
-62.5810546875 0 m 1
 318.610351562 710 l 1
 541.610351562 710 l 1
 672.418945312 0 l 1
 472.418945312 0 l 1
 453.048828125 117 l 1
 197.048828125 117 l 1
 136.418945312 0 l 1xec
 -62.5810546875 0 l 1
275.850585938 269 m 1
 428.850585938 269 l 1
 392.524414062 494 l 1
 275.850585938 269 l 1
EndSplineSet
Validated: 33
EndChar

StartChar: uni01CD
Encoding: 461 461 4
Width: 771
GlyphClass: 2
Flags: HMW
HStem: 0 21G<18 18 18 217 553 553 553 753> 117 152<309 462 309 513 257 462> 690 20G<274 497 497 497> 757 166<297 325 447 475 297 297>
VStem: 18 735<0 0>
AnchorPoint: "Anchor-3" 429.817 710 basechar 0
AnchorPoint: "Anchor-2" 671.625 0 basechar 0
AnchorPoint: "Anchor-0" 304.625 0 basechar 0
LayerCount: 2
Fore
SplineSet
278.375 923 m 1
 406.375 923 l 1
 451.858398438 835 l 1
 528.375 923 l 1
 656.375 923 l 1
 527.104492188 757 l 1
 349.104492188 757 l 1
 278.375 923 l 1
-63.375 0 m 1
 317.817382812 710 l 1
 540.817382812 710 l 1
 671.625 0 l 1
 471.625 0 l 1
 452.254882812 117 l 1
 196.254882812 117 l 1
 135.625 0 l 1
 -63.375 0 l 1
275.056640625 269 m 1
 428.056640625 269 l 1
 391.73046875 494 l 1
 275.056640625 269 l 1
EndSplineSet
Validated: 1
EndChar

StartChar: Acircumflex
Encoding: 194 194 5
Width: 771
GlyphClass: 2
Flags: HMW
HStem: 0 21G<18 18 18 217 553 553 553 753> 117 152<309 462 309 513 257 462> 690 20G<274 497 497 497> 757 166<197 475 297 325 447 447 447 475 297 575>
VStem: 18 735<0 0>
AnchorPoint: "Anchor-3" 429.817 710 basechar 0
AnchorPoint: "Anchor-2" 671.625 0 basechar 0
AnchorPoint: "Anchor-0" 304.625 0 basechar 0
LayerCount: 2
Fore
SplineSet
249.104492188 757 m 1
 378.375 923 l 1
 556.375 923 l 1
 627.104492188 757 l 1
 499.104492188 757 l 1
 453.62109375 845 l 1
 377.104492188 757 l 1
 249.104492188 757 l 1
-63.375 0 m 1
 317.817382812 710 l 1
 540.817382812 710 l 1
 671.625 0 l 1
 471.625 0 l 1
 452.254882812 117 l 1
 196.254882812 117 l 1
 135.625 0 l 1
 -63.375 0 l 1
275.056640625 269 m 1
 428.056640625 269 l 1
 391.73046875 494 l 1
 275.056640625 269 l 1
EndSplineSet
Validated: 1
EndChar

StartChar: Adieresis
Encoding: 196 196 6
Width: 771
GlyphClass: 2
Flags: HMW
HStem: 0 21G<18 18 18 217 553 553 553 753> 117 152<309 462 309 513 257 462> 690 20G<274 497 497 497> 760 136<175 355 175 355 417 597 175 417>
VStem: 175 180<760 896 760 896> 417 180<760 896 760 896>
AnchorPoint: "Anchor-3" 432.197 710 basechar 0
AnchorPoint: "Anchor-2" 674.006 0 basechar 0
AnchorPoint: "Anchor-0" 307.006 0 basechar 0
LayerCount: 2
Fore
SplineSet
230.013671875 760 m 1
 253.994140625 896 l 1
 433.994140625 896 l 1
 410.013671875 760 l 1
 230.013671875 760 l 1
472.013671875 760 m 1
 495.994140625 896 l 1
 675.994140625 896 l 1
 652.013671875 760 l 1
 472.013671875 760 l 1
-60.994140625 0 m 1
 320.197265625 710 l 1
 543.197265625 710 l 1
 674.005859375 0 l 1
 474.005859375 0 l 1
 454.635742188 117 l 1
 198.635742188 117 l 1
 138.005859375 0 l 1
 -60.994140625 0 l 1
277.4375 269 m 1
 430.4375 269 l 1
 394.111328125 494 l 1
 277.4375 269 l 1
EndSplineSet
Validated: 1
Substitution2: "'ss08' Style Set 8 in Latin lookup 41 subtable" Adieresis.ss08
Substitution2: "'aalt' Access All Alternates in Latin lookup 0 subtable" Adieresis.ss08
EndChar

StartChar: Agrave
Encoding: 192 192 7
Width: 771
GlyphClass: 2
Flags: HMW
HStem: 0 21G<18 18 18 217 553 553 553 753> 117 152<309 462 309 513 257 462> 690 20G<274 497 497 497> 764 160<327 327 327 417 237 471>
VStem: 18 735<0 0>
AnchorPoint: "Anchor-3" 429.729 710 basechar 0
AnchorPoint: "Anchor-2" 671.537 0 basechar 0
AnchorPoint: "Anchor-0" 304.537 0 basechar 0
LayerCount: 2
Fore
SplineSet
380.250976562 764 m 1
 318.462890625 924 l 1
 498.462890625 924 l 1
 524.250976562 764 l 1
 380.250976562 764 l 1
-63.462890625 0 m 1
 317.729492188 710 l 1
 540.729492188 710 l 1
 671.537109375 0 l 1
 471.537109375 0 l 1
 452.166992188 117 l 1
 196.166992188 117 l 1
 135.537109375 0 l 1
 -63.462890625 0 l 1
274.96875 269 m 1
 427.96875 269 l 1
 391.642578125 494 l 1
 274.96875 269 l 1
EndSplineSet
Validated: 1
EndChar

StartChar: Amacron
Encoding: 256 256 8
Width: 771
GlyphClass: 2
Flags: HMW
HStem: 0 21G<18 18 18 217 553 553 553 753> 117 152<309 462 309 513 257 462> 690 20G<274 497 497 497> 765 135<226 546 226 546>
VStem: 226 320<765 900 765 900>
AnchorPoint: "Anchor-3" 431.845 710 basechar 0
AnchorPoint: "Anchor-2" 673.653 0 basechar 0
AnchorPoint: "Anchor-0" 306.653 0 basechar 0
LayerCount: 2
Fore
SplineSet
281.54296875 765 m 1
 305.346679688 900 l 1
 625.346679688 900 l 1
 601.54296875 765 l 1
 281.54296875 765 l 1
-61.3466796875 0 m 1
 319.844726562 710 l 1
 542.844726562 710 l 1
 673.653320312 0 l 1
 473.653320312 0 l 1
 454.283203125 117 l 1
 198.283203125 117 l 1
 137.653320312 0 l 1
 -61.3466796875 0 l 1
277.084960938 269 m 1
 430.084960938 269 l 1
 393.758789062 494 l 1
 277.084960938 269 l 1
EndSplineSet
Validated: 1
EndChar

StartChar: Aogonek
Encoding: 260 260 9
Width: 771
GlyphClass: 2
Flags: HMW
HStem: -222 104<630.5 726> 0 21G<18 18 18 217 553 553 553 603 753 753> 117 152<309 462 309 513 257 462> 690 20G<274 497 497 497>
VStem: 18 773<-196 0> 544 150<-157 -85.5>
AnchorPoint: "Anchor-3" 468.168 710 basechar 0
AnchorPoint: "Anchor-2" 709.977 0 basechar 0
AnchorPoint: "Anchor-0" 342.977 0 basechar 0
LayerCount: 2
Fore
SplineSet
-25.0234375 0 m 1x78
 356.16796875 710 l 1
 579.16796875 710 l 1
 709.9765625 0 l 1
 676.981445312 -34 l 2
 657.278320312 -55 637.399414062 -77 634.401367188 -94 c 0xf4
 631.404296875 -111 642.169921875 -118 654.169921875 -118 c 0
 670.169921875 -118 690.227539062 -112 699.28515625 -106 c 1
 713.416015625 -196 l 1xf8
 690.947265625 -210 636.83203125 -222 588.83203125 -222 c 0
 507.83203125 -222 467.827148438 -188 478.758789062 -126 c 0xf4
 486.165039062 -84 514.512695312 -48 542.802734375 -18 c 2
 559.9765625 0 l 1
 509.9765625 0 l 1
 490.606445312 117 l 1
 234.606445312 117 l 1
 173.9765625 0 l 1
 -25.0234375 0 l 1x78
313.408203125 269 m 1
 466.408203125 269 l 1
 430.08203125 494 l 1
 313.408203125 269 l 1
EndSplineSet
Validated: 33
EndChar

StartChar: Aring
Encoding: 197 197 10
Width: 780
GlyphClass: 2
Flags: HMW
HStem: 0 21G<9 9 9 208 544 544 544 744> 117 152<300 453 300 504 248 453> 690 20G<265 488 488 488> 754 74<375 395 375 416> 896 74<375 395>
VStem: 275 76<852 872 852 893> 419 76<852 872>
AnchorPoint: "Anchor-3" 416.674 710 basechar 0
AnchorPoint: "Anchor-2" 658.481 0 basechar 0
AnchorPoint: "Anchor-0" 291.481 0 basechar 0
LayerCount: 2
Fore
SplineSet
432.431640625 754 m 0
 370.431640625 754 330.54296875 800 341.475585938 862 c 0
 352.407226562 924 408.518554688 970 470.518554688 970 c 0
 532.518554688 970 572.407226562 924 561.475585938 862 c 0
 550.54296875 800 494.431640625 754 432.431640625 754 c 0
445.48046875 828 m 0
 465.48046875 828 481.94921875 842 485.475585938 862 c 0
 489.001953125 882 477.470703125 896 457.470703125 896 c 0
 437.470703125 896 421.001953125 882 417.475585938 862 c 0
 413.94921875 842 425.48046875 828 445.48046875 828 c 0
-76.5185546875 0 m 1
 304.673828125 710 l 1
 527.673828125 710 l 1
 658.481445312 0 l 1
 458.481445312 0 l 1
 439.111328125 117 l 1
 183.111328125 117 l 1
 122.481445312 0 l 1
 -76.5185546875 0 l 1
261.913085938 269 m 1
 414.913085938 269 l 1
 378.586914062 494 l 1
 261.913085938 269 l 1
EndSplineSet
Validated: 33
EndChar

StartChar: Atilde
Encoding: 195 195 11
Width: 780
GlyphClass: 2
Flags: HMW
HStem: 0 21G<9 9 9 208 544 544 544 744> 117 152<300 453 300 504 248 453> 690 20G<265 488 488 488> 769 159<284.5 293 203 340> 774 111<435 448.5 435 479.5> 774 160<474 479.5> 817 111<320 333>
VStem: 203 90<769 816> 474 90<885.5 934>
AnchorPoint: "Anchor-3" 419.848 710 basechar 0
AnchorPoint: "Anchor-2" 661.655 0 basechar 0
AnchorPoint: "Anchor-0" 294.655 0 basechar 0
LayerCount: 2
Fore
SplineSet
492.1328125 774 m 0xe580
 458.1328125 774 441.190429688 780 417.421875 804 c 0
 408.833007812 812 399.71484375 817 389.71484375 817 c 0xe380
 373.71484375 817 356.774414062 806 346.250976562 769 c 1
 256.250976562 769 l 1
 272.825195312 863 326.287109375 928 405.287109375 928 c 0xf180
 437.287109375 928 461.052734375 921 485.172851562 899 c 0
 496.41015625 889 503.705078125 885 513.705078125 885 c 0xe980
 530.705078125 885 547.467773438 895 556.344726562 934 c 1
 646.344726562 934 l 1
 629.241210938 837 575.1328125 774 492.1328125 774 c 0xe580
-73.3447265625 0 m 1
 307.84765625 710 l 1
 530.84765625 710 l 1
 661.655273438 0 l 1
 461.655273438 0 l 1
 442.28515625 117 l 1
 186.28515625 117 l 1
 125.655273438 0 l 1
 -73.3447265625 0 l 1
265.086914062 269 m 1
 418.086914062 269 l 1
 381.760742188 494 l 1
 265.086914062 269 l 1
EndSplineSet
Validated: 1
EndChar

StartChar: AE
Encoding: 198 198 12
Width: 1089
GlyphClass: 2
Flags: HMW
HStem: 0 157<741 1051 741 1051> 118 150<359 545 359 545 281 545> 278 156<741 1031 741 1031> 553 157<741 1043 741 741> 554 156<507 545 507 507>
VStem: 545 196<0 278 118 278 268 278 434 553>
AnchorPoint: "Anchor-3" 653.596 710 basechar 0
AnchorPoint: "Anchor-0" 528.404 0 basechar 0
LayerCount: 2
Fore
SplineSet
-44.595703125 0 m 1xb4
 460.595703125 710 l 1
 1105.59570312 710 l 1
 1077.91308594 553 l 1
 775.913085938 553 l 1
 754.9296875 434 l 1
 1044.9296875 434 l 1
 1017.42285156 278 l 1
 727.422851562 278 l 1
 706.086914062 157 l 1
 1016.08691406 157 l 1
 988.404296875 0 l 1
 482.404296875 0 l 1xb4
 503.2109375 118 l 1
 239.2109375 118 l 1x54
 157.404296875 0 l 1
 -44.595703125 0 l 1xb4
580.088867188 554 m 1x4c
 542.088867188 554 l 1
 343.659179688 268 l 1
 529.659179688 268 l 1
 580.088867188 554 l 1x4c
EndSplineSet
Validated: 1
EndChar

StartChar: B
Encoding: 66 66 13
Width: 718
GlyphClass: 2
Flags: HMW
HStem: 0 150<258 377 377 390> 297 128<258 352 352 377 258 352> 560 150<258 352 258 258>
VStem: 62 196<150 150 150 297 425 560> 449 196<473 516> 479 196<197.5 245.5 129.5 248.5>
AnchorPoint: "Anchor-3" 421.596 710 basechar 0
AnchorPoint: "Anchor-0" 296.404 0 basechar 0
LayerCount: 2
Fore
SplineSet
-0.595703125 0 m 1xf4
 124.595703125 710 l 1
 422.595703125 710 l 2
 603.595703125 710 697.016601562 650 673.388671875 516 c 0xf8
 658.224609375 430 598.408203125 380 500.291992188 368 c 1
 499.939453125 366 l 1
 616.823242188 354 664.419921875 295 646.963867188 196 c 0
 623.512695312 63 510.404296875 0 327.404296875 0 c 2
 -0.595703125 0 l 1xf4
270.342773438 425 m 1
 364.342773438 425 l 2
 420.342773438 425 465.045898438 446 473.157226562 492 c 0
 481.620117188 540 445.147460938 560 388.147460938 560 c 2
 294.147460938 560 l 1
 270.342773438 425 l 1
221.852539062 150 m 1
 340.852539062 150 l 2
 397.852539062 150 446.732421875 172 455.724609375 223 c 0xf4
 464.717773438 274 424.7734375 297 366.7734375 297 c 2
 247.7734375 297 l 1
 221.852539062 150 l 1
EndSplineSet
Validated: 33
EndChar

StartChar: C
Encoding: 67 67 14
Width: 755
GlyphClass: 2
Flags: HMW
HStem: -16 157<339.5 423.5 339.5 480> 569 157<338 421>
VStem: 40 201<289 417 289 466>
AnchorPoint: "Anchor-3" 449.596 710 basechar 0
AnchorPoint: "Anchor-0" 324.404 0 basechar 0
LayerCount: 2
Fore
SplineSet
317.583007812 -16 m 0
 119.583007812 -16 -1.4365234375 120 39.8232421875 354 c 0
 79.3212890625 578 238.416992188 726 452.416992188 726 c 0
 647.416992188 726 736.313476562 629 735.3984375 448 c 1
 531.1640625 441 l 1
 531.446289062 522 492.734375 569 424.734375 569 c 0
 326.734375 569 263.041015625 480 240.823242188 354 c 0
 217.901367188 224 256.265625 141 347.265625 141 c 0
 424.265625 141 474.90625 190 502.24609375 277 c 1
 705.01171875 270 l 1
 641.215820312 84 511.583007812 -16 317.583007812 -16 c 0
EndSplineSet
Validated: 33
EndChar

StartChar: Cacute
Encoding: 262 262 15
Width: 755
GlyphClass: 2
Flags: HMW
HStem: -16 157<339.5 423.5 339.5 480> 569 157<338 421> 757 160<298 532 352 442>
VStem: 40 201<289 417 289 466>
AnchorPoint: "Anchor-3" 432.757 710 basechar 0
AnchorPoint: "Anchor-0" 307.564 0 basechar 0
LayerCount: 2
Fore
SplineSet
352.043945312 757 m 1
 434.256835938 917 l 1
 614.256835938 917 l 1
 496.043945312 757 l 1
 352.043945312 757 l 1
300.743164062 -16 m 0
 102.743164062 -16 -18.2763671875 120 22.984375 354 c 0
 62.4814453125 578 221.578125 726 435.578125 726 c 0
 630.578125 726 719.474609375 629 718.559570312 448 c 1
 514.325195312 441 l 1
 514.607421875 522 475.89453125 569 407.89453125 569 c 0
 309.89453125 569 246.201171875 480 223.984375 354 c 0
 201.061523438 224 239.426757812 141 330.426757812 141 c 0
 407.426757812 141 458.06640625 190 485.407226562 277 c 1
 688.172851562 270 l 1
 624.375976562 84 494.743164062 -16 300.743164062 -16 c 0
EndSplineSet
Validated: 33
EndChar

StartChar: Ccaron
Encoding: 268 268 16
Width: 755
GlyphClass: 2
Flags: HMW
HStem: -16 157<339.5 423.5 339.5 480> 569 157<338 421> 757 166<298 326 448 476 298 298>
VStem: 40 201<289 417 289 466>
AnchorPoint: "Anchor-3" 432.228 710 basechar 0
AnchorPoint: "Anchor-0" 307.036 0 basechar 0
LayerCount: 2
Fore
SplineSet
280.78515625 923 m 1
 408.78515625 923 l 1
 454.268554688 835 l 1
 530.78515625 923 l 1
 658.78515625 923 l 1
 529.515625 757 l 1
 351.515625 757 l 1
 280.78515625 923 l 1
300.21484375 -16 m 0
 102.21484375 -16 -18.8046875 120 22.455078125 354 c 0
 61.953125 578 221.048828125 726 435.048828125 726 c 0
 630.048828125 726 718.9453125 629 718.030273438 448 c 1
 513.795898438 441 l 1
 514.078125 522 475.366210938 569 407.366210938 569 c 0
 309.366210938 569 245.672851562 480 223.455078125 354 c 0
 200.533203125 224 238.897460938 141 329.897460938 141 c 0
 406.897460938 141 457.538085938 190 484.877929688 277 c 1
 687.643554688 270 l 1
 623.84765625 84 494.21484375 -16 300.21484375 -16 c 0
EndSplineSet
Validated: 33
EndChar

StartChar: Ccedilla
Encoding: 199 199 17
Width: 755
GlyphClass: 2
Flags: HMW
HStem: -240 84<365 393 365 420.5> -154 21G<248 248> -13 21G<333 333> 569 157<338 421>
VStem: 40 201<289 417 289 466> 424 96<-133 -111 -167 -28>
AnchorPoint: "Anchor-3" 469.345 710 basechar 0
AnchorPoint: "Anchor-0" 344.152 0 basechar 0
LayerCount: 2
Fore
SplineSet
298.833984375 -240 m 0
 229.833984375 -240 188.829101562 -206 177.998046875 -154 c 1x7c
 259.993164062 -120 l 1
 265.9375 -143 279.645507812 -156 309.645507812 -156 c 0
 335.645507812 -156 355.76171875 -144 359.640625 -122 c 0
 363.51953125 -100 353.98828125 -86 307.98828125 -86 c 1
 266.747070312 -42 l 1
 287.860351562 -13 l 1
 119.563476562 8 21.837890625 140 59.572265625 354 c 0
 99.0693359375 578 258.166015625 726 472.166015625 726 c 0
 667.166015625 726 756.0625 629 755.147460938 448 c 1
 550.913085938 441 l 1
 551.1953125 522 512.482421875 569 444.482421875 569 c 0
 346.482421875 569 282.7890625 480 260.572265625 354 c 0
 237.649414062 224 276.014648438 141 367.014648438 141 c 0
 444.014648438 141 494.654296875 190 521.995117188 277 c 1
 724.760742188 270 l 1
 666.78515625 100 553.504882812 2 387.68359375 -14 c 1
 376.215820312 -28 l 1
 442.8046875 -36 463.399414062 -78 454.935546875 -126 c 0
 440.4765625 -208 371.833984375 -240 298.833984375 -240 c 0
EndSplineSet
Validated: 33
EndChar

StartChar: Ccircumflex
Encoding: 264 264 18
Width: 755
GlyphClass: 2
Flags: HMW
HStem: -16 157<339.5 423.5 339.5 480> 569 157<338 421> 757 166<198 476 298 326 448 448 448 476 298 576>
VStem: 40 201<289 417 289 466>
AnchorPoint: "Anchor-3" 432.228 710 basechar 0
AnchorPoint: "Anchor-0" 307.036 0 basechar 0
LayerCount: 2
Fore
SplineSet
251.515625 757 m 1
 380.78515625 923 l 1
 558.78515625 923 l 1
 629.515625 757 l 1
 501.515625 757 l 1
 456.032226562 845 l 1
 379.515625 757 l 1
 251.515625 757 l 1
300.21484375 -16 m 0
 102.21484375 -16 -18.8046875 120 22.455078125 354 c 0
 61.953125 578 221.048828125 726 435.048828125 726 c 0
 630.048828125 726 718.9453125 629 718.030273438 448 c 1
 513.795898438 441 l 1
 514.078125 522 475.366210938 569 407.366210938 569 c 0
 309.366210938 569 245.672851562 480 223.455078125 354 c 0
 200.533203125 224 238.897460938 141 329.897460938 141 c 0
 406.897460938 141 457.538085938 190 484.877929688 277 c 1
 687.643554688 270 l 1
 623.84765625 84 494.21484375 -16 300.21484375 -16 c 0
EndSplineSet
Validated: 33
EndChar

StartChar: Cdotaccent
Encoding: 266 266 19
Width: 755
GlyphClass: 2
Flags: HMW
HStem: -16 157<339.5 423.5 339.5 480> 569 157<338 421> 764 136<287 487 287 487>
VStem: 40 201<289 417 289 466> 287 200<764 900 764 900>
AnchorPoint: "Anchor-3" 434.256 710 basechar 0
AnchorPoint: "Anchor-0" 309.063 0 basechar 0
LayerCount: 2
Fore
SplineSet
343.77734375 764 m 1
 367.7578125 900 l 1
 567.7578125 900 l 1
 543.77734375 764 l 1
 343.77734375 764 l 1
302.2421875 -16 m 0
 104.2421875 -16 -16.77734375 120 24.4833984375 354 c 0
 63.98046875 578 223.077148438 726 437.077148438 726 c 0
 632.077148438 726 720.973632812 629 720.057617188 448 c 1
 515.823242188 441 l 1
 516.106445312 522 477.393554688 569 409.393554688 569 c 0
 311.393554688 569 247.700195312 480 225.483398438 354 c 0
 202.560546875 224 240.92578125 141 331.92578125 141 c 0
 408.92578125 141 459.565429688 190 486.90625 277 c 1
 689.671875 270 l 1
 625.875 84 496.2421875 -16 302.2421875 -16 c 0
EndSplineSet
Validated: 33
Substitution2: "'ss08' Style Set 8 in Latin lookup 41 subtable" Cdotaccent.ss08
Substitution2: "'aalt' Access All Alternates in Latin lookup 0 subtable" Cdotaccent.ss08
EndChar

StartChar: D
Encoding: 68 68 20
Width: 734
GlyphClass: 2
Flags: HMW
HStem: 0 157<258 323 323 329> 553 157<258 323 258 258>
VStem: 62 196<157 157 157 553> 493 201<287 423>
AnchorPoint: "Anchor-3" 389.596 710 basechar 0
AnchorPoint: "Anchor-1" 216 355 basechar 0
AnchorPoint: "Anchor-0" 265.404 0 basechar 0
LayerCount: 2
Fore
SplineSet
-0.595703125 0 m 1
 124.595703125 710 l 1
 385.595703125 710 l 2
 623.595703125 710 734.026367188 582 693.823242188 354 c 0
 653.797851562 127 500.404296875 0 266.404296875 0 c 2
 -0.595703125 0 l 1
223.086914062 157 m 1
 288.086914062 157 l 2
 406.086914062 157 469.01953125 219 493 355 c 0
 516.98046875 491 475.913085938 553 357.913085938 553 c 2
 292.913085938 553 l 1
 223.086914062 157 l 1
EndSplineSet
Validated: 33
EndChar

StartChar: Dcaron
Encoding: 270 270 21
Width: 734
GlyphClass: 2
Flags: HMW
HStem: 0 157<258 323 323 329> 553 157<258 323 258 258> 757 166<238 266 388 416 238 238>
VStem: 62 196<157 157 157 553> 493 201<287 423>
AnchorPoint: "Anchor-3" 370.817 710 basechar 0
AnchorPoint: "Anchor-1" 197.221 355 basechar 0
AnchorPoint: "Anchor-0" 246.625 0 basechar 0
LayerCount: 2
Fore
SplineSet
219.375 923 m 1
 347.375 923 l 1
 392.858398438 835 l 1
 469.375 923 l 1
 597.375 923 l 1
 468.104492188 757 l 1
 290.104492188 757 l 1
 219.375 923 l 1
-19.375 0 m 1
 105.817382812 710 l 1
 366.817382812 710 l 2
 604.817382812 710 715.247070312 582 675.044921875 354 c 0
 635.018554688 127 481.625 0 247.625 0 c 2
 -19.375 0 l 1
204.30859375 157 m 1
 269.30859375 157 l 2
 387.30859375 157 450.240234375 219 474.220703125 355 c 0
 498.201171875 491 457.133789062 553 339.133789062 553 c 2
 274.133789062 553 l 1
 204.30859375 157 l 1
EndSplineSet
Validated: 33
EndChar

StartChar: Dcroat
Encoding: 272 272 22
Width: 734
GlyphClass: 2
Flags: HMW
HStem: 0 157<258 323 323 329> 285 140<1 62 1 62 258 431> 553 157<258 323 258 258>
VStem: 62 196<157 157 157 285 157 285 425 553> 493 201<287 423>
AnchorPoint: "Anchor-3" 389.596 710 basechar 0
AnchorPoint: "Anchor-1" 216 355 basechar 0
AnchorPoint: "Anchor-0" 265.404 0 basechar 0
LayerCount: 2
Fore
SplineSet
-0.595703125 0 m 1
 49.6572265625 285 l 1
 -11.3427734375 285 l 1
 13.3427734375 425 l 1
 74.3427734375 425 l 1
 124.595703125 710 l 1
 385.595703125 710 l 2
 623.595703125 710 734.026367188 582 693.823242188 354 c 0
 653.797851562 127 500.404296875 0 266.404296875 0 c 2
 -0.595703125 0 l 1
223.086914062 157 m 1
 288.086914062 157 l 2
 406.086914062 157 469.01953125 219 493 355 c 0
 516.98046875 491 475.913085938 553 357.913085938 553 c 2
 292.913085938 553 l 1
 270.342773438 425 l 1
 443.342773438 425 l 1
 418.657226562 285 l 1
 245.657226562 285 l 1
 223.086914062 157 l 1
EndSplineSet
Validated: 33
EndChar

StartChar: Eth
Encoding: 208 208 23
Width: 734
GlyphClass: 2
Flags: HMW
HStem: 0 157<258 323 323 329> 285 140<1 62 1 62 258 431> 553 157<258 323 258 258>
VStem: 62 196<157 157 157 285 157 285 425 553> 493 201<287 423>
AnchorPoint: "Anchor-3" 389.596 710 basechar 0
AnchorPoint: "Anchor-1" 216 355 basechar 0
AnchorPoint: "Anchor-0" 265.404 0 basechar 0
LayerCount: 2
Fore
SplineSet
-0.595703125 0 m 1
 49.6572265625 285 l 1
 -11.3427734375 285 l 1
 13.3427734375 425 l 1
 74.3427734375 425 l 1
 124.595703125 710 l 1
 385.595703125 710 l 2
 623.595703125 710 734.026367188 582 693.823242188 354 c 0
 653.797851562 127 500.404296875 0 266.404296875 0 c 2
 -0.595703125 0 l 1
223.086914062 157 m 1
 288.086914062 157 l 2
 406.086914062 157 469.01953125 219 493 355 c 0
 516.98046875 491 475.913085938 553 357.913085938 553 c 2
 292.913085938 553 l 1
 270.342773438 425 l 1
 443.342773438 425 l 1
 418.657226562 285 l 1
 245.657226562 285 l 1
 223.086914062 157 l 1
EndSplineSet
Validated: 33
EndChar

StartChar: E
Encoding: 69 69 24
Width: 634
GlyphClass: 2
Flags: HMW
HStem: 0 157<258 596 258 596> 278 156<258 576 258 576> 553 157<258 588 258 258>
VStem: 62 196<157 278 434 553>
AnchorPoint: "Anchor-3" 387.596 710 basechar 0
AnchorPoint: "Anchor-2" 533.404 0 basechar 0
AnchorPoint: "Anchor-0" 262.404 0 basechar 0
LayerCount: 2
Fore
SplineSet
-0.595703125 0 m 1
 124.595703125 710 l 1
 650.595703125 710 l 1
 622.913085938 553 l 1
 292.913085938 553 l 1
 271.9296875 434 l 1
 589.9296875 434 l 1
 562.422851562 278 l 1
 244.422851562 278 l 1
 223.086914062 157 l 1
 561.086914062 157 l 1
 533.404296875 0 l 1
 -0.595703125 0 l 1
EndSplineSet
Validated: 1
EndChar

StartChar: Eacute
Encoding: 201 201 25
Width: 634
GlyphClass: 2
Flags: HMW
HStem: 0 157<258 596 258 596> 278 156<258 576 258 576> 553 157<258 588 258 258> 757 160<236 470 290 380>
VStem: 62 196<157 278 434 553>
AnchorPoint: "Anchor-3" 369.347 710 basechar 0
AnchorPoint: "Anchor-2" 515.154 0 basechar 0
AnchorPoint: "Anchor-0" 244.154 0 basechar 0
LayerCount: 2
Fore
SplineSet
288.633789062 757 m 1
 370.845703125 917 l 1
 550.845703125 917 l 1
 432.633789062 757 l 1
 288.633789062 757 l 1
-18.845703125 0 m 1
 106.346679688 710 l 1
 632.346679688 710 l 1
 604.663085938 553 l 1
 274.663085938 553 l 1
 253.6796875 434 l 1
 571.6796875 434 l 1
 544.172851562 278 l 1
 226.172851562 278 l 1
 204.837890625 157 l 1
 542.837890625 157 l 1
 515.154296875 0 l 1
 -18.845703125 0 l 1
EndSplineSet
Validated: 1
EndChar

StartChar: Ecaron
Encoding: 282 282 26
Width: 634
GlyphClass: 2
Flags: HMW
HStem: 0 157<258 596 258 596> 278 156<258 576 258 576> 553 157<258 588 258 258> 757 166<236 264 386 414 236 236>
VStem: 62 196<157 278 434 553>
AnchorPoint: "Anchor-3" 368.817 710 basechar 0
AnchorPoint: "Anchor-2" 514.625 0 basechar 0
AnchorPoint: "Anchor-0" 243.625 0 basechar 0
LayerCount: 2
Fore
SplineSet
217.375 923 m 1
 345.375 923 l 1
 390.858398438 835 l 1
 467.375 923 l 1
 595.375 923 l 1
 466.104492188 757 l 1
 288.104492188 757 l 1
 217.375 923 l 1
-19.375 0 m 1
 105.817382812 710 l 1
 631.817382812 710 l 1
 604.133789062 553 l 1
 274.133789062 553 l 1
 253.151367188 434 l 1
 571.151367188 434 l 1
 543.643554688 278 l 1
 225.643554688 278 l 1
 204.30859375 157 l 1
 542.30859375 157 l 1
 514.625 0 l 1
 -19.375 0 l 1
EndSplineSet
Validated: 1
EndChar

StartChar: Ecircumflex
Encoding: 202 202 27
Width: 634
GlyphClass: 2
Flags: HMW
HStem: 0 157<258 596 258 596> 278 156<258 576 258 576> 553 157<258 588 258 258> 757 166<136 414 236 264 386 386 386 414 236 514>
VStem: 62 196<157 278 434 553>
AnchorPoint: "Anchor-3" 368.817 710 basechar 0
AnchorPoint: "Anchor-2" 514.625 0 basechar 0
AnchorPoint: "Anchor-0" 243.625 0 basechar 0
LayerCount: 2
Fore
SplineSet
188.104492188 757 m 1
 317.375 923 l 1
 495.375 923 l 1
 566.104492188 757 l 1
 438.104492188 757 l 1
 392.62109375 845 l 1
 316.104492188 757 l 1
 188.104492188 757 l 1
-19.375 0 m 1
 105.817382812 710 l 1
 631.817382812 710 l 1
 604.133789062 553 l 1
 274.133789062 553 l 1
 253.151367188 434 l 1
 571.151367188 434 l 1
 543.643554688 278 l 1
 225.643554688 278 l 1
 204.30859375 157 l 1
 542.30859375 157 l 1
 514.625 0 l 1
 -19.375 0 l 1
EndSplineSet
Validated: 1
EndChar

StartChar: Edieresis
Encoding: 203 203 28
Width: 634
GlyphClass: 2
Flags: HMW
HStem: 0 157<258 596 258 596> 278 156<258 576 258 576> 553 157<258 588 258 258> 760 136<114 294 114 294 356 536 114 356>
VStem: 62 196<157 278 434 553> 62 232<0 896 710 896> 114 180<760 896 760 896> 356 180<760 896 760 896> 356 232<553 896 553 896>
AnchorPoint: "Anchor-3" 371.197 710 basechar 0
AnchorPoint: "Anchor-2" 517.006 0 basechar 0
AnchorPoint: "Anchor-0" 246.006 0 basechar 0
LayerCount: 2
Fore
SplineSet
169.013671875 760 m 1xf3
 192.994140625 896 l 1xf3
 372.994140625 896 l 1
 349.013671875 760 l 1xf5
 169.013671875 760 l 1xf3
411.013671875 760 m 1
 434.994140625 896 l 1
 614.994140625 896 l 1
 591.013671875 760 l 1
 411.013671875 760 l 1
-16.994140625 0 m 1xf880
 108.197265625 710 l 1
 634.197265625 710 l 1
 606.514648438 553 l 1
 276.514648438 553 l 1
 255.53125 434 l 1
 573.53125 434 l 1
 546.024414062 278 l 1
 228.024414062 278 l 1
 206.688476562 157 l 1
 544.688476562 157 l 1
 517.005859375 0 l 1
 -16.994140625 0 l 1xf880
EndSplineSet
Validated: 1
Substitution2: "'ss08' Style Set 8 in Latin lookup 41 subtable" Edieresis.ss08
Substitution2: "'aalt' Access All Alternates in Latin lookup 0 subtable" Edieresis.ss08
EndChar

StartChar: Edotaccent
Encoding: 278 278 29
Width: 634
GlyphClass: 2
Flags: HMW
HStem: 0 157<258 596 258 596> 278 156<258 576 258 576> 553 157<258 588 258 258> 764 136<225 425 225 425>
VStem: 62 196<157 278 434 553> 225 200<764 900 764 900>
AnchorPoint: "Anchor-3" 370.845 710 basechar 0
AnchorPoint: "Anchor-2" 516.653 0 basechar 0
AnchorPoint: "Anchor-0" 245.653 0 basechar 0
LayerCount: 2
Fore
SplineSet
280.366210938 764 m 1xf4
 304.346679688 900 l 1
 504.346679688 900 l 1
 480.366210938 764 l 1
 280.366210938 764 l 1xf4
-17.3466796875 0 m 1xf8
 107.844726562 710 l 1
 633.844726562 710 l 1
 606.162109375 553 l 1
 276.162109375 553 l 1
 255.178710938 434 l 1
 573.178710938 434 l 1
 545.671875 278 l 1
 227.671875 278 l 1
 206.3359375 157 l 1
 544.3359375 157 l 1
 516.653320312 0 l 1
 -17.3466796875 0 l 1xf8
EndSplineSet
Validated: 1
Substitution2: "'ss08' Style Set 8 in Latin lookup 41 subtable" Edotaccent.ss08
Substitution2: "'aalt' Access All Alternates in Latin lookup 0 subtable" Edotaccent.ss08
EndChar

StartChar: Egrave
Encoding: 200 200 30
Width: 634
GlyphClass: 2
Flags: HMW
HStem: 0 157<258 596 258 596> 278 156<258 576 258 576> 553 157<258 588 258 258> 764 160<266 266 266 356 176 410>
VStem: 62 196<157 278 434 553>
AnchorPoint: "Anchor-3" 368.729 710 basechar 0
AnchorPoint: "Anchor-2" 514.537 0 basechar 0
AnchorPoint: "Anchor-0" 243.537 0 basechar 0
LayerCount: 2
Fore
SplineSet
319.250976562 764 m 1
 257.462890625 924 l 1
 437.462890625 924 l 1
 463.250976562 764 l 1
 319.250976562 764 l 1
-19.462890625 0 m 1
 105.729492188 710 l 1
 631.729492188 710 l 1
 604.045898438 553 l 1
 274.045898438 553 l 1
 253.0625 434 l 1
 571.0625 434 l 1
 543.555664062 278 l 1
 225.555664062 278 l 1
 204.220703125 157 l 1
 542.220703125 157 l 1
 514.537109375 0 l 1
 -19.462890625 0 l 1
EndSplineSet
Validated: 1
EndChar

StartChar: Emacron
Encoding: 274 274 31
Width: 634
GlyphClass: 2
Flags: HMW
HStem: 0 157<258 596 258 596> 278 156<258 576 258 576> 553 157<258 588 258 258> 765 135<165 485 165 485>
VStem: 62 196<157 278 434 553> 165 320<765 900 765 900>
AnchorPoint: "Anchor-3" 370.845 710 basechar 0
AnchorPoint: "Anchor-2" 516.653 0 basechar 0
AnchorPoint: "Anchor-0" 245.653 0 basechar 0
LayerCount: 2
Fore
SplineSet
220.54296875 765 m 1xf4
 244.346679688 900 l 1
 564.346679688 900 l 1
 540.54296875 765 l 1
 220.54296875 765 l 1xf4
-17.3466796875 0 m 1xf8
 107.844726562 710 l 1
 633.844726562 710 l 1
 606.162109375 553 l 1
 276.162109375 553 l 1
 255.178710938 434 l 1
 573.178710938 434 l 1
 545.671875 278 l 1
 227.671875 278 l 1
 206.3359375 157 l 1
 544.3359375 157 l 1
 516.653320312 0 l 1
 -17.3466796875 0 l 1xf8
EndSplineSet
Validated: 1
EndChar

StartChar: Eogonek
Encoding: 280 280 32
Width: 634
GlyphClass: 2
Flags: HMW
HStem: -222 104<473.5 569> 0 157<258 446 258 596> 278 156<258 576 258 576> 553 157<258 588 258 258>
VStem: 62 196<157 278 434 553> 387 150<-157 -85.5> 387 209<-157 157>
AnchorPoint: "Anchor-3" 407.168 710 basechar 0
AnchorPoint: "Anchor-2" 552.977 0 basechar 0
AnchorPoint: "Anchor-0" 281.977 0 basechar 0
LayerCount: 2
Fore
SplineSet
18.9765625 0 m 1xfa
 144.16796875 710 l 1
 670.16796875 710 l 1
 642.485351562 553 l 1
 312.485351562 553 l 1
 291.501953125 434 l 1
 609.501953125 434 l 1
 581.995117188 278 l 1
 263.995117188 278 l 1
 242.659179688 157 l 1
 580.659179688 157 l 1
 552.9765625 0 l 1x7a
 519.981445312 -34 l 2
 500.278320312 -55 480.399414062 -77 477.401367188 -94 c 0xfc
 474.404296875 -111 485.169921875 -118 497.169921875 -118 c 0
 513.169921875 -118 533.227539062 -112 542.28515625 -106 c 1
 556.416015625 -196 l 1
 533.947265625 -210 479.83203125 -222 431.83203125 -222 c 0
 350.83203125 -222 310.827148438 -188 321.758789062 -126 c 0
 329.165039062 -84 357.512695312 -48 385.802734375 -18 c 2
 402.9765625 0 l 1
 18.9765625 0 l 1xfa
EndSplineSet
Validated: 33
EndChar

StartChar: uni1EBC
Encoding: 7868 7868 33
Width: 634
GlyphClass: 2
Flags: HMW
HStem: 0 157<258 596 258 596> 278 156<258 576 258 576> 553 157<258 588 258 258> 759 159<225.5 234 144 281> 764 111<376 389.5 376 420.5> 764 160<415 420.5> 807 111<261 274>
VStem: 62 172<0 759 710 759> 62 196<157 278 434 553> 144 90<759 806> 415 90<875.5 924>
AnchorPoint: "Anchor-3" 368.729 710 basechar 0
AnchorPoint: "Anchor-2" 514.537 0 basechar 0
AnchorPoint: "Anchor-0" 243.537 0 basechar 0
LayerCount: 2
Fore
SplineSet
432.250976562 764 m 0xe4a0
 398.250976562 764 381.30859375 770 357.541015625 794 c 0
 348.951171875 802 339.833007812 807 329.833007812 807 c 0xe3
 313.833007812 807 296.893554688 796 286.369140625 759 c 1xf1
 196.369140625 759 l 1
 212.944335938 853 266.405273438 918 345.405273438 918 c 0xf040
 377.405273438 918 401.170898438 911 425.291992188 889 c 0
 436.528320312 879 443.823242188 875 453.823242188 875 c 0xe8a0
 470.823242188 875 487.5859375 885 496.462890625 924 c 1
 586.462890625 924 l 1
 569.359375 827 515.250976562 764 432.250976562 764 c 0xe4a0
-19.462890625 0 m 1xe080
 105.729492188 710 l 1
 631.729492188 710 l 1
 604.045898438 553 l 1
 274.045898438 553 l 1
 253.0625 434 l 1
 571.0625 434 l 1
 543.555664062 278 l 1
 225.555664062 278 l 1
 204.220703125 157 l 1
 542.220703125 157 l 1
 514.537109375 0 l 1
 -19.462890625 0 l 1xe080
EndSplineSet
Validated: 1
EndChar

StartChar: uni018F
Encoding: 399 399 34
Width: 787
GlyphClass: 1
Flags: HMW
HStem: -16 157<354 433 354 482> 271 142<250 541 250 250> 569 157<362 430>
VStem: 40 707<354 413 413 413>
LayerCount: 2
Fore
SplineSet
747 355 m 0
 702.91796875 105 510.583007812 -16 322.583007812 -16 c 0
 134.583007812 -16 -3.3759765625 109 39.8232421875 354 c 2
 50.2265625 413 l 1
 552.2265625 413 l 1
 554.68359375 512 510.734375 569 424.734375 569 c 0
 374.734375 569 321.444335938 539 288.098632812 486 c 1
 83.685546875 495 l 1
 154.724609375 637 286.416992188 726 453.416992188 726 c 0
 658.416992188 726 790.0234375 599 747 355 c 0
353.265625 141 m 0
 437.265625 141 495.201171875 186 526.188476562 271 c 1
 235.188476562 271 l 1
 237.084960938 174 279.265625 141 353.265625 141 c 0
EndSplineSet
Validated: 33
EndChar

StartChar: F
Encoding: 70 70 35
Width: 614
GlyphClass: 1
Flags: HMW
HStem: 0 21G<62 62 62 258> 269 156<258 563 258 563> 553 157<258 581 258 258>
VStem: 62 196<0 269 425 553>
LayerCount: 2
Fore
SplineSet
-0.595703125 0 m 1
 124.595703125 710 l 1
 643.595703125 710 l 1
 615.913085938 553 l 1
 292.913085938 553 l 1
 270.342773438 425 l 1
 575.342773438 425 l 1
 547.8359375 269 l 1
 242.8359375 269 l 1
 195.404296875 0 l 1
 -0.595703125 0 l 1
EndSplineSet
Validated: 1
EndChar

StartChar: G
Encoding: 71 71 36
Width: 764
GlyphClass: 2
Flags: HMW
HStem: -16 157<342 426> 0 21G<605 719 605 605> 246 130<390 523 390 719> 569 157<343 428>
VStem: 40 201<290 418.5 290 461> 602 117
AnchorPoint: "Anchor-3" 453.596 710 basechar 0
AnchorPoint: "Anchor-0" 332.404 0 basechar 0
LayerCount: 2
Fore
SplineSet
309.583007812 -16 m 0xbc
 101.583007812 -16 0.6787109375 132 39.8232421875 354 c 0
 77.5576171875 568 234.416992188 726 454.416992188 726 c 0
 648.416992188 726 730.666015625 631 736.749023438 467 c 1
 532.337890625 459 l 1
 532.680664062 529 502.734375 569 428.734375 569 c 0
 332.734375 569 263.5703125 483 240.823242188 354 c 0
 218.25390625 226 251.265625 141 357.265625 141 c 0xbc
 430.265625 141 481.966796875 179 503.780273438 246 c 1
 370.780273438 246 l 1
 393.703125 376 l 1
 722.703125 376 l 1
 656.404296875 0 l 1
 542.404296875 0 l 1x7c
 552.44921875 91 l 1
 502.8125 25 411.583007812 -16 309.583007812 -16 c 0xbc
EndSplineSet
Validated: 33
Substitution2: "'ss06' Style Set 6 in Latin lookup 39 subtable" G.ss06
Substitution2: "'aalt' Access All Alternates in Latin lookup 0 subtable" G.ss06
EndChar

StartChar: Gbreve
Encoding: 286 286 37
Width: 764
GlyphClass: 2
Flags: HMW
HStem: -16 157<342 426> 0 21G<605 719 605 605> 246 130<390 523 390 719> 569 157<343 428> 754 96<373 409 373 441> 754 160<223 441>
VStem: 40 201<290 418.5 290 461> 223 106<914 914> 453 106<914 914> 602 117
AnchorPoint: "Anchor-3" 437.021 710 basechar 0
AnchorPoint: "Anchor-0" 315.829 0 basechar 0
LayerCount: 2
Fore
SplineSet
444.779296875 754 m 0xa6c0
 344.779296875 754 290.654296875 810 304.9921875 914 c 1xa540
 410.9921875 914 l 1
 406.880859375 868 425.70703125 850 461.70703125 850 c 0xa9c0
 497.70703125 850 522.880859375 868 534.9921875 914 c 1
 640.9921875 914 l 1
 618.654296875 810 544.779296875 754 444.779296875 754 c 0xa6c0
293.0078125 -16 m 0
 85.0078125 -16 -15.8955078125 132 23.2490234375 354 c 0
 60.9833984375 568 217.842773438 726 437.842773438 726 c 0
 631.842773438 726 714.091796875 631 720.173828125 467 c 1
 515.763671875 459 l 1
 516.106445312 529 486.159179688 569 412.159179688 569 c 0
 316.159179688 569 246.995117188 483 224.249023438 354 c 0
 201.678710938 226 234.69140625 141 340.69140625 141 c 0xb240
 413.69140625 141 465.391601562 179 487.206054688 246 c 1
 354.206054688 246 l 1
 377.127929688 376 l 1
 706.127929688 376 l 1
 639.829101562 0 l 1
 525.829101562 0 l 1x7240
 535.875 91 l 1
 486.237304688 25 395.0078125 -16 293.0078125 -16 c 0
EndSplineSet
Validated: 33
Substitution2: "'ss06' Style Set 6 in Latin lookup 39 subtable" Gbreve.ss06
Substitution2: "'aalt' Access All Alternates in Latin lookup 0 subtable" Gbreve.ss06
EndChar

StartChar: Gcaron
Encoding: 486 486 38
Width: 764
GlyphClass: 2
Flags: HMW
HStem: -16 157<342 426> 0 21G<605 719 605 605> 246 130<390 523 390 719> 569 157<343 428> 757 166<302 330 452 480 302 302>
VStem: 40 201<290 418.5 290 461> 602 117
AnchorPoint: "Anchor-3" 436.228 710 basechar 0
AnchorPoint: "Anchor-0" 315.036 0 basechar 0
LayerCount: 2
Fore
SplineSet
284.78515625 923 m 1xbe
 412.78515625 923 l 1
 458.268554688 835 l 1
 534.78515625 923 l 1
 662.78515625 923 l 1
 533.515625 757 l 1
 355.515625 757 l 1
 284.78515625 923 l 1xbe
292.21484375 -16 m 0
 84.21484375 -16 -16.689453125 132 22.455078125 354 c 0
 60.189453125 568 217.048828125 726 437.048828125 726 c 0
 631.048828125 726 713.297851562 631 719.380859375 467 c 1
 514.969726562 459 l 1
 515.3125 529 485.366210938 569 411.366210938 569 c 0
 315.366210938 569 246.201171875 483 223.455078125 354 c 0
 200.885742188 226 233.897460938 141 339.897460938 141 c 0xbe
 412.897460938 141 464.598632812 179 486.412109375 246 c 1
 353.412109375 246 l 1
 376.334960938 376 l 1
 705.334960938 376 l 1
 639.036132812 0 l 1
 525.036132812 0 l 1x7e
 535.081054688 91 l 1
 485.444335938 25 394.21484375 -16 292.21484375 -16 c 0
EndSplineSet
Validated: 33
EndChar

StartChar: Gcircumflex
Encoding: 284 284 39
Width: 764
GlyphClass: 2
Flags: HMW
HStem: -16 157<342 426> 0 21G<605 719 605 605> 246 130<390 523 390 719> 569 157<343 428> 757 166<202 480 302 330 452 452 452 480 302 580>
VStem: 40 201<290 418.5 290 461> 602 117
AnchorPoint: "Anchor-3" 436.228 710 basechar 0
AnchorPoint: "Anchor-0" 315.036 0 basechar 0
LayerCount: 2
Fore
SplineSet
255.515625 757 m 1xbe
 384.78515625 923 l 1
 562.78515625 923 l 1
 633.515625 757 l 1
 505.515625 757 l 1
 460.032226562 845 l 1
 383.515625 757 l 1
 255.515625 757 l 1xbe
292.21484375 -16 m 0
 84.21484375 -16 -16.689453125 132 22.455078125 354 c 0
 60.189453125 568 217.048828125 726 437.048828125 726 c 0
 631.048828125 726 713.297851562 631 719.380859375 467 c 1
 514.969726562 459 l 1
 515.3125 529 485.366210938 569 411.366210938 569 c 0
 315.366210938 569 246.201171875 483 223.455078125 354 c 0
 200.885742188 226 233.897460938 141 339.897460938 141 c 0xbe
 412.897460938 141 464.598632812 179 486.412109375 246 c 1
 353.412109375 246 l 1
 376.334960938 376 l 1
 705.334960938 376 l 1
 639.036132812 0 l 1
 525.036132812 0 l 1x7e
 535.081054688 91 l 1
 485.444335938 25 394.21484375 -16 292.21484375 -16 c 0
EndSplineSet
Validated: 33
Substitution2: "'ss06' Style Set 6 in Latin lookup 39 subtable" Gcircumflex.ss06
Substitution2: "'aalt' Access All Alternates in Latin lookup 0 subtable" Gcircumflex.ss06
EndChar

StartChar: uni0122
Encoding: 290 290 40
Width: 764
GlyphClass: 2
Flags: HMW
HStem: -180 134<320 354 320 470> -16 157<342 426> 0 21G<605 719 605 605> 246 130<390 523 390 719> 569 157<343 428>
VStem: 40 201<290 418.5 290 461> 320 150<-166 -46 -166 -46 -166 -46> 602 117
AnchorPoint: "Anchor-3" 475.284 710 basechar 0
AnchorPoint: "Anchor-0" 307.895 -262 basechar 0
LayerCount: 2
Fore
SplineSet
331.270507812 -16 m 0x5f
 123.270507812 -16 22.3671875 132 61.51171875 354 c 0
 99.24609375 568 256.10546875 726 476.10546875 726 c 0
 670.10546875 726 752.354492188 631 758.436523438 467 c 1
 554.026367188 459 l 1
 554.369140625 529 524.421875 569 450.421875 569 c 0
 354.421875 569 285.2578125 483 262.51171875 354 c 0
 239.942382812 226 272.954101562 141 378.954101562 141 c 0x5f
 451.954101562 141 503.654296875 179 525.46875 246 c 1
 392.46875 246 l 1
 415.390625 376 l 1
 744.390625 376 l 1
 678.091796875 0 l 1
 564.091796875 0 l 1x3f
 574.137695312 91 l 1
 524.5 25 433.270507812 -16 331.270507812 -16 c 0x5f
216.89453125 -262 m 1
 281.353515625 -180 l 1
 247.353515625 -180 l 1
 270.981445312 -46 l 1
 420.981445312 -46 l 1x9f
 399.822265625 -166 l 1
 324.89453125 -262 l 1
 216.89453125 -262 l 1
EndSplineSet
Validated: 33
Substitution2: "'ss06' Style Set 6 in Latin lookup 39 subtable" uni0122.ss06
Substitution2: "'aalt' Access All Alternates in Latin lookup 0 subtable" uni0122.ss06
EndChar

StartChar: Gdotaccent
Encoding: 288 288 41
Width: 764
GlyphClass: 2
Flags: HMW
HStem: -16 157<342 426> 0 21G<605 719 605 605> 246 130<390 523 390 719> 569 157<343 428> 764 136<291 491 291 491>
VStem: 40 201<290 418.5 290 461> 291 200<764 900 764 900> 602 117
AnchorPoint: "Anchor-3" 438.256 710 basechar 0
AnchorPoint: "Anchor-0" 317.063 0 basechar 0
LayerCount: 2
Fore
SplineSet
347.77734375 764 m 1xbf
 371.7578125 900 l 1
 571.7578125 900 l 1
 547.77734375 764 l 1
 347.77734375 764 l 1xbf
294.2421875 -16 m 0
 86.2421875 -16 -14.6611328125 132 24.4833984375 354 c 0
 62.216796875 568 219.077148438 726 439.077148438 726 c 0
 633.077148438 726 715.326171875 631 721.408203125 467 c 1
 516.998046875 459 l 1
 517.340820312 529 487.393554688 569 413.393554688 569 c 0
 317.393554688 569 248.229492188 483 225.483398438 354 c 0
 202.913085938 226 235.92578125 141 341.92578125 141 c 0xbf
 414.92578125 141 466.625976562 179 488.439453125 246 c 1
 355.439453125 246 l 1
 378.362304688 376 l 1
 707.362304688 376 l 1
 641.063476562 0 l 1
 527.063476562 0 l 1x7f
 537.109375 91 l 1
 487.471679688 25 396.2421875 -16 294.2421875 -16 c 0
EndSplineSet
Validated: 33
Substitution2: "'ss08' Style Set 8 in Latin lookup 41 subtable" Gdotaccent.ss08
Substitution2: "'ss06' Style Set 6 in Latin lookup 39 subtable" Gdotaccent.ss06
AlternateSubs2: "'aalt' Access All Alternates in Latin lookup 1 subtable" Gdotaccent.ss06 Gdotaccent.ss08
EndChar

StartChar: uni1E20
Encoding: 7712 7712 42
Width: 764
GlyphClass: 2
Flags: HMW
HStem: -16 157<342 426> 0 21G<605 719 605 605> 246 130<390 523 390 719> 569 157<343 428> 765 135<231 551 231 551>
VStem: 40 201<290 418.5 290 461> 231 320<765 900 765 900> 602 117
AnchorPoint: "Anchor-3" 438.256 710 basechar 0
AnchorPoint: "Anchor-0" 317.063 0 basechar 0
LayerCount: 2
Fore
SplineSet
287.954101562 765 m 1xbb
 311.7578125 900 l 1
 631.7578125 900 l 1
 607.954101562 765 l 1
 287.954101562 765 l 1xbb
294.2421875 -16 m 0
 86.2421875 -16 -14.6611328125 132 24.4833984375 354 c 0
 62.216796875 568 219.077148438 726 439.077148438 726 c 0
 633.077148438 726 715.326171875 631 721.408203125 467 c 1
 516.998046875 459 l 1
 517.340820312 529 487.393554688 569 413.393554688 569 c 0
 317.393554688 569 248.229492188 483 225.483398438 354 c 0
 202.913085938 226 235.92578125 141 341.92578125 141 c 0xbd
 414.92578125 141 466.625976562 179 488.439453125 246 c 1
 355.439453125 246 l 1
 378.362304688 376 l 1
 707.362304688 376 l 1
 641.063476562 0 l 1
 527.063476562 0 l 1x7d
 537.109375 91 l 1
 487.471679688 25 396.2421875 -16 294.2421875 -16 c 0
EndSplineSet
Validated: 33
Substitution2: "'ss06' Style Set 6 in Latin lookup 39 subtable" uni1E20.ss06
Substitution2: "'aalt' Access All Alternates in Latin lookup 0 subtable" uni1E20.ss06
EndChar

StartChar: uni01E4
Encoding: 484 484 43
Width: 803
GlyphClass: 2
Flags: HMW
HStem: -16 157<340 413.5 340 466.5> 182 74<390 497 390 521 714 768> 290 86<390 523 390 719> 569 157<341.5 430>
VStem: 40 201<290 418.5 290 461> 390 329<182 335 256 335 321 335 335 376 321 376> 523 196<284 335>
AnchorPoint: "Anchor-3" 459.596 710 basechar 0
AnchorPoint: "Anchor-0" 332.404 0 basechar 0
LayerCount: 2
Fore
SplineSet
327.583007812 -16 m 0xfa
 90.5830078125 -16 2.08984375 140 39.8232421875 354 c 0
 77.5576171875 568 232.416992188 726 462.416992188 726 c 0
 642.416992188 726 736.666015625 631 736.749023438 467 c 1
 532.337890625 459 l 1
 532.857421875 530 505.734375 569 429.734375 569 c 0
 328.734375 569 263.5703125 483 240.823242188 354 c 0
 218.25390625 226 254.265625 141 350.265625 141 c 0
 401.265625 141 439.206054688 152 466.495117188 182 c 1
 359.495117188 182 l 1
 372.543945312 256 l 1xfc
 503.543945312 256 l 1xfa
 506.306640625 266 509.422851562 278 511.5390625 290 c 1
 378.5390625 290 l 1
 393.703125 376 l 1xfc
 722.703125 376 l 1
 715.473632812 335 l 2
 710.536132812 307 703.952148438 281 696.543945312 256 c 1
 750.543945312 256 l 1
 737.495117188 182 l 1
 665.495117188 182 l 1
 596.69140625 47 474.583007812 -16 327.583007812 -16 c 0xfa
EndSplineSet
Validated: 33
EndChar

StartChar: H
Encoding: 72 72 44
Width: 727
GlyphClass: 2
Flags: HMW
HStem: 0 21G<62 62 62 258 469 469 469 665> 279 157<258 469 258 469> 690 20G<62 258 258 258 469 665 665 665>
VStem: 62 196<0 279 436 710> 469 196<0 279 279 279 436 710 0 710>
AnchorPoint: "Anchor-3" 425.596 710 basechar 0
AnchorPoint: "Anchor-1" 402.674 580 basechar 0
AnchorPoint: "Anchor-0" 300.404 0 basechar 0
LayerCount: 2
Fore
SplineSet
-0.595703125 0 m 1
 124.595703125 710 l 1
 320.595703125 710 l 1
 272.282226562 436 l 1
 483.282226562 436 l 1
 531.595703125 710 l 1
 727.595703125 710 l 1
 602.404296875 0 l 1
 406.404296875 0 l 1
 455.599609375 279 l 1
 244.599609375 279 l 1
 195.404296875 0 l 1
 -0.595703125 0 l 1
EndSplineSet
Validated: 1
EndChar

StartChar: Hbar
Encoding: 294 294 45
Width: 727
GlyphClass: 2
Flags: HMW
HStem: 0 21G<62 62 62 258 469 469 469 665> 279 157<258 469 258 469> 514 132<-7 62 -7 62 258 469 665 733> 514 196<-7 258 -7 258 62 258 62 469>
VStem: 62 196<0 279 436 514 646 710> 469 196<0 279 279 279 436 514 0 514 646 710>
AnchorPoint: "Anchor-3" 425.596 710 basechar 0
AnchorPoint: "Anchor-1" 402.674 580 basechar 0
AnchorPoint: "Anchor-0" 300.404 0 basechar 0
LayerCount: 2
Fore
SplineSet
-0.595703125 0 m 1xdc
 90.0361328125 514 l 1
 21.0361328125 514 l 1xdc
 44.3115234375 646 l 1
 113.311523438 646 l 1xec
 124.595703125 710 l 1
 320.595703125 710 l 1xdc
 309.311523438 646 l 1
 520.311523438 646 l 1xec
 531.595703125 710 l 1
 727.595703125 710 l 1xdc
 716.311523438 646 l 1
 784.311523438 646 l 1xec
 761.036132812 514 l 1
 693.036132812 514 l 1
 602.404296875 0 l 1
 406.404296875 0 l 1
 455.599609375 279 l 1
 244.599609375 279 l 1
 195.404296875 0 l 1
 -0.595703125 0 l 1xdc
272.282226562 436 m 1
 483.282226562 436 l 1
 497.036132812 514 l 1
 286.036132812 514 l 1
 272.282226562 436 l 1
EndSplineSet
Validated: 1
EndChar

StartChar: Hcircumflex
Encoding: 292 292 46
Width: 727
GlyphClass: 2
Flags: HMW
HStem: 0 21G<62 62 62 258 469 469 469 665> 279 157<258 469 258 469> 690 20G<62 258 258 258 469 665 665 665> 757 166<174 452 274 302 424 424 424 452 274 552>
VStem: 62 196<0 279 436 710> 469 196<0 279 279 279 436 710 0 710>
AnchorPoint: "Anchor-3" 406.817 710 basechar 0
AnchorPoint: "Anchor-1" 383.895 580 basechar 0
AnchorPoint: "Anchor-0" 281.625 0 basechar 0
LayerCount: 2
Fore
SplineSet
226.104492188 757 m 1
 355.375 923 l 1
 533.375 923 l 1
 604.104492188 757 l 1
 476.104492188 757 l 1
 430.62109375 845 l 1
 354.104492188 757 l 1
 226.104492188 757 l 1
-19.375 0 m 1
 105.817382812 710 l 1
 301.817382812 710 l 1
 253.50390625 436 l 1
 464.50390625 436 l 1
 512.817382812 710 l 1
 708.817382812 710 l 1
 583.625 0 l 1
 387.625 0 l 1
 436.8203125 279 l 1
 225.8203125 279 l 1
 176.625 0 l 1
 -19.375 0 l 1
EndSplineSet
Validated: 1
EndChar

StartChar: I
Encoding: 73 73 47
Width: 320
GlyphClass: 2
Flags: HMW
HStem: 0 21G<62 62 62 258> 690 20G<62 258 258 258>
VStem: 62 196<0 710 0 710>
AnchorPoint: "Anchor-3" 222.596 710 basechar 0
AnchorPoint: "Anchor-2" 195.404 0 basechar 0
AnchorPoint: "Anchor-0" 97.4043 0 basechar 0
LayerCount: 2
Fore
SplineSet
-0.595703125 0 m 1
 124.595703125 710 l 1
 320.595703125 710 l 1
 195.404296875 0 l 1
 -0.595703125 0 l 1
EndSplineSet
Validated: 1
Substitution2: "'ss05' Style Set 5 in Latin lookup 38 subtable" I.ss05
Substitution2: "'aalt' Access All Alternates in Latin lookup 0 subtable" I.ss05
EndChar

StartChar: IJ
Encoding: 306 306 48
Width: 957
GlyphClass: 2
Flags: HMW
HStem: -16 157<603.5 656 603.5 713> 0 21G<62 62 62 258> 690 20G<62 258 258 258 714 910 910 910>
VStem: 62 196<0 710 0 710> 347 196<267 275> 714 196<260 710>
AnchorPoint: "Anchor-3" 876.007 710 basechar 0
AnchorPoint: "Anchor-2" 196.814 0 basechar 0
AnchorPoint: "Anchor-0" 98.8145 0 basechar 0
LayerCount: 2
Fore
SplineSet
0.814453125 0 m 1x74
 126.006835938 710 l 1
 322.006835938 710 l 1
 196.814453125 0 l 1
 0.814453125 0 l 1x74
565.993164062 -16 m 0
 377.993164062 -16 306.329101562 105 332.893554688 267 c 1
 530.3046875 275 l 1
 515.376953125 179 540.676757812 141 593.676757812 141 c 0
 645.676757812 141 683.671875 175 698.659179688 260 c 2
 778.006835938 710 l 1
 974.006835938 710 l 1
 894.659179688 260 l 2xbc
 865.036132812 92 731.993164062 -16 565.993164062 -16 c 0
EndSplineSet
Validated: 33
EndChar

StartChar: Iacute
Encoding: 205 205 49
Width: 320
GlyphClass: 2
Flags: HMW
HStem: 0 21G<62 62 62 258> 690 20G<62 258 258 258> 757 160<71 305 125 215>
VStem: 62 196<0 710 0 710>
AnchorPoint: "Anchor-3" 204.347 710 basechar 0
AnchorPoint: "Anchor-2" 177.154 0 basechar 0
AnchorPoint: "Anchor-0" 79.1543 0 basechar 0
LayerCount: 2
Fore
SplineSet
123.633789062 757 m 1
 205.845703125 917 l 1
 385.845703125 917 l 1
 267.633789062 757 l 1
 123.633789062 757 l 1
-18.845703125 0 m 1
 106.346679688 710 l 1
 302.346679688 710 l 1
 177.154296875 0 l 1
 -18.845703125 0 l 1
EndSplineSet
Validated: 1
Substitution2: "'ss05' Style Set 5 in Latin lookup 38 subtable" Iacute.ss05
Substitution2: "'aalt' Access All Alternates in Latin lookup 0 subtable" Iacute.ss05
EndChar

StartChar: Icircumflex
Encoding: 206 206 50
Width: 320
GlyphClass: 2
Flags: HMW
HStem: 0 21G<62 62 62 258> 690 20G<62 258 258 258> 757 166<-29 249 71 99 221 221 221 249 71 349>
VStem: 62 196<0 710 0 710>
AnchorPoint: "Anchor-3" 203.817 710 basechar 0
AnchorPoint: "Anchor-2" 176.625 0 basechar 0
AnchorPoint: "Anchor-0" 78.625 0 basechar 0
LayerCount: 2
Fore
SplineSet
23.1044921875 757 m 1
 152.375 923 l 1
 330.375 923 l 1
 401.104492188 757 l 1
 273.104492188 757 l 1
 227.62109375 845 l 1
 151.104492188 757 l 1
 23.1044921875 757 l 1
-19.375 0 m 1
 105.817382812 710 l 1
 301.817382812 710 l 1
 176.625 0 l 1
 -19.375 0 l 1
EndSplineSet
Validated: 1
Substitution2: "'ss05' Style Set 5 in Latin lookup 38 subtable" Icircumflex.ss05
Substitution2: "'aalt' Access All Alternates in Latin lookup 0 subtable" Icircumflex.ss05
EndChar

StartChar: Idieresis
Encoding: 207 207 51
Width: 320
GlyphClass: 2
Flags: HMW
HStem: 0 21G<62 62 62 258> 690 20G<62 258 258 258> 760 136<-51 129 -51 129 191 371 -51 191>
VStem: -51 180<760 896 760 896> 62 67<0 896 710 896> 62 196<0 710 0 710> 191 67<0 896> 191 180<760 896 760 896>
AnchorPoint: "Anchor-3" 206.197 710 basechar 0
AnchorPoint: "Anchor-2" 179.006 0 basechar 0
AnchorPoint: "Anchor-0" 81.0059 0 basechar 0
LayerCount: 2
Fore
SplineSet
4.013671875 760 m 1xf0
 27.994140625 896 l 1xf2
 207.994140625 896 l 1
 184.013671875 760 l 1xe8
 4.013671875 760 l 1xf0
246.013671875 760 m 1
 269.994140625 896 l 1xe2
 449.994140625 896 l 1
 426.013671875 760 l 1xe1
 246.013671875 760 l 1
-16.994140625 0 m 1xe4
 108.197265625 710 l 1
 304.197265625 710 l 1
 179.005859375 0 l 1
 -16.994140625 0 l 1xe4
EndSplineSet
Validated: 1
Substitution2: "'ss08' Style Set 8 in Latin lookup 41 subtable" Idieresis.ss08
Substitution2: "'ss05' Style Set 5 in Latin lookup 38 subtable" Idieresis.ss05
AlternateSubs2: "'aalt' Access All Alternates in Latin lookup 1 subtable" Idieresis.ss05 Idieresis.ss08
EndChar

StartChar: Idotaccent
Encoding: 304 304 52
Width: 320
GlyphClass: 2
Flags: HMW
HStem: 0 21G<62 62 62 258> 690 20G<62 258 258 258> 764 136<60 260 60 260>
VStem: 60 198<0 900 0 900> 62 196<0 710 0 710> 62 198<0 900 710 900>
AnchorPoint: "Anchor-3" 205.845 710 basechar 0
AnchorPoint: "Anchor-2" 178.653 0 basechar 0
AnchorPoint: "Anchor-0" 80.6533 0 basechar 0
LayerCount: 2
Fore
SplineSet
115.366210938 764 m 1xf0
 139.346679688 900 l 1xf0
 339.346679688 900 l 1
 315.366210938 764 l 1xe4
 115.366210938 764 l 1xf0
-17.3466796875 0 m 1xe8
 107.844726562 710 l 1
 303.844726562 710 l 1
 178.653320312 0 l 1
 -17.3466796875 0 l 1xe8
EndSplineSet
Validated: 1
Substitution2: "'ss08' Style Set 8 in Latin lookup 41 subtable" Idotaccent.ss08
Substitution2: "'ss05' Style Set 5 in Latin lookup 38 subtable" Idotaccent.ss05
AlternateSubs2: "'aalt' Access All Alternates in Latin lookup 1 subtable" Idotaccent.ss05 Idotaccent.ss08
EndChar

StartChar: Igrave
Encoding: 204 204 53
Width: 320
GlyphClass: 2
Flags: HMW
HStem: 0 21G<62 62 62 258> 690 20G<62 258 258 258> 764 160<101 101 101 191 11 245>
VStem: 62 196<0 710 0 710>
AnchorPoint: "Anchor-3" 203.729 710 basechar 0
AnchorPoint: "Anchor-2" 176.537 0 basechar 0
AnchorPoint: "Anchor-0" 78.5371 0 basechar 0
LayerCount: 2
Fore
SplineSet
154.250976562 764 m 1
 92.462890625 924 l 1
 272.462890625 924 l 1
 298.250976562 764 l 1
 154.250976562 764 l 1
-19.462890625 0 m 1
 105.729492188 710 l 1
 301.729492188 710 l 1
 176.537109375 0 l 1
 -19.462890625 0 l 1
EndSplineSet
Validated: 1
Substitution2: "'ss05' Style Set 5 in Latin lookup 38 subtable" Igrave.ss05
Substitution2: "'aalt' Access All Alternates in Latin lookup 0 subtable" Igrave.ss05
EndChar

StartChar: Imacron
Encoding: 298 298 54
Width: 320
GlyphClass: 2
Flags: HMW
HStem: 0 21G<62 62 62 258> 690 20G<62 258 258 258> 765 135<0 320 0 320>
VStem: 0 258<0 900 0 900> 62 196<0 710 0 710> 62 258<0 900 710 900>
AnchorPoint: "Anchor-3" 205.845 710 basechar 0
AnchorPoint: "Anchor-2" 178.653 0 basechar 0
AnchorPoint: "Anchor-0" 80.6533 0 basechar 0
LayerCount: 2
Fore
SplineSet
55.54296875 765 m 1xf0
 79.3466796875 900 l 1xf0
 399.346679688 900 l 1
 375.54296875 765 l 1xe4
 55.54296875 765 l 1xf0
-17.3466796875 0 m 1xe8
 107.844726562 710 l 1
 303.844726562 710 l 1
 178.653320312 0 l 1
 -17.3466796875 0 l 1xe8
EndSplineSet
Validated: 1
Substitution2: "'ss05' Style Set 5 in Latin lookup 38 subtable" Imacron.ss05
Substitution2: "'aalt' Access All Alternates in Latin lookup 0 subtable" Imacron.ss05
EndChar

StartChar: Iogonek
Encoding: 302 302 55
Width: 320
GlyphClass: 2
Flags: HMW
HStem: -222 104<135.5 231> 0 21G<62 62 62 108 258 258> 690 20G<62 258 258 258>
VStem: 49 150<-157 -85.5> 62 137<-102.5 710> 62 196<0 710 0 710>
AnchorPoint: "Anchor-3" 242.168 710 basechar 0
AnchorPoint: "Anchor-2" 214.977 0 basechar 0
AnchorPoint: "Anchor-0" 116.977 0 basechar 0
LayerCount: 2
Fore
SplineSet
18.9765625 0 m 1xe4
 144.16796875 710 l 1
 340.16796875 710 l 1
 214.9765625 0 l 1xe4
 181.981445312 -34 l 2
 162.278320312 -55 142.399414062 -77 139.401367188 -94 c 0xe8
 136.404296875 -111 147.169921875 -118 159.169921875 -118 c 0
 175.169921875 -118 195.227539062 -112 204.28515625 -106 c 1
 218.416015625 -196 l 1
 195.947265625 -210 141.83203125 -222 93.83203125 -222 c 0
 12.83203125 -222 -27.1728515625 -188 -16.2412109375 -126 c 0xf0
 -8.8349609375 -84 19.5126953125 -48 47.802734375 -18 c 2
 64.9765625 0 l 1
 18.9765625 0 l 1xe4
EndSplineSet
Validated: 33
Substitution2: "'ss05' Style Set 5 in Latin lookup 38 subtable" Iogonek.ss05
Substitution2: "'aalt' Access All Alternates in Latin lookup 0 subtable" Iogonek.ss05
EndChar

StartChar: Itilde
Encoding: 296 296 56
Width: 320
GlyphClass: 2
Flags: HMW
HStem: 0 21G<62 62 62 258> 690 20G<62 258 258 258> 759 159<60.5 69 -21 116> 764 111<211 224.5 211 255.5> 764 160<250 255.5> 807 111<96 109>
VStem: -21 90<759 806> 62 196<0 710 0 710> 250 90<875.5 924>
AnchorPoint: "Anchor-3" 203.729 710 basechar 0
AnchorPoint: "Anchor-2" 176.537 0 basechar 0
AnchorPoint: "Anchor-0" 78.5371 0 basechar 0
LayerCount: 2
Fore
SplineSet
267.250976562 764 m 0xc880
 233.250976562 764 216.30859375 770 192.541015625 794 c 0
 183.951171875 802 174.833007812 807 164.833007812 807 c 0xc6
 148.833007812 807 131.893554688 796 121.369140625 759 c 1
 31.369140625 759 l 1
 47.9443359375 853 101.405273438 918 180.405273438 918 c 0xe2
 212.405273438 918 236.170898438 911 260.291992188 889 c 0
 271.528320312 879 278.823242188 875 288.823242188 875 c 0xd080
 305.823242188 875 322.5859375 885 331.462890625 924 c 1
 421.462890625 924 l 1
 404.359375 827 350.250976562 764 267.250976562 764 c 0xc880
-19.462890625 0 m 1xc9
 105.729492188 710 l 1
 301.729492188 710 l 1
 176.537109375 0 l 1
 -19.462890625 0 l 1xc9
EndSplineSet
Validated: 1
Substitution2: "'ss05' Style Set 5 in Latin lookup 38 subtable" Itilde.ss05
Substitution2: "'aalt' Access All Alternates in Latin lookup 0 subtable" Itilde.ss05
EndChar

StartChar: J
Encoding: 74 74 57
Width: 647
GlyphClass: 2
Flags: HMW
HStem: -16 157<293.5 346 293.5 403> 690 20G<404 600 600 600>
VStem: 37 196<267 275> 404 196<260 710>
AnchorPoint: "Anchor-3" 566.007 710 basechar 0
LayerCount: 2
Fore
SplineSet
255.993164062 -16 m 0
 67.9931640625 -16 -3.6708984375 105 22.8935546875 267 c 1
 220.3046875 275 l 1
 205.376953125 179 230.676757812 141 283.676757812 141 c 0
 335.676757812 141 373.671875 175 388.659179688 260 c 2
 468.006835938 710 l 1
 664.006835938 710 l 1
 584.659179688 260 l 2
 555.036132812 92 421.993164062 -16 255.993164062 -16 c 0
EndSplineSet
Validated: 33
Substitution2: "Single Substitution lookup 16 subtable" uni004A0301
Substitution2: "'aalt' Access All Alternates in Latin lookup 0 subtable" uni004A0301
EndChar

StartChar: uni004A0301
Encoding: 65537 -1 58
Width: 647
GlyphClass: 2
Flags: HMW
HStem: -16 157<293.5 346 293.5 403> 690 20G<404 600 600 600> 757 160<413 647 467 557>
VStem: 37 196<267 275> 404 196<260 710>
AnchorPoint: "Anchor-3" 547.757 710 basechar 0
LayerCount: 2
Fore
SplineSet
467.043945312 757 m 1
 549.256835938 917 l 1
 729.256835938 917 l 1
 611.043945312 757 l 1
 467.043945312 757 l 1
237.743164062 -16 m 0
 49.7431640625 -16 -21.9208984375 105 4.6435546875 267 c 1
 202.0546875 275 l 1
 187.126953125 179 212.426757812 141 265.426757812 141 c 0
 317.426757812 141 355.421875 175 370.41015625 260 c 2
 449.756835938 710 l 1
 645.756835938 710 l 1
 566.41015625 260 l 2
 536.787109375 92 403.743164062 -16 237.743164062 -16 c 0
EndSplineSet
Validated: 33
EndChar

StartChar: Jcircumflex
Encoding: 308 308 59
Width: 647
GlyphClass: 2
Flags: HMW
HStem: -16 157<293.5 346 293.5 403> 690 20G<404 600 600 600> 757 166<313 591 413 441 563 563 563 591 413 691>
VStem: 37 196<267 275> 404 196<260 710>
AnchorPoint: "Anchor-3" 547.228 710 basechar 0
LayerCount: 2
Fore
SplineSet
366.515625 757 m 1
 495.78515625 923 l 1
 673.78515625 923 l 1
 744.515625 757 l 1
 616.515625 757 l 1
 571.032226562 845 l 1
 494.515625 757 l 1
 366.515625 757 l 1
237.21484375 -16 m 0
 49.21484375 -16 -22.4501953125 105 4.115234375 267 c 1
 201.525390625 275 l 1
 186.598632812 179 211.897460938 141 264.897460938 141 c 0
 316.897460938 141 354.892578125 175 369.880859375 260 c 2
 449.227539062 710 l 1
 645.227539062 710 l 1
 565.880859375 260 l 2
 536.2578125 92 403.21484375 -16 237.21484375 -16 c 0
EndSplineSet
Validated: 33
EndChar

StartChar: K
Encoding: 75 75 60
Width: 721
GlyphClass: 2
Flags: HMW
HStem: 0 21G<62 62 62 258 494 494 494 711> 690 20G<62 258 258 258 475 697 697 697>
VStem: 62 196<0 190 429 710>
AnchorPoint: "Anchor-3" 420.596 710 basechar 0
AnchorPoint: "Anchor-0" 301.404 0 basechar 0
LayerCount: 2
Fore
SplineSet
-0.595703125 0 m 1
 124.595703125 710 l 1
 320.595703125 710 l 1
 271.047851562 429 l 1
 537.595703125 710 l 1
 759.595703125 710 l 1
 454.700195312 393 l 1
 648.404296875 0 l 1
 431.404296875 0 l 1
 304.306640625 266 l 1
 228.90625 190 l 1
 195.404296875 0 l 1
 -0.595703125 0 l 1
EndSplineSet
Validated: 1
EndChar

StartChar: uni01E8
Encoding: 488 488 61
Width: 721
GlyphClass: 2
Flags: HMW
HStem: 0 21G<62 62 62 258 494 494 494 711> 690 20G<62 258 258 258 475 697 697 697> 757 166<269 297 419 447 269 269>
VStem: 62 196<0 190 429 710>
AnchorPoint: "Anchor-3" 401.817 710 basechar 0
AnchorPoint: "Anchor-0" 282.625 0 basechar 0
LayerCount: 2
Fore
SplineSet
250.375 923 m 1
 378.375 923 l 1
 423.858398438 835 l 1
 500.375 923 l 1
 628.375 923 l 1
 499.104492188 757 l 1
 321.104492188 757 l 1
 250.375 923 l 1
-19.375 0 m 1
 105.817382812 710 l 1
 301.817382812 710 l 1
 252.26953125 429 l 1
 518.817382812 710 l 1
 740.817382812 710 l 1
 435.921875 393 l 1
 629.625 0 l 1
 412.625 0 l 1
 285.528320312 266 l 1
 210.126953125 190 l 1
 176.625 0 l 1
 -19.375 0 l 1
EndSplineSet
Validated: 1
EndChar

StartChar: uni0136
Encoding: 310 310 62
Width: 721
GlyphClass: 2
Flags: HMW
HStem: -180 134<289 323 289 439> 0 21G<62 62 62 258 494 494 494 711> 690 20G<62 258 258 258 475 697 697 697>
VStem: 62 196<0 190 429 710> 289 150<-166 -46 -166 -46 -166 -46>
AnchorPoint: "Anchor-3" 443.695 710 basechar 0
AnchorPoint: "Anchor-0" 278.305 -262 basechar 0
LayerCount: 2
Fore
SplineSet
22.5029296875 0 m 1
 147.6953125 710 l 1
 343.6953125 710 l 1
 294.147460938 429 l 1
 560.6953125 710 l 1
 782.6953125 710 l 1
 477.798828125 393 l 1
 671.502929688 0 l 1
 454.502929688 0 l 1
 327.405273438 266 l 1
 252.004882812 190 l 1
 218.502929688 0 l 1
 22.5029296875 0 l 1
187.3046875 -262 m 1
 251.763671875 -180 l 1
 217.763671875 -180 l 1
 241.391601562 -46 l 1
 391.391601562 -46 l 1
 370.232421875 -166 l 1
 295.3046875 -262 l 1
 187.3046875 -262 l 1
EndSplineSet
Validated: 1
EndChar

StartChar: L
Encoding: 76 76 63
Width: 595
GlyphClass: 2
Flags: HMW
HStem: 0 157<258 567 258 567> 690 20G<62 258 258 258>
VStem: 62 196<157 710 157 710 157 710>
AnchorPoint: "Anchor-4" 382.62 540 basechar 0
AnchorPoint: "Anchor-3" 222.596 710 basechar 0
AnchorPoint: "Anchor-1" 194.408 380 basechar 0
AnchorPoint: "Anchor-0" 251.404 0 basechar 0
LayerCount: 2
Fore
SplineSet
-0.595703125 0 m 1
 124.595703125 710 l 1
 320.595703125 710 l 1
 223.086914062 157 l 1
 532.086914062 157 l 1
 504.404296875 0 l 1
 -0.595703125 0 l 1
EndSplineSet
Validated: 1
EndChar

StartChar: Lacute
Encoding: 313 313 64
Width: 595
GlyphClass: 2
Flags: HMW
HStem: 0 157<258 567 258 567> 690 20G<62 258 258 258> 757 160<71 305 125 215>
VStem: 62 196<157 710 157 710 157 710>
AnchorPoint: "Anchor-4" 364.371 540 basechar 0
AnchorPoint: "Anchor-3" 204.347 710 basechar 0
AnchorPoint: "Anchor-1" 176.158 380 basechar 0
AnchorPoint: "Anchor-0" 233.154 0 basechar 0
LayerCount: 2
Fore
SplineSet
123.633789062 757 m 1
 205.845703125 917 l 1
 385.845703125 917 l 1
 267.633789062 757 l 1
 123.633789062 757 l 1
-18.845703125 0 m 1
 106.346679688 710 l 1
 302.346679688 710 l 1
 204.837890625 157 l 1
 513.837890625 157 l 1
 486.154296875 0 l 1
 -18.845703125 0 l 1
EndSplineSet
Validated: 1
EndChar

StartChar: Lcaron
Encoding: 317 317 65
Width: 595
GlyphClass: 2
Flags: HMW
HStem: 0 157<258 567 258 567> 403 307<62 370 398 502> 690 20G<62 258 258 258 398 558 558 558>
VStem: 62 196<157 710 157 710 157 710>
AnchorPoint: "Anchor-4" 382.62 540 basechar 0
AnchorPoint: "Anchor-3" 222.596 710 basechar 0
AnchorPoint: "Anchor-1" 194.408 380 basechar 0
AnchorPoint: "Anchor-0" 251.404 0 basechar 0
LayerCount: 2
Fore
SplineSet
-0.595703125 0 m 1xb0
 124.595703125 710 l 1
 320.595703125 710 l 1
 223.086914062 157 l 1
 532.086914062 157 l 1
 504.404296875 0 l 1
 -0.595703125 0 l 1xb0
378.463867188 403 m 1xd0
 460.595703125 710 l 1
 620.595703125 710 l 1
 510.463867188 403 l 1
 378.463867188 403 l 1xd0
EndSplineSet
Validated: 1
EndChar

StartChar: uni013B
Encoding: 315 315 66
Width: 595
GlyphClass: 2
Flags: HMW
HStem: -180 134<239 273 239 389> 0 157<258 567 258 567> 690 20G<62 258 258 258>
VStem: 62 196<157 710 157 710 157 710> 239 150<-166 -46 -166 -46 -166 -46>
AnchorPoint: "Anchor-4" 405.72 540 basechar 0
AnchorPoint: "Anchor-3" 245.695 710 basechar 0
AnchorPoint: "Anchor-1" 217.507 380 basechar 0
AnchorPoint: "Anchor-0" 228.305 -262 basechar 0
LayerCount: 2
Fore
SplineSet
22.5029296875 0 m 1xf0
 147.6953125 710 l 1
 343.6953125 710 l 1
 246.186523438 157 l 1
 555.186523438 157 l 1
 527.502929688 0 l 1
 22.5029296875 0 l 1xf0
137.3046875 -262 m 1
 201.763671875 -180 l 1
 167.763671875 -180 l 1
 191.391601562 -46 l 1
 341.391601562 -46 l 1
 320.232421875 -166 l 1xe8
 245.3046875 -262 l 1
 137.3046875 -262 l 1
EndSplineSet
Validated: 1
Substitution2: "'locl' Localized Forms in Latin lookup 11 subtable" uni013B.loclMAH
Substitution2: "'aalt' Access All Alternates in Latin lookup 0 subtable" uni013B.loclMAH
EndChar

StartChar: Lslash
Encoding: 321 321 67
Width: 595
GlyphClass: 2
Flags: HMW
HStem: 0 157<258 567 258 567> 690 20G<62 258 258 258>
VStem: 62 196<157 260 260 260 471 710>
AnchorPoint: "Anchor-4" 382.62 540 basechar 0
AnchorPoint: "Anchor-3" 222.596 710 basechar 0
AnchorPoint: "Anchor-1" 194.408 380 basechar 0
AnchorPoint: "Anchor-0" 251.404 0 basechar 0
LayerCount: 2
Fore
SplineSet
-0.595703125 0 m 1
 45.2490234375 260 l 1
 -27.216796875 229 l 1
 -6.0576171875 349 l 1
 66.408203125 380 l 1
 124.595703125 710 l 1
 320.595703125 710 l 1
 278.454101562 471 l 1
 415.857421875 530 l 1
 394.698242188 410 l 1
 257.294921875 351 l 1
 223.086914062 157 l 1
 532.086914062 157 l 1
 504.404296875 0 l 1
 -0.595703125 0 l 1
EndSplineSet
Validated: 1
EndChar

StartChar: M
Encoding: 77 77 68
Width: 940
GlyphClass: 2
Flags: HMW
HStem: 0 21G<62 62 62 258 682 682 682 878> 690 20G<62 320 320 320 620 878 878 878>
VStem: 62 196<0 400 0 710> 682 196<0 400 400 400>
AnchorPoint: "Anchor-3" 532.596 710 basechar 0
AnchorPoint: "Anchor-0" 407.404 0 basechar 0
LayerCount: 2
Fore
SplineSet
-0.595703125 0 m 1
 124.595703125 710 l 1
 382.595703125 710 l 1
 453.072265625 259 l 1
 682.595703125 710 l 1
 940.595703125 710 l 1
 815.404296875 0 l 1
 619.404296875 0 l 1
 689.934570312 400 l 1
 476.932617188 3 l 1
 337.932617188 3 l 1
 265.934570312 400 l 1
 195.404296875 0 l 1
 -0.595703125 0 l 1
EndSplineSet
Validated: 1
EndChar

StartChar: N
Encoding: 78 78 69
Width: 755
GlyphClass: 2
Flags: HMW
HStem: 0 21G<62 62 62 258 495 495 495 693> 690 20G<62 260 260 260 497 693 693 693>
VStem: 62 196<0 380 0 710> 497 196<310 710 0 710>
AnchorPoint: "Anchor-3" 440.596 710 basechar 0
AnchorPoint: "Anchor-0" 310.404 0 basechar 0
LayerCount: 2
Fore
SplineSet
-0.595703125 0 m 1
 124.595703125 710 l 1
 322.595703125 710 l 1
 489.065429688 310 l 1
 559.595703125 710 l 1
 755.595703125 710 l 1
 630.404296875 0 l 1
 432.404296875 0 l 1
 262.408203125 380 l 1
 195.404296875 0 l 1
 -0.595703125 0 l 1
EndSplineSet
Validated: 1
EndChar

StartChar: Nacute
Encoding: 323 323 70
Width: 755
GlyphClass: 2
Flags: HMW
HStem: 0 21G<62 62 62 258 495 495 495 693> 690 20G<62 260 260 260 497 693 693 693> 757 160<289 523 343 433>
VStem: 62 196<0 380 0 710> 497 196<310 710 0 710>
AnchorPoint: "Anchor-3" 422.347 710 basechar 0
AnchorPoint: "Anchor-0" 292.154 0 basechar 0
LayerCount: 2
Fore
SplineSet
341.633789062 757 m 1
 423.845703125 917 l 1
 603.845703125 917 l 1
 485.633789062 757 l 1
 341.633789062 757 l 1
-18.845703125 0 m 1
 106.346679688 710 l 1
 304.346679688 710 l 1
 470.815429688 310 l 1
 541.346679688 710 l 1
 737.346679688 710 l 1
 612.154296875 0 l 1
 414.154296875 0 l 1
 244.158203125 380 l 1
 177.154296875 0 l 1
 -18.845703125 0 l 1
EndSplineSet
Validated: 1
EndChar

StartChar: Ncaron
Encoding: 327 327 71
Width: 755
GlyphClass: 2
Flags: HMW
HStem: 0 21G<62 62 62 258 495 495 495 693> 690 20G<62 260 260 260 497 693 693 693> 757 166<289 317 439 467 289 289>
VStem: 62 196<0 380 0 710> 497 196<310 710 0 710>
AnchorPoint: "Anchor-3" 421.817 710 basechar 0
AnchorPoint: "Anchor-0" 291.625 0 basechar 0
LayerCount: 2
Fore
SplineSet
270.375 923 m 1
 398.375 923 l 1
 443.858398438 835 l 1
 520.375 923 l 1
 648.375 923 l 1
 519.104492188 757 l 1
 341.104492188 757 l 1
 270.375 923 l 1
-19.375 0 m 1
 105.817382812 710 l 1
 303.817382812 710 l 1
 470.286132812 310 l 1
 540.817382812 710 l 1
 736.817382812 710 l 1
 611.625 0 l 1
 413.625 0 l 1
 243.62890625 380 l 1
 176.625 0 l 1
 -19.375 0 l 1
EndSplineSet
Validated: 1
EndChar

StartChar: uni0145
Encoding: 325 325 72
Width: 755
GlyphClass: 2
Flags: HMW
HStem: -180 134<298 332 298 448> 0 21G<62 62 62 258 495 495 495 693> 690 20G<62 260 260 260 497 693 693 693>
VStem: 62 196<0 380 0 710> 298 150<-166 -46 -166 -46 -166 -46> 497 196<310 710 0 710>
AnchorPoint: "Anchor-3" 463.695 710 basechar 0
AnchorPoint: "Anchor-0" 287.305 -262 basechar 0
LayerCount: 2
Fore
SplineSet
22.5029296875 0 m 1
 147.6953125 710 l 1
 345.6953125 710 l 1
 512.1640625 310 l 1
 582.6953125 710 l 1
 778.6953125 710 l 1
 653.502929688 0 l 1
 455.502929688 0 l 1
 285.506835938 380 l 1
 218.502929688 0 l 1
 22.5029296875 0 l 1
196.3046875 -262 m 1
 260.763671875 -180 l 1
 226.763671875 -180 l 1
 250.391601562 -46 l 1
 400.391601562 -46 l 1
 379.232421875 -166 l 1
 304.3046875 -262 l 1
 196.3046875 -262 l 1
EndSplineSet
Validated: 1
Substitution2: "'locl' Localized Forms in Latin lookup 11 subtable" uni0145.loclMAH
Substitution2: "'aalt' Access All Alternates in Latin lookup 0 subtable" uni0145.loclMAH
EndChar

StartChar: Ntilde
Encoding: 209 209 73
Width: 755
GlyphClass: 2
Flags: HMW
HStem: 0 21G<62 62 62 258 495 495 495 693> 690 20G<62 260 260 260 497 693 693 693> 759 159<278.5 287 197 334> 764 111<429 442.5 429 473.5> 764 160<468 473.5> 807 111<314 327>
VStem: 62 196<0 380 0 710> 197 90<759 806> 468 90<875.5 924> 497 196<310 710 0 710>
AnchorPoint: "Anchor-3" 421.729 710 basechar 0
AnchorPoint: "Anchor-0" 291.537 0 basechar 0
LayerCount: 2
Fore
SplineSet
485.250976562 764 m 0xca80
 451.250976562 764 434.30859375 770 410.541015625 794 c 0
 401.951171875 802 392.833007812 807 382.833007812 807 c 0xc540
 366.833007812 807 349.893554688 796 339.369140625 759 c 1
 249.369140625 759 l 1
 265.944335938 853 319.405273438 918 398.405273438 918 c 0xe140
 430.405273438 918 454.170898438 911 478.291992188 889 c 0
 489.528320312 879 496.823242188 875 506.823242188 875 c 0xd280
 523.823242188 875 540.5859375 885 549.462890625 924 c 1
 639.462890625 924 l 1
 622.359375 827 568.250976562 764 485.250976562 764 c 0xca80
-19.462890625 0 m 1xca40
 105.729492188 710 l 1
 303.729492188 710 l 1
 470.198242188 310 l 1
 540.729492188 710 l 1
 736.729492188 710 l 1
 611.537109375 0 l 1
 413.537109375 0 l 1
 243.541015625 380 l 1
 176.537109375 0 l 1
 -19.462890625 0 l 1xca40
EndSplineSet
Validated: 1
EndChar

StartChar: Eng
Encoding: 330 330 74
Width: 755
GlyphClass: 2
Flags: HMW
HStem: -170 120<376 464 464 479.5 376 524 376 464> 0 21G<62 62 62 258 495 495 495 510> 690 20G<62 260 260 260 497 693 693 693>
VStem: 62 196<0 381 0 710> 497 196<310 710> 510 183<-8 -5 -5 0 0 0>
AnchorPoint: "Anchor-3" 455.584 710 basechar 0
AnchorPoint: "Anchor-0" 303.942 -150 basechar 0
LayerCount: 2
Fore
SplineSet
14.3916015625 0 m 1xf4
 139.583984375 710 l 1
 337.583984375 710 l 1
 504.052734375 310 l 1
 574.583984375 710 l 1
 770.583984375 710 l 1
 644.509765625 -5 l 2xf8
 626.171875 -109 562.416015625 -170 446.416015625 -170 c 2
 298.416015625 -170 l 1
 319.575195312 -50 l 1
 407.575195312 -50 l 2
 438.575195312 -50 454.809570312 -43 460.981445312 -8 c 2
 462.391601562 0 l 1
 447.391601562 0 l 1
 277.572265625 381 l 1
 210.391601562 0 l 1
 14.3916015625 0 l 1xf4
EndSplineSet
Validated: 1
EndChar

StartChar: O
Encoding: 79 79 75
Width: 800
GlyphClass: 2
Flags: HMW
HStem: -16 157<350 450 350 512.5> 569 157<350 450>
VStem: 40 201<286 422 286 468> 559 201<286 422>
AnchorPoint: "Anchor-3" 462.596 710 basechar 0
AnchorPoint: "Anchor-1" 400 355 basechar 0
AnchorPoint: "Anchor-0" 337.404 0 basechar 0
LayerCount: 2
Fore
SplineSet
334.583007812 -16 m 0
 109.583007812 -16 -0.37890625 126 39.8232421875 354 c 0
 80.0263671875 582 240.416992188 726 465.416992188 726 c 0
 690.416992188 726 800.026367188 582 759.823242188 354 c 0
 719.62109375 126 559.583007812 -16 334.583007812 -16 c 0
362.265625 141 m 0
 462.265625 141 534.842773438 218 558.823242188 354 c 0
 582.803710938 490 537.734375 569 437.734375 569 c 0
 337.734375 569 264.803710938 490 240.823242188 354 c 0
 216.842773438 218 262.265625 141 362.265625 141 c 0
EndSplineSet
Validated: 33
Substitution2: "Single Substitution lookup 27 subtable" ordmasculine
Substitution2: "'aalt' Access All Alternates in Latin lookup 0 subtable" ordmasculine
EndChar

StartChar: Oacute
Encoding: 211 211 76
Width: 800
GlyphClass: 2
Flags: HMW
HStem: -16 157<350 450 350 512.5> 569 157<350 450> 757 160<311 545 365 455>
VStem: 40 201<286 422 286 468> 559 201<286 422>
AnchorPoint: "Anchor-3" 445.757 710 basechar 0
AnchorPoint: "Anchor-1" 383.161 355 basechar 0
AnchorPoint: "Anchor-0" 320.564 0 basechar 0
LayerCount: 2
Fore
SplineSet
365.043945312 757 m 1
 447.256835938 917 l 1
 627.256835938 917 l 1
 509.043945312 757 l 1
 365.043945312 757 l 1
317.743164062 -16 m 0
 92.7431640625 -16 -17.2177734375 126 22.984375 354 c 0
 63.1865234375 582 223.578125 726 448.578125 726 c 0
 673.578125 726 783.186523438 582 742.984375 354 c 0
 702.782226562 126 542.743164062 -16 317.743164062 -16 c 0
345.426757812 141 m 0
 445.426757812 141 518.00390625 218 541.984375 354 c 0
 565.96484375 490 520.89453125 569 420.89453125 569 c 0
 320.89453125 569 247.96484375 490 223.984375 354 c 0
 200.00390625 218 245.426757812 141 345.426757812 141 c 0
EndSplineSet
Validated: 33
EndChar

StartChar: Ocircumflex
Encoding: 212 212 77
Width: 800
GlyphClass: 2
Flags: HMW
HStem: -16 157<350 450 350 512.5> 569 157<350 450> 757 166<211 489 311 339 461 461 461 489 311 589>
VStem: 40 201<286 422 286 468> 559 201<286 422>
AnchorPoint: "Anchor-3" 445.228 710 basechar 0
AnchorPoint: "Anchor-1" 382.632 355 basechar 0
AnchorPoint: "Anchor-0" 320.036 0 basechar 0
LayerCount: 2
Fore
SplineSet
264.515625 757 m 1
 393.78515625 923 l 1
 571.78515625 923 l 1
 642.515625 757 l 1
 514.515625 757 l 1
 469.032226562 845 l 1
 392.515625 757 l 1
 264.515625 757 l 1
317.21484375 -16 m 0
 92.21484375 -16 -17.7470703125 126 22.455078125 354 c 0
 62.658203125 582 223.048828125 726 448.048828125 726 c 0
 673.048828125 726 782.658203125 582 742.455078125 354 c 0
 702.252929688 126 542.21484375 -16 317.21484375 -16 c 0
344.897460938 141 m 0
 444.897460938 141 517.474609375 218 541.455078125 354 c 0
 565.435546875 490 520.366210938 569 420.366210938 569 c 0
 320.366210938 569 247.435546875 490 223.455078125 354 c 0
 199.474609375 218 244.897460938 141 344.897460938 141 c 0
EndSplineSet
Validated: 33
EndChar

StartChar: Odieresis
Encoding: 214 214 78
Width: 800
GlyphClass: 2
Flags: HMW
HStem: -16 157<350 450 350 512.5> 569 157<350 450> 760 136<189 369 189 369 431 611 189 431>
VStem: 40 201<286 422 286 468> 189 180<760 896 760 896> 431 180<760 896 760 896> 559 201<286 422>
AnchorPoint: "Anchor-3" 447.608 710 basechar 0
AnchorPoint: "Anchor-1" 385.012 355 basechar 0
AnchorPoint: "Anchor-0" 322.416 0 basechar 0
LayerCount: 2
Fore
SplineSet
245.424804688 760 m 1xec
 269.405273438 896 l 1
 449.405273438 896 l 1
 425.424804688 760 l 1
 245.424804688 760 l 1xec
487.424804688 760 m 1
 511.405273438 896 l 1
 691.405273438 896 l 1
 667.424804688 760 l 1
 487.424804688 760 l 1
319.594726562 -16 m 0
 94.5947265625 -16 -15.3662109375 126 24.8359375 354 c 0
 65.0380859375 582 225.4296875 726 450.4296875 726 c 0
 675.4296875 726 785.038085938 582 744.8359375 354 c 0xf2
 704.633789062 126 544.594726562 -16 319.594726562 -16 c 0
347.278320312 141 m 0
 447.278320312 141 519.85546875 218 543.8359375 354 c 0
 567.81640625 490 522.74609375 569 422.74609375 569 c 0
 322.74609375 569 249.81640625 490 225.8359375 354 c 0
 201.85546875 218 247.278320312 141 347.278320312 141 c 0
EndSplineSet
Validated: 33
Substitution2: "'ss08' Style Set 8 in Latin lookup 41 subtable" Odieresis.ss08
Substitution2: "'aalt' Access All Alternates in Latin lookup 0 subtable" Odieresis.ss08
EndChar

StartChar: Ograve
Encoding: 210 210 79
Width: 800
GlyphClass: 2
Flags: HMW
HStem: -16 157<350 450 350 512.5> 569 157<350 450> 764 160<341 341 341 431 251 485>
VStem: 40 201<286 422 286 468> 559 201<286 422>
AnchorPoint: "Anchor-3" 445.14 710 basechar 0
AnchorPoint: "Anchor-1" 382.544 355 basechar 0
AnchorPoint: "Anchor-0" 319.947 0 basechar 0
LayerCount: 2
Fore
SplineSet
395.661132812 764 m 1
 333.874023438 924 l 1
 513.874023438 924 l 1
 539.661132812 764 l 1
 395.661132812 764 l 1
317.125976562 -16 m 0
 92.1259765625 -16 -17.8349609375 126 22.3671875 354 c 0
 62.5703125 582 222.9609375 726 447.9609375 726 c 0
 672.9609375 726 782.5703125 582 742.3671875 354 c 0
 702.165039062 126 542.125976562 -16 317.125976562 -16 c 0
344.809570312 141 m 0
 444.809570312 141 517.38671875 218 541.3671875 354 c 0
 565.34765625 490 520.27734375 569 420.27734375 569 c 0
 320.27734375 569 247.34765625 490 223.3671875 354 c 0
 199.38671875 218 244.809570312 141 344.809570312 141 c 0
EndSplineSet
Validated: 33
EndChar

StartChar: Ohungarumlaut
Encoding: 336 336 80
Width: 800
GlyphClass: 2
Flags: HMW
HStem: -16 157<350 450 350 512.5> 569 157<350 450> 757 160<226 460 280 370 434 460 488 578 434 434>
VStem: 40 201<286 422 286 468> 559 201<286 422>
AnchorPoint: "Anchor-3" 445.757 710 basechar 0
AnchorPoint: "Anchor-1" 383.161 355 basechar 0
AnchorPoint: "Anchor-0" 320.564 0 basechar 0
LayerCount: 2
Fore
SplineSet
280.043945312 757 m 1
 362.256835938 917 l 1
 542.256835938 917 l 1
 424.043945312 757 l 1
 280.043945312 757 l 1
488.043945312 757 m 1
 570.256835938 917 l 1
 750.256835938 917 l 1
 632.043945312 757 l 1
 488.043945312 757 l 1
317.743164062 -16 m 0
 92.7431640625 -16 -17.2177734375 126 22.984375 354 c 0
 63.1865234375 582 223.578125 726 448.578125 726 c 0
 673.578125 726 783.186523438 582 742.984375 354 c 0
 702.782226562 126 542.743164062 -16 317.743164062 -16 c 0
345.426757812 141 m 0
 445.426757812 141 518.00390625 218 541.984375 354 c 0
 565.96484375 490 520.89453125 569 420.89453125 569 c 0
 320.89453125 569 247.96484375 490 223.984375 354 c 0
 200.00390625 218 245.426757812 141 345.426757812 141 c 0
EndSplineSet
Validated: 33
EndChar

StartChar: Omacron
Encoding: 332 332 81
Width: 800
GlyphClass: 2
Flags: HMW
HStem: -16 157<350 450 350 512.5> 569 157<350 450> 765 135<240 560 240 560>
VStem: 40 201<286 422 286 468> 240 320<765 900 765 900> 559 201<286 422>
AnchorPoint: "Anchor-3" 447.256 710 basechar 0
AnchorPoint: "Anchor-1" 384.659 355 basechar 0
AnchorPoint: "Anchor-0" 322.063 0 basechar 0
LayerCount: 2
Fore
SplineSet
296.954101562 765 m 1xe8
 320.7578125 900 l 1
 640.7578125 900 l 1
 616.954101562 765 l 1
 296.954101562 765 l 1xe8
319.2421875 -16 m 0
 94.2421875 -16 -15.7197265625 126 24.4833984375 354 c 0
 64.685546875 582 225.077148438 726 450.077148438 726 c 0
 675.077148438 726 784.685546875 582 744.483398438 354 c 0xf4
 704.280273438 126 544.2421875 -16 319.2421875 -16 c 0
346.92578125 141 m 0
 446.92578125 141 519.502929688 218 543.483398438 354 c 0
 567.463867188 490 522.393554688 569 422.393554688 569 c 0
 322.393554688 569 249.463867188 490 225.483398438 354 c 0
 201.502929688 218 246.92578125 141 346.92578125 141 c 0
EndSplineSet
Validated: 33
EndChar

StartChar: Oslash
Encoding: 216 216 82
Width: 800
GlyphClass: 2
Flags: HMW
HStem: -16 157<386 450 386 512.5> 531 20G<475 475> 569 157<350 414>
VStem: 40 201<333 422 333 468> 559 201<286 375>
AnchorPoint: "Anchor-3" 462.596 710 basechar 0
AnchorPoint: "Anchor-1" 400 355 basechar 0
AnchorPoint: "Anchor-0" 337.404 0 basechar 0
LayerCount: 2
Fore
SplineSet
4.5830078125 -16 m 1
 90.509765625 80 l 1
 37.794921875 144 19.3701171875 238 39.8232421875 354 c 0
 80.0263671875 582 240.416992188 726 465.416992188 726 c 0
 531.416992188 726 588.125 713 633.069335938 690 c 1
 665.416992188 726 l 1
 795.416992188 726 l 1
 709.313476562 629 l 1
 762.028320312 565 780.27734375 470 759.823242188 354 c 0
 719.62109375 126 559.583007812 -16 334.583007812 -16 c 0
 268.583007812 -16 211.698242188 -4 165.930664062 20 c 1
 134.583007812 -16 l 1
 4.5830078125 -16 l 1
240.823242188 354 m 0
 233.41796875 312 233.0703125 276 237.780273438 246 c 1
 509.560546875 551 l 1xd8
 489.67578125 563 465.734375 569 437.734375 569 c 0
 337.734375 569 264.803710938 490 240.823242188 354 c 0
362.265625 141 m 0
 462.265625 141 534.842773438 218 558.823242188 354 c 0
 566.229492188 396 566.75390625 433 561.04296875 463 c 1
 290.439453125 159 l 1
 310.32421875 147 334.265625 141 362.265625 141 c 0
EndSplineSet
Validated: 33
EndChar

StartChar: Otilde
Encoding: 213 213 83
Width: 800
GlyphClass: 2
Flags: HMW
HStem: -16 157<350 450 350 512.5> 569 157<350 450> 759 159<300.5 309 219 356> 764 111<451 464.5 451 495.5> 764 160<490 495.5> 807 111<336 349>
VStem: 40 201<286 422 286 468> 219 90<759 806> 490 90<875.5 924> 559 201<286 422>
AnchorPoint: "Anchor-3" 445.14 710 basechar 0
AnchorPoint: "Anchor-1" 382.544 355 basechar 0
AnchorPoint: "Anchor-0" 319.947 0 basechar 0
LayerCount: 2
Fore
SplineSet
508.661132812 764 m 0xca80
 474.661132812 764 457.719726562 770 433.951171875 794 c 0
 425.361328125 802 416.243164062 807 406.243164062 807 c 0xc540
 390.243164062 807 373.303710938 796 362.779296875 759 c 1
 272.779296875 759 l 1
 289.354492188 853 342.815429688 918 421.815429688 918 c 0xe140
 453.815429688 918 477.581054688 911 501.702148438 889 c 0
 512.939453125 879 520.233398438 875 530.233398438 875 c 0xd280
 547.233398438 875 563.997070312 885 572.874023438 924 c 1
 662.874023438 924 l 1
 645.76953125 827 591.661132812 764 508.661132812 764 c 0xca80
317.125976562 -16 m 0
 92.1259765625 -16 -17.8349609375 126 22.3671875 354 c 0xca40
 62.5703125 582 222.9609375 726 447.9609375 726 c 0
 672.9609375 726 782.5703125 582 742.3671875 354 c 0
 702.165039062 126 542.125976562 -16 317.125976562 -16 c 0
344.809570312 141 m 0
 444.809570312 141 517.38671875 218 541.3671875 354 c 0
 565.34765625 490 520.27734375 569 420.27734375 569 c 0
 320.27734375 569 247.34765625 490 223.3671875 354 c 0
 199.38671875 218 244.809570312 141 344.809570312 141 c 0
EndSplineSet
Validated: 33
EndChar

StartChar: OE
Encoding: 338 338 84
Width: 1141
GlyphClass: 2
Flags: HMW
HStem: -16 157<344.5 438> 0 157<791 1103 791 1103> 278 156<791 1083 791 1083> 553 157<791 1095 791 791> 569 157<344 438 293 455.5>
VStem: 40 201<295 414.5 295 474.5> 557 234<157 414.5> 595 196<0 278 48 278>
AnchorPoint: "Anchor-3" 635.596 710 basechar 0
AnchorPoint: "Anchor-0" 510.404 0 basechar 0
LayerCount: 2
Fore
SplineSet
332.583007812 -16 m 0xb5
 122.583007812 -16 -1.7890625 118 39.8232421875 354 c 0
 82.318359375 595 253.416992188 726 463.416992188 726 c 0xae
 543.416992188 726 605.538085938 704 649.1328125 662 c 1
 657.595703125 710 l 1x75
 1157.59570312 710 l 1
 1129.91308594 553 l 1
 825.913085938 553 l 1
 804.9296875 434 l 1
 1096.9296875 434 l 1
 1069.42285156 278 l 1
 777.422851562 278 l 1
 756.086914062 157 l 1x76
 1068.08691406 157 l 1
 1040.40429688 0 l 1
 532.404296875 0 l 1x75
 540.8671875 48 l 1
 482.461914062 6 412.583007812 -16 332.583007812 -16 c 0xb5
360.265625 141 m 0
 475.265625 141 536.016601562 236 556.823242188 354 c 0
 578.159179688 475 550.734375 569 435.734375 569 c 0
 327.734375 569 262.159179688 475 240.823242188 354 c 0
 220.016601562 236 253.265625 141 360.265625 141 c 0
EndSplineSet
Validated: 33
EndChar

StartChar: P
Encoding: 80 80 85
Width: 686
GlyphClass: 2
Flags: HMW
HStem: 0 21G<62 62 62 258> 225 157<258 351 351 366 258 351> 553 157<258 351 258 258>
VStem: 62 196<0 225 382 553> 453 200<439 495>
AnchorPoint: "Anchor-3" 405.596 710 basechar 0
AnchorPoint: "Anchor-0" 280.404 0 basechar 0
LayerCount: 2
Fore
SplineSet
-0.595703125 0 m 1
 124.595703125 710 l 1
 428.595703125 710 l 2
 606.595703125 710 699.197265625 617 672.749023438 467 c 0
 646.475585938 318 521.077148438 225 343.077148438 225 c 2
 235.077148438 225 l 1
 195.404296875 0 l 1
 -0.595703125 0 l 1
262.760742188 382 m 1
 355.760742188 382 l 2
 416.760742188 382 462.874023438 411 472.749023438 467 c 0
 482.623046875 523 447.913085938 553 385.913085938 553 c 2
 292.913085938 553 l 1
 262.760742188 382 l 1
EndSplineSet
Validated: 33
EndChar

StartChar: Thorn
Encoding: 222 222 86
Width: 656
GlyphClass: 2
Flags: HMW
HStem: 0 21G<62 62 62 258> 148 158<258 345 345 350 258 345> 425 158<258 345 258 350> 690 20G<62 258 258 258>
VStem: 62 196<0 148 0 306 306 425 583 710> 423 200<346 385.5>
AnchorPoint: "Anchor-3" 390.596 710 basechar 0
AnchorPoint: "Anchor-0" 265.404 0 basechar 0
LayerCount: 2
Fore
SplineSet
-0.595703125 0 m 1
 124.595703125 710 l 1
 320.595703125 710 l 1
 298.202148438 583 l 1
 390.202148438 583 l 2
 564.202148438 583 649.272460938 504 625.116210938 367 c 0
 600.4296875 227 487.5 148 313.5 148 c 2
 221.5 148 l 1
 195.404296875 0 l 1
 -0.595703125 0 l 1
357.342773438 425 m 2
 270.342773438 425 l 1
 249.360351562 306 l 1
 336.360351562 306 l 2
 388.360351562 306 417.88671875 326 424.939453125 366 c 0
 431.81640625 405 409.342773438 425 357.342773438 425 c 2
EndSplineSet
Validated: 33
EndChar

StartChar: Q
Encoding: 81 81 87
Width: 793
GlyphClass: 2
Flags: HMW
HStem: -16 157<341.5 402 341.5 425> 569 157<341 452.5>
VStem: 40 201<298.5 410 298.5 461> 552 201<317 410>
AnchorPoint: "Anchor-3" 463.211 710 basechar 0
AnchorPoint: "Anchor-0" 338.019 0 basechar 0
LayerCount: 2
Fore
SplineSet
509.967773438 -57 m 1
 469.252929688 7 l 1
 436.608398438 -8 391.197265625 -16 335.197265625 -16 c 0
 121.197265625 -16 4.1171875 131 43.4384765625 354 c 0
 81.171875 568 233.032226562 726 466.032226562 726 c 0
 698.032226562 726 794.171875 568 756.438476562 354 c 0
 733.163085938 222 670.94140625 130 581.303710938 64 c 1
 657.967773438 -57 l 1
 509.967773438 -57 l 1
362.880859375 141 m 0
 372.880859375 141 383.056640625 142 392.5859375 145 c 1
 318.040039062 261 l 1
 466.040039062 261 l 1
 493.576171875 213 l 1
 520.513671875 241 542.390625 280 555.438476562 354 c 0
 575.186523438 466 549.348632812 569 438.348632812 569 c 0
 326.348632812 569 264.186523438 466 244.438476562 354 c 0
 224.866210938 243 251.880859375 141 362.880859375 141 c 0
EndSplineSet
Validated: 33
EndChar

StartChar: R
Encoding: 82 82 88
Width: 714
GlyphClass: 2
Flags: HMW
HStem: 0 21G<62 62 62 258 471 471 471 671> 242 157<258 365 365 373 258 365> 553 157<258 365 258 258>
VStem: 62 196<0 242 399 553> 465 200<455.5 502.5> 466 197
AnchorPoint: "Anchor-3" 412.596 710 basechar 0
AnchorPoint: "Anchor-0" 304.404 0 basechar 0
LayerCount: 2
Fore
SplineSet
-0.595703125 0 m 1xf4
 124.595703125 710 l 1
 463.595703125 710 l 2
 623.595703125 710 712.9609375 627 690.567382812 500 c 0xf8
 674.874023438 411 617.765625 348 531.181640625 322 c 1
 605.594726562 313 635.188476562 271 627.668945312 200 c 2
 608.404296875 0 l 1
 408.404296875 0 l 1
 427.673828125 166 l 2
 433.842773438 218 417.075195312 242 353.075195312 242 c 2
 238.075195312 242 l 1
 195.404296875 0 l 1
 -0.595703125 0 l 1xf4
265.758789062 399 m 1
 372.758789062 399 l 2
 437.758789062 399 477.872070312 428 486.51171875 477 c 0
 495.504882812 528 464.913085938 553 399.913085938 553 c 2
 292.913085938 553 l 1
 265.758789062 399 l 1
EndSplineSet
Validated: 33
Substitution2: "'ss04' Style Set 4 in Latin lookup 37 subtable" R.ss04
Substitution2: "'aalt' Access All Alternates in Latin lookup 0 subtable" R.ss04
EndChar

StartChar: Racute
Encoding: 340 340 89
Width: 714
GlyphClass: 2
Flags: HMW
HStem: 0 21G<62 62 62 258 471 471 471 671> 242 157<258 365 365 373 258 365> 553 157<258 365 258 258> 757 160<261 495 315 405>
VStem: 62 196<0 242 399 553> 465 200<455.5 502.5> 466 197
AnchorPoint: "Anchor-3" 394.347 710 basechar 0
AnchorPoint: "Anchor-0" 286.154 0 basechar 0
LayerCount: 2
Fore
SplineSet
313.633789062 757 m 1xfa
 395.845703125 917 l 1
 575.845703125 917 l 1
 457.633789062 757 l 1
 313.633789062 757 l 1xfa
-18.845703125 0 m 1
 106.346679688 710 l 1
 445.346679688 710 l 2
 605.346679688 710 694.7109375 627 672.317382812 500 c 0xfc
 656.624023438 411 599.515625 348 512.931640625 322 c 1
 587.344726562 313 616.938476562 271 609.419921875 200 c 2
 590.154296875 0 l 1
 390.154296875 0 l 1
 409.424804688 166 l 2
 415.59375 218 398.825195312 242 334.825195312 242 c 2
 219.825195312 242 l 1
 177.154296875 0 l 1
 -18.845703125 0 l 1
247.508789062 399 m 1
 354.508789062 399 l 2
 419.508789062 399 459.622070312 428 468.26171875 477 c 0
 477.254882812 528 446.663085938 553 381.663085938 553 c 2
 274.663085938 553 l 1
 247.508789062 399 l 1
EndSplineSet
Validated: 33
Substitution2: "'ss04' Style Set 4 in Latin lookup 37 subtable" Racute.ss04
Substitution2: "'aalt' Access All Alternates in Latin lookup 0 subtable" Racute.ss04
EndChar

StartChar: Rcaron
Encoding: 344 344 90
Width: 714
GlyphClass: 2
Flags: HMW
HStem: 0 21G<62 62 62 258 471 471 471 671> 242 157<258 365 365 373 258 365> 553 157<258 365 258 258> 757 166<261 289 411 439 261 261>
VStem: 62 196<0 242 399 553> 465 200<455.5 502.5> 466 197
AnchorPoint: "Anchor-3" 393.817 710 basechar 0
AnchorPoint: "Anchor-0" 285.625 0 basechar 0
LayerCount: 2
Fore
SplineSet
242.375 923 m 1xfa
 370.375 923 l 1
 415.858398438 835 l 1
 492.375 923 l 1
 620.375 923 l 1
 491.104492188 757 l 1
 313.104492188 757 l 1
 242.375 923 l 1xfa
-19.375 0 m 1
 105.817382812 710 l 1
 444.817382812 710 l 2
 604.817382812 710 694.181640625 627 671.7890625 500 c 0xfc
 656.095703125 411 598.987304688 348 512.40234375 322 c 1
 586.815429688 313 616.41015625 271 608.890625 200 c 2
 589.625 0 l 1
 389.625 0 l 1
 408.895507812 166 l 2
 415.064453125 218 398.295898438 242 334.295898438 242 c 2
 219.295898438 242 l 1
 176.625 0 l 1
 -19.375 0 l 1
246.979492188 399 m 1
 353.979492188 399 l 2
 418.979492188 399 459.092773438 428 467.733398438 477 c 0
 476.725585938 528 446.133789062 553 381.133789062 553 c 2
 274.133789062 553 l 1
 246.979492188 399 l 1
EndSplineSet
Validated: 33
Substitution2: "'ss04' Style Set 4 in Latin lookup 37 subtable" Rcaron.ss04
Substitution2: "'aalt' Access All Alternates in Latin lookup 0 subtable" Rcaron.ss04
EndChar

StartChar: uni0156
Encoding: 342 342 91
Width: 714
GlyphClass: 2
Flags: HMW
HStem: -180 134<292 326 292 442> 0 21G<62 62 62 258 471 471 471 671> 242 157<258 365 365 373 258 365> 553 157<258 365 258 258>
VStem: 62 196<0 242 399 553> 292 150<-166 -46 -166 -46 -166 -46> 465 200<455.5 502.5> 466 197
AnchorPoint: "Anchor-3" 435.695 710 basechar 0
AnchorPoint: "Anchor-0" 281.305 -262 basechar 0
LayerCount: 2
Fore
SplineSet
22.5029296875 0 m 1xf9
 147.6953125 710 l 1
 486.6953125 710 l 2
 646.6953125 710 736.059570312 627 713.666015625 500 c 0xfa
 697.973632812 411 640.864257812 348 554.280273438 322 c 1
 628.693359375 313 658.287109375 271 650.768554688 200 c 2
 631.502929688 0 l 1
 431.502929688 0 l 1
 450.7734375 166 l 2
 456.942382812 218 440.173828125 242 376.173828125 242 c 2
 261.173828125 242 l 1
 218.502929688 0 l 1
 22.5029296875 0 l 1xf9
288.857421875 399 m 1
 395.857421875 399 l 2
 460.857421875 399 500.970703125 428 509.610351562 477 c 0
 518.603515625 528 488.01171875 553 423.01171875 553 c 2
 316.01171875 553 l 1
 288.857421875 399 l 1
190.3046875 -262 m 1
 254.763671875 -180 l 1
 220.763671875 -180 l 1
 244.391601562 -46 l 1
 394.391601562 -46 l 1
 373.232421875 -166 l 1xfc
 298.3046875 -262 l 1
 190.3046875 -262 l 1
EndSplineSet
Validated: 33
Substitution2: "'ss04' Style Set 4 in Latin lookup 37 subtable" uni0156.ss04
Substitution2: "'aalt' Access All Alternates in Latin lookup 0 subtable" uni0156.ss04
EndChar

StartChar: S
Encoding: 83 83 92
Width: 709
GlyphClass: 2
Flags: HMW
HStem: -16 154<331 399 331 459> 572 154<319 379.5>
VStem: 63 196<488 528.5 488 570> 463 196<179 219>
AnchorPoint: "Anchor-3" 413.596 710 basechar 0
AnchorPoint: "Anchor-0" 301.404 0 basechar 0
LayerCount: 2
Fore
SplineSet
301.583007812 -16 m 0
 105.583007812 -16 11.8623046875 82 29.3701171875 238 c 1
 225.95703125 247 l 1
 223.614257812 177 254.737304688 138 330.737304688 138 c 0
 390.737304688 138 428.263671875 158 435.668945312 200 c 0
 442.370117188 238 426.249023438 260 322.127929688 282 c 0
 135.181640625 322 66.173828125 373 89.2724609375 504 c 0
 112.547851562 636 234.416992188 726 414.416992188 726 c 0
 604.416992188 726 682.255859375 623 671.3359375 476 c 1
 476.924804688 468 l 1
 483.385742188 533 450.262695312 572 385.262695312 572 c 0
 329.262695312 572 292.854492188 547 286.331054688 510 c 0
 278.572265625 466 305.045898438 446 394.224609375 430 c 0
 597.700195312 393 652.828125 320 633.080078125 208 c 0
 608.5703125 69 485.583007812 -16 301.583007812 -16 c 0
EndSplineSet
Validated: 33
EndChar

StartChar: Sacute
Encoding: 346 346 93
Width: 709
GlyphClass: 2
Flags: HMW
HStem: -16 154<331 399 331 459> 572 154<319 379.5> 757 160<262 496 316 406>
VStem: 63 196<488 528.5 488 570> 463 196<179 219>
AnchorPoint: "Anchor-3" 396.757 710 basechar 0
AnchorPoint: "Anchor-0" 284.564 0 basechar 0
LayerCount: 2
Fore
SplineSet
316.043945312 757 m 1
 398.256835938 917 l 1
 578.256835938 917 l 1
 460.043945312 757 l 1
 316.043945312 757 l 1
284.743164062 -16 m 0
 88.7431640625 -16 -4.9765625 82 12.5302734375 238 c 1
 209.1171875 247 l 1
 206.774414062 177 237.897460938 138 313.897460938 138 c 0
 373.897460938 138 411.424804688 158 418.830078125 200 c 0
 425.530273438 238 409.41015625 260 305.2890625 282 c 0
 118.341796875 322 49.3349609375 373 72.43359375 504 c 0
 95.708984375 636 217.578125 726 397.578125 726 c 0
 587.578125 726 665.416015625 623 654.49609375 476 c 1
 460.0859375 468 l 1
 466.546875 533 433.423828125 572 368.423828125 572 c 0
 312.423828125 572 276.015625 547 269.491210938 510 c 0
 261.733398438 466 288.206054688 446 377.385742188 430 c 0
 580.861328125 393 635.989257812 320 616.240234375 208 c 0
 591.731445312 69 468.743164062 -16 284.743164062 -16 c 0
EndSplineSet
Validated: 33
EndChar

StartChar: Scaron
Encoding: 352 352 94
Width: 709
GlyphClass: 2
Flags: HMW
HStem: -16 154<331 399 331 459> 572 154<319 379.5> 757 166<262 290 412 440 262 262>
VStem: 63 196<488 528.5 488 570> 463 196<179 219>
AnchorPoint: "Anchor-3" 396.228 710 basechar 0
AnchorPoint: "Anchor-0" 284.036 0 basechar 0
LayerCount: 2
Fore
SplineSet
244.78515625 923 m 1
 372.78515625 923 l 1
 418.268554688 835 l 1
 494.78515625 923 l 1
 622.78515625 923 l 1
 493.515625 757 l 1
 315.515625 757 l 1
 244.78515625 923 l 1
284.21484375 -16 m 0
 88.21484375 -16 -5.505859375 82 12.001953125 238 c 1
 208.588867188 247 l 1
 206.245117188 177 237.369140625 138 313.369140625 138 c 0
 373.369140625 138 410.895507812 158 418.30078125 200 c 0
 425.001953125 238 408.880859375 260 304.759765625 282 c 0
 117.813476562 322 48.8056640625 373 71.904296875 504 c 0
 95.1796875 636 217.048828125 726 397.048828125 726 c 0
 587.048828125 726 664.887695312 623 653.967773438 476 c 1
 459.556640625 468 l 1
 466.017578125 533 432.89453125 572 367.89453125 572 c 0
 311.89453125 572 275.486328125 547 268.962890625 510 c 0
 261.204101562 466 287.677734375 446 376.856445312 430 c 0
 580.33203125 393 635.459960938 320 615.711914062 208 c 0
 591.202148438 69 468.21484375 -16 284.21484375 -16 c 0
EndSplineSet
Validated: 33
EndChar

StartChar: Scedilla
Encoding: 350 350 95
Width: 709
GlyphClass: 2
Flags: HMW
HStem: -240 84<342 370 342 397.5> -154 21G<225 225> -13 21G<310 310> 572 154<319 379.5>
VStem: 63 196<488 528.5 488 570> 401 96<-133 -111 -167 -28> 463 196<179 219>
AnchorPoint: "Anchor-3" 433.345 710 basechar 0
AnchorPoint: "Anchor-0" 321.152 0 basechar 0
LayerCount: 2
Fore
SplineSet
275.833984375 -240 m 0xbc
 206.833984375 -240 165.829101562 -206 154.998046875 -154 c 1x7c
 236.993164062 -120 l 1
 242.9375 -143 256.645507812 -156 286.645507812 -156 c 0
 312.645507812 -156 332.76171875 -144 336.640625 -122 c 0xbc
 340.51953125 -100 330.98828125 -86 284.98828125 -86 c 1
 243.747070312 -42 l 1
 264.860351562 -13 l 1
 107.857421875 4 33.4326171875 98 49.1181640625 238 c 1
 245.705078125 247 l 1
 243.362304688 177 274.485351562 138 350.485351562 138 c 0
 410.485351562 138 448.01171875 158 455.41796875 200 c 0
 462.118164062 238 445.998046875 260 341.876953125 282 c 0
 154.9296875 322 85.9228515625 373 109.021484375 504 c 0
 132.296875 636 254.166015625 726 434.166015625 726 c 0
 624.166015625 726 702.00390625 623 691.083984375 476 c 1
 496.673828125 468 l 1
 503.134765625 533 470.01171875 572 405.01171875 572 c 0
 349.01171875 572 312.603515625 547 306.079101562 510 c 0
 298.321289062 466 324.793945312 446 413.973632812 430 c 0
 617.44921875 393 672.577148438 320 652.828125 208 c 0x7a
 630.258789062 80 523.799804688 -2 363.68359375 -14 c 1
 353.215820312 -28 l 1
 419.8046875 -36 440.399414062 -78 431.935546875 -126 c 0
 417.4765625 -208 348.833984375 -240 275.833984375 -240 c 0xbc
EndSplineSet
Validated: 33
Substitution2: "'locl' Localized Forms in Latin lookup 10 subtable" uni0218
Substitution2: "'aalt' Access All Alternates in Latin lookup 0 subtable" uni0218
EndChar

StartChar: Scircumflex
Encoding: 348 348 96
Width: 709
GlyphClass: 2
Flags: HMW
HStem: -16 154<331 399 331 459> 572 154<319 379.5> 757 166<162 440 262 290 412 412 412 440 262 540>
VStem: 63 196<488 528.5 488 570> 463 196<179 219>
AnchorPoint: "Anchor-3" 396.228 710 basechar 0
AnchorPoint: "Anchor-0" 284.036 0 basechar 0
LayerCount: 2
Fore
SplineSet
215.515625 757 m 1
 344.78515625 923 l 1
 522.78515625 923 l 1
 593.515625 757 l 1
 465.515625 757 l 1
 420.032226562 845 l 1
 343.515625 757 l 1
 215.515625 757 l 1
284.21484375 -16 m 0
 88.21484375 -16 -5.505859375 82 12.001953125 238 c 1
 208.588867188 247 l 1
 206.245117188 177 237.369140625 138 313.369140625 138 c 0
 373.369140625 138 410.895507812 158 418.30078125 200 c 0
 425.001953125 238 408.880859375 260 304.759765625 282 c 0
 117.813476562 322 48.8056640625 373 71.904296875 504 c 0
 95.1796875 636 217.048828125 726 397.048828125 726 c 0
 587.048828125 726 664.887695312 623 653.967773438 476 c 1
 459.556640625 468 l 1
 466.017578125 533 432.89453125 572 367.89453125 572 c 0
 311.89453125 572 275.486328125 547 268.962890625 510 c 0
 261.204101562 466 287.677734375 446 376.856445312 430 c 0
 580.33203125 393 635.459960938 320 615.711914062 208 c 0
 591.202148438 69 468.21484375 -16 284.21484375 -16 c 0
EndSplineSet
Validated: 33
EndChar

StartChar: uni0218
Encoding: 536 536 97
Width: 709
GlyphClass: 2
Flags: HMW
HStem: -180 134<289 323 289 439> -16 154<331 399 331 459> 572 154<319 379.5>
VStem: 63 196<488 528.5 488 570> 289 150<-166 -46 -166 -46 -166 -46> 463 196<179 219>
AnchorPoint: "Anchor-3" 435.284 710 basechar 0
AnchorPoint: "Anchor-0" 276.895 -262 basechar 0
LayerCount: 2
Fore
SplineSet
323.270507812 -16 m 0
 127.270507812 -16 33.55078125 82 51.0576171875 238 c 1
 247.64453125 247 l 1
 245.301757812 177 276.424804688 138 352.424804688 138 c 0
 412.424804688 138 449.952148438 158 457.357421875 200 c 0
 464.057617188 238 447.9375 260 343.81640625 282 c 0
 156.869140625 322 87.8623046875 373 110.9609375 504 c 0
 134.236328125 636 256.10546875 726 436.10546875 726 c 0
 626.10546875 726 703.944335938 623 693.0234375 476 c 1
 498.61328125 468 l 1
 505.07421875 533 471.951171875 572 406.951171875 572 c 0
 350.951171875 572 314.54296875 547 308.018554688 510 c 0
 300.260742188 466 326.734375 446 415.913085938 430 c 0
 619.388671875 393 674.516601562 320 654.768554688 208 c 0
 630.258789062 69 507.270507812 -16 323.270507812 -16 c 0
185.89453125 -262 m 1
 250.353515625 -180 l 1
 216.353515625 -180 l 1
 239.981445312 -46 l 1
 389.981445312 -46 l 1
 368.822265625 -166 l 1xa8
 293.89453125 -262 l 1
 185.89453125 -262 l 1
EndSplineSet
Validated: 33
EndChar

StartChar: uni1E9E
Encoding: 7838 7838 98
Width: 774
GlyphClass: 2
Flags: HMW
HStem: 0 157<62 437 325 437 325 437> 553 157<325 705 360 482 360 705>
VStem: 62 196<0 447 0 534> 532 199<204 248.5>
AnchorPoint: "Anchor-3" 449.596 710 basechar 0
AnchorPoint: "Anchor-0" 324.404 0 basechar 0
LayerCount: 2
Fore
SplineSet
-0.595703125 0 m 1
 78.2216796875 447 l 2
 108.903320312 621 223.595703125 710 422.595703125 710 c 2
 767.595703125 710 l 1
 739.913085938 553 l 1
 558.403320312 414 l 1
 672.818359375 388 725.181640625 322 707.372070312 221 c 0
 681.981445312 77 566.404296875 0 374.404296875 0 c 2
 262.404296875 0 l 1
 290.086914062 157 l 1
 402.086914062 157 l 2
 462.086914062 157 501.495117188 182 509.25390625 226 c 0
 517.188476562 271 485.419921875 295 420.419921875 295 c 2
 324.419921875 295 l 1
 346.108398438 418 l 1
 516.913085938 553 l 1
 394.913085938 553 l 2
 324.913085938 553 286.91796875 519 274.221679688 447 c 2
 195.404296875 0 l 1
 -0.595703125 0 l 1
EndSplineSet
Validated: 33
EndChar

StartChar: T
Encoding: 84 84 99
Width: 631
GlyphClass: 2
Flags: HMW
HStem: 0 21G<217 217 217 414> 553 157<10 217 10 621 414 414 414 621>
VStem: 217 197<0 553 0 553>
AnchorPoint: "Anchor-3" 377.596 710 basechar 0
AnchorPoint: "Anchor-1" 308.418 312 basechar 0
AnchorPoint: "Anchor-0" 252.404 0 basechar 0
LayerCount: 2
Fore
SplineSet
154.404296875 0 m 1
 251.913085938 553 l 1
 44.9130859375 553 l 1
 72.595703125 710 l 1
 683.595703125 710 l 1
 655.913085938 553 l 1
 448.913085938 553 l 1
 351.404296875 0 l 1
 154.404296875 0 l 1
EndSplineSet
Validated: 1
EndChar

StartChar: Tbar
Encoding: 358 358 100
Width: 631
GlyphClass: 2
Flags: HMW
HStem: 0 21G<217 217 217 414> 242 140<101 217 101 217 414 531> 553 157<10 217 10 621 414 414 414 621>
VStem: 217 197<0 242 0 242 382 553>
AnchorPoint: "Anchor-3" 377.596 710 basechar 0
AnchorPoint: "Anchor-1" 308.418 312 basechar 0
AnchorPoint: "Anchor-0" 252.404 0 basechar 0
LayerCount: 2
Fore
SplineSet
154.404296875 0 m 1
 197.075195312 242 l 1
 81.0751953125 242 l 1
 105.760742188 382 l 1
 221.760742188 382 l 1
 251.913085938 553 l 1
 44.9130859375 553 l 1
 72.595703125 710 l 1
 683.595703125 710 l 1
 655.913085938 553 l 1
 448.913085938 553 l 1
 418.760742188 382 l 1
 535.760742188 382 l 1
 511.075195312 242 l 1
 394.075195312 242 l 1
 351.404296875 0 l 1
 154.404296875 0 l 1
EndSplineSet
Validated: 1
EndChar

StartChar: Tcaron
Encoding: 356 356 101
Width: 631
GlyphClass: 2
Flags: HMW
HStem: 0 21G<217 217 217 414> 553 157<10 217 10 621 414 414 414 621> 757 166<226 254 376 404 226 226>
VStem: 217 197<0 553 0 553>
AnchorPoint: "Anchor-3" 358.817 710 basechar 0
AnchorPoint: "Anchor-1" 289.639 312 basechar 0
AnchorPoint: "Anchor-0" 233.625 0 basechar 0
LayerCount: 2
Fore
SplineSet
207.375 923 m 1
 335.375 923 l 1
 380.858398438 835 l 1
 457.375 923 l 1
 585.375 923 l 1
 456.104492188 757 l 1
 278.104492188 757 l 1
 207.375 923 l 1
135.625 0 m 1
 233.133789062 553 l 1
 26.1337890625 553 l 1
 53.8173828125 710 l 1
 664.817382812 710 l 1
 637.133789062 553 l 1
 430.133789062 553 l 1
 332.625 0 l 1
 135.625 0 l 1
EndSplineSet
Validated: 1
EndChar

StartChar: uni0162
Encoding: 354 354 102
Width: 631
GlyphClass: 2
Flags: HMW
HStem: -240 84<293 321 293 348.5> -154 21G<176 176> 0 21G<217 217 217 268 369 369 369 414> 553 157<10 217 10 621 414 414 414 621>
VStem: 217 197<0 553 0 553> 352 96<-133 -111 -167 -28>
AnchorPoint: "Anchor-3" 398.755 710 basechar 0
AnchorPoint: "Anchor-1" 329.577 312 basechar 0
AnchorPoint: "Anchor-0" 273.563 0 basechar 0
LayerCount: 2
Fore
SplineSet
175.563476562 0 m 1x78
 273.072265625 553 l 1
 66.072265625 553 l 1
 93.7548828125 710 l 1
 704.754882812 710 l 1
 677.072265625 553 l 1
 470.072265625 553 l 1
 372.563476562 0 l 1x78
 327.563476562 0 l 1
 305.625976562 -28 l 1
 372.215820312 -36 392.809570312 -78 384.345703125 -126 c 0
 369.88671875 -208 301.245117188 -240 228.245117188 -240 c 0xb4
 159.245117188 -240 118.240234375 -206 107.409179688 -154 c 1x78
 189.404296875 -120 l 1
 195.348632812 -143 209.055664062 -156 239.055664062 -156 c 0
 265.055664062 -156 285.171875 -144 289.05078125 -122 c 0xb4
 292.930664062 -100 283.399414062 -86 237.399414062 -86 c 1
 196.157226562 -42 l 1
 226.563476562 0 l 1
 175.563476562 0 l 1x78
EndSplineSet
Validated: 33
Substitution2: "'locl' Localized Forms in Latin lookup 10 subtable" uni021A
Substitution2: "'aalt' Access All Alternates in Latin lookup 0 subtable" uni021A
EndChar

StartChar: uni021A
Encoding: 538 538 103
Width: 631
GlyphClass: 2
Flags: HMW
HStem: -180 134<240 274 240 390> 0 21G<217 217 217 414> 553 157<10 217 10 621 414 414 414 621>
VStem: 217 173<-166 553> 217 197<0 553 0 553> 240 174<-180 553 -46 553>
AnchorPoint: "Anchor-3" 400.695 710 basechar 0
AnchorPoint: "Anchor-1" 331.517 312 basechar 0
AnchorPoint: "Anchor-0" 229.305 -262 basechar 0
LayerCount: 2
Fore
SplineSet
177.502929688 0 m 1xe8
 275.01171875 553 l 1
 68.01171875 553 l 1
 95.6953125 710 l 1
 706.6953125 710 l 1
 679.01171875 553 l 1
 472.01171875 553 l 1
 374.502929688 0 l 1
 177.502929688 0 l 1xe8
138.3046875 -262 m 1
 202.763671875 -180 l 1
 168.763671875 -180 l 1
 192.391601562 -46 l 1xe4
 342.391601562 -46 l 1
 321.232421875 -166 l 1xf0
 246.3046875 -262 l 1
 138.3046875 -262 l 1
EndSplineSet
Validated: 1
EndChar

StartChar: U
Encoding: 85 85 104
Width: 713
GlyphClass: 2
Flags: HMW
HStem: -16 157<319.5 393 319.5 451> 691 20G<47 243 243 243 470 666 666 666>
VStem: 47 196<262 711> 470 196<262 711>
AnchorPoint: "Anchor-3" 419.919 710 basechar 0
AnchorPoint: "Anchor-2" 411.727 0 basechar 0
AnchorPoint: "Anchor-0" 294.727 0 basechar 0
LayerCount: 2
Fore
SplineSet
291.905273438 -16 m 0
 102.905273438 -16 1.9482421875 92 31.923828125 262 c 2
 111.094726562 711 l 1
 307.094726562 711 l 1
 227.923828125 262 l 2
 214.170898438 184 246.588867188 141 319.588867188 141 c 0
 393.588867188 141 441.170898438 184 454.923828125 262 c 2
 534.094726562 711 l 1
 730.094726562 711 l 1
 650.923828125 262 l 2
 620.948242188 92 481.905273438 -16 291.905273438 -16 c 0
EndSplineSet
Validated: 33
EndChar

StartChar: Uacute
Encoding: 218 218 105
Width: 713
GlyphClass: 2
Flags: HMW
HStem: -16 157<319.5 393 319.5 451> 691 20G<47 243 243 243 470 666 666 666> 757 160<267 501 321 411>
VStem: 47 196<262 711> 470 196<262 711>
AnchorPoint: "Anchor-3" 401.757 710 basechar 0
AnchorPoint: "Anchor-2" 393.564 0 basechar 0
AnchorPoint: "Anchor-0" 276.564 0 basechar 0
LayerCount: 2
Fore
SplineSet
321.043945312 757 m 1
 403.256835938 917 l 1
 583.256835938 917 l 1
 465.043945312 757 l 1
 321.043945312 757 l 1
273.743164062 -16 m 0
 84.7431640625 -16 -16.212890625 92 13.7626953125 262 c 2
 92.93359375 711 l 1
 288.93359375 711 l 1
 209.762695312 262 l 2
 196.008789062 184 228.426757812 141 301.426757812 141 c 0
 375.426757812 141 423.008789062 184 436.762695312 262 c 2
 515.93359375 711 l 1
 711.93359375 711 l 1
 632.762695312 262 l 2
 602.787109375 92 463.743164062 -16 273.743164062 -16 c 0
EndSplineSet
Validated: 33
EndChar

StartChar: Ubreve
Encoding: 364 364 106
Width: 713
GlyphClass: 2
Flags: HMW
HStem: -16 157<319.5 393 319.5 451> 691 20G<47 243 243 243 470 666 666 666> 754 96<338 374 338 406> 754 160<188 406>
VStem: 47 196<262 711> 188 106<914 914> 418 106<914 914> 470 196<262 711>
AnchorPoint: "Anchor-3" 402.021 710 basechar 0
AnchorPoint: "Anchor-2" 393.829 0 basechar 0
AnchorPoint: "Anchor-0" 276.829 0 basechar 0
LayerCount: 2
Fore
SplineSet
409.779296875 754 m 0xda
 309.779296875 754 255.654296875 810 269.9921875 914 c 1xd5
 375.9921875 914 l 1
 371.880859375 868 390.70703125 850 426.70703125 850 c 0xe6
 462.70703125 850 487.880859375 868 499.9921875 914 c 1
 605.9921875 914 l 1
 583.654296875 810 509.779296875 754 409.779296875 754 c 0xda
274.0078125 -16 m 0
 85.0078125 -16 -15.94921875 92 14.0263671875 262 c 2
 93.197265625 711 l 1
 289.197265625 711 l 1
 210.026367188 262 l 2xd9
 196.2734375 184 228.69140625 141 301.69140625 141 c 0
 375.69140625 141 423.2734375 184 437.026367188 262 c 2
 516.197265625 711 l 1
 712.197265625 711 l 1
 633.026367188 262 l 2
 603.05078125 92 464.0078125 -16 274.0078125 -16 c 0
EndSplineSet
Validated: 33
EndChar

StartChar: Ucircumflex
Encoding: 219 219 107
Width: 713
GlyphClass: 2
Flags: HMW
HStem: -16 157<319.5 393 319.5 451> 691 20G<47 243 243 243 470 666 666 666> 757 166<167 445 267 295 417 417 417 445 267 545>
VStem: 47 196<262 711> 470 196<262 711>
AnchorPoint: "Anchor-3" 401.228 710 basechar 0
AnchorPoint: "Anchor-2" 393.036 0 basechar 0
AnchorPoint: "Anchor-0" 276.036 0 basechar 0
LayerCount: 2
Fore
SplineSet
220.515625 757 m 1
 349.78515625 923 l 1
 527.78515625 923 l 1
 598.515625 757 l 1
 470.515625 757 l 1
 425.032226562 845 l 1
 348.515625 757 l 1
 220.515625 757 l 1
273.21484375 -16 m 0
 84.21484375 -16 -16.7421875 92 13.2333984375 262 c 2
 92.404296875 711 l 1
 288.404296875 711 l 1
 209.233398438 262 l 2
 195.479492188 184 227.897460938 141 300.897460938 141 c 0
 374.897460938 141 422.479492188 184 436.233398438 262 c 2
 515.404296875 711 l 1
 711.404296875 711 l 1
 632.233398438 262 l 2
 602.2578125 92 463.21484375 -16 273.21484375 -16 c 0
EndSplineSet
Validated: 33
EndChar

StartChar: Udieresis
Encoding: 220 220 108
Width: 713
GlyphClass: 2
Flags: HMW
HStem: -16 157<319.5 393 319.5 451> 691 20G<47 243 243 243 470 666 666 666> 760 136<145 325 145 325 387 567 145 387>
VStem: 47 196<262 711> 145 98 145 180<760 896 760 896> 387 180<760 896 760 896> 470 97<262 896 711 896> 470 196<262 711>
AnchorPoint: "Anchor-3" 403.608 710 basechar 0
AnchorPoint: "Anchor-2" 395.416 0 basechar 0
AnchorPoint: "Anchor-0" 278.416 0 basechar 0
LayerCount: 2
Fore
SplineSet
201.424804688 760 m 1xe880
 225.405273438 896 l 1xea
 405.405273438 896 l 1
 381.424804688 760 l 1xe480
 201.424804688 760 l 1xe880
443.424804688 760 m 1
 467.405273438 896 l 1xf2
 647.405273438 896 l 1
 623.424804688 760 l 1xf1
 443.424804688 760 l 1
275.594726562 -16 m 0
 86.5947265625 -16 -14.361328125 92 15.6142578125 262 c 2
 94.7841796875 711 l 1
 290.784179688 711 l 1
 211.614257812 262 l 2
 197.860351562 184 230.278320312 141 303.278320312 141 c 0
 377.278320312 141 424.860351562 184 438.614257812 262 c 2
 517.784179688 711 l 1
 713.784179688 711 l 1
 634.614257812 262 l 2xf080
 604.638671875 92 465.594726562 -16 275.594726562 -16 c 0
EndSplineSet
Validated: 33
Substitution2: "'ss08' Style Set 8 in Latin lookup 41 subtable" Udieresis.ss08
Substitution2: "'aalt' Access All Alternates in Latin lookup 0 subtable" Udieresis.ss08
EndChar

StartChar: Ugrave
Encoding: 217 217 109
Width: 713
GlyphClass: 2
Flags: HMW
HStem: -16 157<319.5 393 319.5 451> 691 20G<47 243 243 243 470 666 666 666> 764 160<297 297 297 387 207 441>
VStem: 47 196<262 711> 470 196<262 711>
AnchorPoint: "Anchor-3" 401.14 710 basechar 0
AnchorPoint: "Anchor-2" 392.947 0 basechar 0
AnchorPoint: "Anchor-0" 275.947 0 basechar 0
LayerCount: 2
Fore
SplineSet
351.661132812 764 m 1
 289.874023438 924 l 1
 469.874023438 924 l 1
 495.661132812 764 l 1
 351.661132812 764 l 1
273.125976562 -16 m 0
 84.1259765625 -16 -16.830078125 92 13.1455078125 262 c 2
 92.31640625 711 l 1
 288.31640625 711 l 1
 209.145507812 262 l 2
 195.391601562 184 227.809570312 141 300.809570312 141 c 0
 374.809570312 141 422.391601562 184 436.145507812 262 c 2
 515.31640625 711 l 1
 711.31640625 711 l 1
 632.145507812 262 l 2
 602.169921875 92 463.125976562 -16 273.125976562 -16 c 0
EndSplineSet
Validated: 33
EndChar

StartChar: Uhungarumlaut
Encoding: 368 368 110
Width: 713
GlyphClass: 2
Flags: HMW
HStem: -16 157<319.5 393 319.5 451> 691 20G<47 243 243 243 470 666 666 666> 757 160<182 416 236 326 390 416 444 534 390 390>
VStem: 47 196<262 711> 470 196<262 711>
AnchorPoint: "Anchor-3" 401.757 710 basechar 0
AnchorPoint: "Anchor-2" 393.564 0 basechar 0
AnchorPoint: "Anchor-0" 276.564 0 basechar 0
LayerCount: 2
Fore
SplineSet
236.043945312 757 m 1
 318.256835938 917 l 1
 498.256835938 917 l 1
 380.043945312 757 l 1
 236.043945312 757 l 1
444.043945312 757 m 1
 526.256835938 917 l 1
 706.256835938 917 l 1
 588.043945312 757 l 1
 444.043945312 757 l 1
273.743164062 -16 m 0
 84.7431640625 -16 -16.212890625 92 13.7626953125 262 c 2
 92.93359375 711 l 1
 288.93359375 711 l 1
 209.762695312 262 l 2
 196.008789062 184 228.426757812 141 301.426757812 141 c 0
 375.426757812 141 423.008789062 184 436.762695312 262 c 2
 515.93359375 711 l 1
 711.93359375 711 l 1
 632.762695312 262 l 2
 602.787109375 92 463.743164062 -16 273.743164062 -16 c 0
EndSplineSet
Validated: 33
EndChar

StartChar: Umacron
Encoding: 362 362 111
Width: 713
GlyphClass: 2
Flags: HMW
HStem: -16 157<319.5 393 319.5 451> 691 20G<47 243 243 243 470 666 666 666> 765 135<196 516 196 516>
VStem: 47 196<262 711> 196 47 470 46 470 196<262 711>
AnchorPoint: "Anchor-3" 403.256 710 basechar 0
AnchorPoint: "Anchor-2" 395.063 0 basechar 0
AnchorPoint: "Anchor-0" 278.063 0 basechar 0
LayerCount: 2
Fore
SplineSet
252.954101562 765 m 1xec
 276.7578125 900 l 1
 596.7578125 900 l 1
 572.954101562 765 l 1
 252.954101562 765 l 1xec
275.2421875 -16 m 0
 86.2421875 -16 -14.71484375 92 15.2607421875 262 c 2
 94.431640625 711 l 1
 290.431640625 711 l 1
 211.260742188 262 l 2
 197.5078125 184 229.92578125 141 302.92578125 141 c 0
 376.92578125 141 424.5078125 184 438.260742188 262 c 2
 517.431640625 711 l 1
 713.431640625 711 l 1
 634.260742188 262 l 2xf2
 604.28515625 92 465.2421875 -16 275.2421875 -16 c 0
EndSplineSet
Validated: 33
EndChar

StartChar: Uogonek
Encoding: 370 370 112
Width: 713
GlyphClass: 2
Flags: HMW
HStem: -222 104<350.5 446> -14 21G<312 312> 691 20G<47 243 243 243 470 666 666 666>
VStem: 47 196<262 711> 264 150<-157 -85.5> 470 196<262 711>
AnchorPoint: "Anchor-3" 438.08 710 basechar 0
AnchorPoint: "Anchor-2" 429.888 0 basechar 0
AnchorPoint: "Anchor-0" 312.888 0 basechar 0
LayerCount: 2
Fore
SplineSet
308.743164062 -222 m 0
 227.743164062 -222 187.73828125 -188 198.670898438 -126 c 0xec
 206.076171875 -84 234.424804688 -48 262.713867188 -18 c 2
 266.419921875 -14 l 1
 106.240234375 2 22.5791015625 106 50.0859375 262 c 2
 129.256835938 711 l 1
 325.256835938 711 l 1
 246.0859375 262 l 2xf4
 232.33203125 184 264.75 141 337.75 141 c 0
 411.75 141 459.33203125 184 473.0859375 262 c 2
 552.256835938 711 l 1
 748.256835938 711 l 1
 669.0859375 262 l 2
 645.810546875 130 557.235351562 36 429.887695312 0 c 1
 396.892578125 -34 l 2
 377.190429688 -55 357.310546875 -77 354.313476562 -94 c 0
 351.315429688 -111 362.081054688 -118 374.081054688 -118 c 0
 390.081054688 -118 410.139648438 -112 419.197265625 -106 c 1
 433.328125 -196 l 1
 410.859375 -210 356.743164062 -222 308.743164062 -222 c 0
EndSplineSet
Validated: 33
EndChar

StartChar: Uring
Encoding: 366 366 113
Width: 713
GlyphClass: 2
Flags: HMW
HStem: -16 157<319.5 393 319.5 451> 691 20G<47 243 243 243 470 666 666 666> 744 74<346 366 346 387> 886 74<346 366>
VStem: 47 196<262 711> 246 76<842 862 842 883> 390 76<842 862> 470 196<262 711>
AnchorPoint: "Anchor-3" 397.966 710 basechar 0
AnchorPoint: "Anchor-2" 389.773 0 basechar 0
AnchorPoint: "Anchor-0" 272.773 0 basechar 0
LayerCount: 2
Fore
SplineSet
403.9609375 744 m 0
 341.9609375 744 302.072265625 790 313.00390625 852 c 0
 323.936523438 914 380.047851562 960 442.047851562 960 c 0
 504.047851562 960 543.936523438 914 533.00390625 852 c 0
 522.072265625 790 465.9609375 744 403.9609375 744 c 0
417.008789062 818 m 0
 437.008789062 818 453.477539062 832 457.00390625 852 c 0
 460.53125 872 448.999023438 886 428.999023438 886 c 0
 408.999023438 886 392.53125 872 389.00390625 852 c 0
 385.477539062 832 397.008789062 818 417.008789062 818 c 0
269.952148438 -16 m 0
 80.9521484375 -16 -20.00390625 92 9.9716796875 262 c 2
 89.142578125 711 l 1
 285.142578125 711 l 1
 205.971679688 262 l 2
 192.217773438 184 224.635742188 141 297.635742188 141 c 0
 371.635742188 141 419.217773438 184 432.971679688 262 c 2
 512.142578125 711 l 1
 708.142578125 711 l 1
 628.971679688 262 l 2xf9
 598.99609375 92 459.952148438 -16 269.952148438 -16 c 0
EndSplineSet
Validated: 33
EndChar

StartChar: Utilde
Encoding: 360 360 114
Width: 713
GlyphClass: 2
Flags: HMW
HStem: -16 157<319.5 393 319.5 451> 691 20G<47 243 243 243 470 666 666 666> 759 159<256.5 265 175 312> 764 111<407 420.5 407 451.5> 764 160<446 451.5> 807 111<292 305>
VStem: 47 196<262 711> 175 68 446 90<875.5 924> 470 196<262 711>
AnchorPoint: "Anchor-3" 401.14 710 basechar 0
AnchorPoint: "Anchor-2" 392.947 0 basechar 0
AnchorPoint: "Anchor-0" 275.947 0 basechar 0
LayerCount: 2
Fore
SplineSet
464.661132812 764 m 0xca80
 430.661132812 764 413.719726562 770 389.951171875 794 c 0
 381.361328125 802 372.243164062 807 362.243164062 807 c 0xc640
 346.243164062 807 329.303710938 796 318.779296875 759 c 1
 228.779296875 759 l 1
 245.354492188 853 298.815429688 918 377.815429688 918 c 0xe140
 409.815429688 918 433.581054688 911 457.702148438 889 c 0
 468.939453125 879 476.233398438 875 486.233398438 875 c 0xd280
 503.233398438 875 519.997070312 885 528.874023438 924 c 1
 618.874023438 924 l 1
 601.76953125 827 547.661132812 764 464.661132812 764 c 0xca80
273.125976562 -16 m 0
 84.1259765625 -16 -16.830078125 92 13.1455078125 262 c 2
 92.31640625 711 l 1
 288.31640625 711 l 1
 209.145507812 262 l 2
 195.391601562 184 227.809570312 141 300.809570312 141 c 0
 374.809570312 141 422.391601562 184 436.145507812 262 c 2
 515.31640625 711 l 1
 711.31640625 711 l 1
 632.145507812 262 l 2
 602.169921875 92 463.125976562 -16 273.125976562 -16 c 0
EndSplineSet
Validated: 33
EndChar

StartChar: V
Encoding: 86 86 115
Width: 772
GlyphClass: 2
Flags: HMW
HStem: 0 21G<274 274 274 496> 690 20G<18 218 218 218 554 754 754 754>
VStem: 18 736<710 710>
AnchorPoint: "Anchor-3" 448.596 710 basechar 0
AnchorPoint: "Anchor-0" 323.404 0 basechar 0
LayerCount: 2
Fore
SplineSet
211.404296875 0 m 1
 80.595703125 710 l 1
 280.595703125 710 l 1
 362.548828125 222 l 1
 616.595703125 710 l 1
 816.595703125 710 l 1
 433.404296875 0 l 1
 211.404296875 0 l 1
EndSplineSet
Validated: 1
EndChar

StartChar: W
Encoding: 87 87 116
Width: 1061
GlyphClass: 2
Flags: HMW
HStem: 0 21G<231 231 231 431 631 631 631 831> 690 20G<36 238 238 238 453 609 609 609 823 1025 1025 1025>
VStem: 36 989<710 710>
AnchorPoint: "Anchor-3" 593.596 710 basechar 0
AnchorPoint: "Anchor-0" 468.404 0 basechar 0
LayerCount: 2
Fore
SplineSet
168.404296875 0 m 1
 98.595703125 710 l 1
 300.595703125 710 l 1
 329.365234375 272 l 1
 515.595703125 710 l 1
 671.595703125 710 l 1
 703.365234375 272 l 1
 885.595703125 710 l 1
 1087.59570312 710 l 1
 768.404296875 0 l 1
 568.404296875 0 l 1
 537.171875 390 l 1
 368.404296875 0 l 1
 168.404296875 0 l 1
EndSplineSet
Validated: 1
EndChar

StartChar: Wacute
Encoding: 7810 7810 117
Width: 1061
GlyphClass: 2
Flags: HMW
HStem: 0 21G<231 231 231 431 631 631 631 831> 690 20G<36 238 238 238 453 609 609 609 823 1025 1025 1025> 757 160<442 676 496 586>
VStem: 36 989<710 710>
AnchorPoint: "Anchor-3" 575.347 710 basechar 0
AnchorPoint: "Anchor-0" 450.154 0 basechar 0
LayerCount: 2
Fore
SplineSet
494.633789062 757 m 1
 576.845703125 917 l 1
 756.845703125 917 l 1
 638.633789062 757 l 1
 494.633789062 757 l 1
150.154296875 0 m 1
 80.3466796875 710 l 1
 282.346679688 710 l 1
 311.115234375 272 l 1
 497.346679688 710 l 1
 653.346679688 710 l 1
 685.115234375 272 l 1
 867.346679688 710 l 1
 1069.34667969 710 l 1
 750.154296875 0 l 1
 550.154296875 0 l 1
 518.921875 390 l 1
 350.154296875 0 l 1
 150.154296875 0 l 1
EndSplineSet
Validated: 1
EndChar

StartChar: Wcircumflex
Encoding: 372 372 118
Width: 1061
GlyphClass: 2
Flags: HMW
HStem: 0 21G<231 231 231 431 631 631 631 831> 690 20G<36 238 238 238 453 609 609 609 823 1025 1025 1025> 757 166<342 620 442 470 592 592 592 620 442 720>
VStem: 36 989<710 710>
AnchorPoint: "Anchor-3" 574.817 710 basechar 0
AnchorPoint: "Anchor-0" 449.625 0 basechar 0
LayerCount: 2
Fore
SplineSet
394.104492188 757 m 1
 523.375 923 l 1
 701.375 923 l 1
 772.104492188 757 l 1
 644.104492188 757 l 1
 598.62109375 845 l 1
 522.104492188 757 l 1
 394.104492188 757 l 1
149.625 0 m 1
 79.8173828125 710 l 1
 281.817382812 710 l 1
 310.5859375 272 l 1
 496.817382812 710 l 1
 652.817382812 710 l 1
 684.5859375 272 l 1
 866.817382812 710 l 1
 1068.81738281 710 l 1
 749.625 0 l 1
 549.625 0 l 1
 518.392578125 390 l 1
 349.625 0 l 1
 149.625 0 l 1
EndSplineSet
Validated: 1
EndChar

StartChar: Wdieresis
Encoding: 7812 7812 119
Width: 1061
GlyphClass: 2
Flags: HMW
HStem: 0 21G<231 231 231 431 631 631 631 831> 690 20G<36 238 238 238 453 609 609 609 823 1025 1025 1025> 760 136<320 500 320 500 562 742 320 562>
VStem: 320 180<760 896 760 896> 562 180<760 896 760 896>
AnchorPoint: "Anchor-3" 577.197 710 basechar 0
AnchorPoint: "Anchor-0" 452.006 0 basechar 0
LayerCount: 2
Fore
SplineSet
375.013671875 760 m 1
 398.994140625 896 l 1
 578.994140625 896 l 1
 555.013671875 760 l 1
 375.013671875 760 l 1
617.013671875 760 m 1
 640.994140625 896 l 1
 820.994140625 896 l 1
 797.013671875 760 l 1
 617.013671875 760 l 1
152.005859375 0 m 1
 82.197265625 710 l 1
 284.197265625 710 l 1
 312.966796875 272 l 1
 499.197265625 710 l 1
 655.197265625 710 l 1
 686.966796875 272 l 1
 869.197265625 710 l 1
 1071.19726562 710 l 1
 752.005859375 0 l 1
 552.005859375 0 l 1
 520.7734375 390 l 1
 352.005859375 0 l 1
 152.005859375 0 l 1
EndSplineSet
Validated: 1
Substitution2: "'ss08' Style Set 8 in Latin lookup 41 subtable" Wdieresis.ss08
Substitution2: "'aalt' Access All Alternates in Latin lookup 0 subtable" Wdieresis.ss08
EndChar

StartChar: Wgrave
Encoding: 7808 7808 120
Width: 1061
GlyphClass: 2
Flags: HMW
HStem: 0 21G<231 231 231 431 631 631 631 831> 690 20G<36 238 238 238 453 609 609 609 823 1025 1025 1025> 764 160<472 472 472 562 382 616>
VStem: 36 989<710 710>
AnchorPoint: "Anchor-3" 574.729 710 basechar 0
AnchorPoint: "Anchor-0" 449.537 0 basechar 0
LayerCount: 2
Fore
SplineSet
525.250976562 764 m 1
 463.462890625 924 l 1
 643.462890625 924 l 1
 669.250976562 764 l 1
 525.250976562 764 l 1
149.537109375 0 m 1
 79.7294921875 710 l 1
 281.729492188 710 l 1
 310.498046875 272 l 1
 496.729492188 710 l 1
 652.729492188 710 l 1
 684.498046875 272 l 1
 866.729492188 710 l 1
 1068.72949219 710 l 1
 749.537109375 0 l 1
 549.537109375 0 l 1
 518.3046875 390 l 1
 349.537109375 0 l 1
 149.537109375 0 l 1
EndSplineSet
Validated: 1
EndChar

StartChar: X
Encoding: 88 88 121
Width: 742
GlyphClass: 2
Flags: HMW
HStem: 0 21G<10 10 10 238 506 506 506 732> 690 20G<12 238 238 238 502 730 730 730>
VStem: 10 722<0 0>
AnchorPoint: "Anchor-3" 433.596 710 basechar 0
AnchorPoint: "Anchor-0" 308.404 0 basechar 0
LayerCount: 2
Fore
SplineSet
-52.595703125 0 m 1
 257.176757812 356 l 1
 74.595703125 710 l 1
 300.595703125 710 l 1
 398.919921875 502 l 1
 564.595703125 710 l 1
 792.595703125 710 l 1
 486.529296875 358 l 1
 669.404296875 0 l 1
 443.404296875 0 l 1
 345.78515625 212 l 1
 175.404296875 0 l 1
 -52.595703125 0 l 1
EndSplineSet
Validated: 1
EndChar

StartChar: Y
Encoding: 89 89 122
Width: 668
GlyphClass: 2
Flags: HMW
HStem: 0 21G<236 236 236 433> 690 20G<-8 204 204 204 464 676 676 676>
VStem: 236 197<0 266 0 266>
AnchorPoint: "Anchor-3" 397.596 710 basechar 0
AnchorPoint: "Anchor-0" 272.404 0 basechar 0
LayerCount: 2
Fore
SplineSet
173.404296875 0 m 1
 220.306640625 266 l 1
 54.595703125 710 l 1
 266.595703125 710 l 1
 352.456054688 454 l 1
 526.595703125 710 l 1
 738.595703125 710 l 1
 417.306640625 266 l 1
 370.404296875 0 l 1
 173.404296875 0 l 1
EndSplineSet
Validated: 1
EndChar

StartChar: Yacute
Encoding: 221 221 123
Width: 668
GlyphClass: 2
Flags: HMW
HStem: 0 21G<236 236 236 433> 690 20G<-8 204 204 204 464 676 676 676> 757 160<246 480 300 390>
VStem: 236 197<0 266 0 266>
AnchorPoint: "Anchor-3" 379.347 710 basechar 0
AnchorPoint: "Anchor-0" 254.154 0 basechar 0
LayerCount: 2
Fore
SplineSet
298.633789062 757 m 1
 380.845703125 917 l 1
 560.845703125 917 l 1
 442.633789062 757 l 1
 298.633789062 757 l 1
155.154296875 0 m 1
 202.056640625 266 l 1
 36.3466796875 710 l 1
 248.346679688 710 l 1
 334.206054688 454 l 1
 508.346679688 710 l 1
 720.346679688 710 l 1
 399.056640625 266 l 1
 352.154296875 0 l 1
 155.154296875 0 l 1
EndSplineSet
Validated: 1
EndChar

StartChar: Ycircumflex
Encoding: 374 374 124
Width: 668
GlyphClass: 2
Flags: HMW
HStem: 0 21G<236 236 236 433> 690 20G<-8 204 204 204 464 676 676 676> 757 166<146 424 246 274 396 396 396 424 246 524>
VStem: 236 197<0 266 0 266>
AnchorPoint: "Anchor-3" 378.817 710 basechar 0
AnchorPoint: "Anchor-0" 253.625 0 basechar 0
LayerCount: 2
Fore
SplineSet
198.104492188 757 m 1
 327.375 923 l 1
 505.375 923 l 1
 576.104492188 757 l 1
 448.104492188 757 l 1
 402.62109375 845 l 1
 326.104492188 757 l 1
 198.104492188 757 l 1
154.625 0 m 1
 201.528320312 266 l 1
 35.8173828125 710 l 1
 247.817382812 710 l 1
 333.677734375 454 l 1
 507.817382812 710 l 1
 719.817382812 710 l 1
 398.528320312 266 l 1
 351.625 0 l 1
 154.625 0 l 1
EndSplineSet
Validated: 1
EndChar

StartChar: Ydieresis
Encoding: 376 376 125
Width: 668
GlyphClass: 2
Flags: HMW
HStem: 0 21G<236 236 236 433> 690 20G<-8 204 204 204 464 676 676 676> 760 136<124 304 124 304 366 546 124 366>
VStem: 124 180<760 896 760 896> 236 197<0 266 0 266> 366 180<760 896 760 896>
AnchorPoint: "Anchor-3" 381.197 710 basechar 0
AnchorPoint: "Anchor-0" 256.006 0 basechar 0
LayerCount: 2
Fore
SplineSet
179.013671875 760 m 1xf4
 202.994140625 896 l 1
 382.994140625 896 l 1
 359.013671875 760 l 1
 179.013671875 760 l 1xf4
421.013671875 760 m 1
 444.994140625 896 l 1
 624.994140625 896 l 1
 601.013671875 760 l 1
 421.013671875 760 l 1
157.005859375 0 m 1xe8
 203.908203125 266 l 1
 38.197265625 710 l 1
 250.197265625 710 l 1
 336.057617188 454 l 1
 510.197265625 710 l 1
 722.197265625 710 l 1
 400.908203125 266 l 1
 354.005859375 0 l 1
 157.005859375 0 l 1xe8
EndSplineSet
Validated: 1
Substitution2: "'ss08' Style Set 8 in Latin lookup 41 subtable" Ydieresis.ss08
Substitution2: "'aalt' Access All Alternates in Latin lookup 0 subtable" Ydieresis.ss08
EndChar

StartChar: Ygrave
Encoding: 7922 7922 126
Width: 668
GlyphClass: 2
Flags: HMW
HStem: 0 21G<236 236 236 433> 690 20G<-8 204 204 204 464 676 676 676> 764 160<276 276 276 366 186 420>
VStem: 236 197<0 266 0 266>
AnchorPoint: "Anchor-3" 378.729 710 basechar 0
AnchorPoint: "Anchor-0" 253.537 0 basechar 0
LayerCount: 2
Fore
SplineSet
329.250976562 764 m 1
 267.462890625 924 l 1
 447.462890625 924 l 1
 473.250976562 764 l 1
 329.250976562 764 l 1
154.537109375 0 m 1
 201.439453125 266 l 1
 35.7294921875 710 l 1
 247.729492188 710 l 1
 333.58984375 454 l 1
 507.729492188 710 l 1
 719.729492188 710 l 1
 398.439453125 266 l 1
 351.537109375 0 l 1
 154.537109375 0 l 1
EndSplineSet
Validated: 1
EndChar

StartChar: uni1EF8
Encoding: 7928 7928 127
Width: 668
GlyphClass: 2
Flags: HMW
HStem: 0 21G<236 236 236 433> 690 20G<-8 204 204 204 464 676 676 676> 759 159<235.5 244 154 291> 764 111<386 399.5 386 430.5> 764 160<425 430.5> 807 111<271 284>
VStem: 154 90<759 806> 236 197<0 266 0 266> 425 90<875.5 924>
AnchorPoint: "Anchor-3" 378.729 710 basechar 0
AnchorPoint: "Anchor-0" 253.537 0 basechar 0
LayerCount: 2
Fore
SplineSet
442.250976562 764 m 0xc880
 408.250976562 764 391.30859375 770 367.541015625 794 c 0
 358.951171875 802 349.833007812 807 339.833007812 807 c 0xc6
 323.833007812 807 306.893554688 796 296.369140625 759 c 1
 206.369140625 759 l 1
 222.944335938 853 276.405273438 918 355.405273438 918 c 0xe2
 387.405273438 918 411.170898438 911 435.291992188 889 c 0
 446.528320312 879 453.823242188 875 463.823242188 875 c 0xd080
 480.823242188 875 497.5859375 885 506.462890625 924 c 1
 596.462890625 924 l 1
 579.359375 827 525.250976562 764 442.250976562 764 c 0xc880
154.537109375 0 m 1xc9
 201.439453125 266 l 1
 35.7294921875 710 l 1
 247.729492188 710 l 1
 333.58984375 454 l 1
 507.729492188 710 l 1
 719.729492188 710 l 1
 398.439453125 266 l 1
 351.537109375 0 l 1
 154.537109375 0 l 1xc9
EndSplineSet
Validated: 1
EndChar

StartChar: Z
Encoding: 90 90 128
Width: 627
GlyphClass: 2
Flags: HMW
HStem: 0 157<265 601 265 601> 553 157<44 337 44 586>
VStem: 26 575<0 148 148 148>
AnchorPoint: "Anchor-3" 385.596 710 basechar 0
AnchorPoint: "Anchor-0" 260.404 0 basechar 0
LayerCount: 2
Fore
SplineSet
-36.595703125 0 m 1
 -10.5 148 l 1
 371.913085938 553 l 1
 78.9130859375 553 l 1
 106.595703125 710 l 1
 648.595703125 710 l 1
 622.5 562 l 1
 230.086914062 157 l 1
 566.086914062 157 l 1
 538.404296875 0 l 1
 -36.595703125 0 l 1
EndSplineSet
Validated: 1
EndChar

StartChar: Zacute
Encoding: 377 377 129
Width: 627
GlyphClass: 2
Flags: HMW
HStem: 0 157<265 601 265 601> 553 157<44 337 44 586> 757 160<234 468 288 378>
VStem: 26 575<0 148 148 148>
AnchorPoint: "Anchor-3" 367.347 710 basechar 0
AnchorPoint: "Anchor-0" 242.154 0 basechar 0
LayerCount: 2
Fore
SplineSet
286.633789062 757 m 1
 368.845703125 917 l 1
 548.845703125 917 l 1
 430.633789062 757 l 1
 286.633789062 757 l 1
-54.845703125 0 m 1
 -28.75 148 l 1
 353.663085938 553 l 1
 60.6630859375 553 l 1
 88.3466796875 710 l 1
 630.346679688 710 l 1
 604.25 562 l 1
 211.837890625 157 l 1
 547.837890625 157 l 1
 520.154296875 0 l 1
 -54.845703125 0 l 1
EndSplineSet
Validated: 1
EndChar

StartChar: Zcaron
Encoding: 381 381 130
Width: 627
GlyphClass: 2
Flags: HMW
HStem: 0 157<265 601 265 601> 553 157<44 337 44 586> 757 166<234 262 384 412 234 234>
VStem: 26 575<0 148 148 148>
AnchorPoint: "Anchor-3" 366.817 710 basechar 0
AnchorPoint: "Anchor-0" 241.625 0 basechar 0
LayerCount: 2
Fore
SplineSet
215.375 923 m 1
 343.375 923 l 1
 388.858398438 835 l 1
 465.375 923 l 1
 593.375 923 l 1
 464.104492188 757 l 1
 286.104492188 757 l 1
 215.375 923 l 1
-55.375 0 m 1
 -29.2783203125 148 l 1
 353.133789062 553 l 1
 60.1337890625 553 l 1
 87.8173828125 710 l 1
 629.817382812 710 l 1
 603.720703125 562 l 1
 211.30859375 157 l 1
 547.30859375 157 l 1
 519.625 0 l 1
 -55.375 0 l 1
EndSplineSet
Validated: 1
EndChar

StartChar: Zdotaccent
Encoding: 379 379 131
Width: 627
GlyphClass: 2
Flags: HMW
HStem: 0 157<265 601 265 601> 553 157<44 337 44 586> 764 136<223 423 223 423>
VStem: 223 200<764 900 764 900>
AnchorPoint: "Anchor-3" 368.845 710 basechar 0
AnchorPoint: "Anchor-0" 243.653 0 basechar 0
LayerCount: 2
Fore
SplineSet
278.366210938 764 m 1
 302.346679688 900 l 1
 502.346679688 900 l 1
 478.366210938 764 l 1
 278.366210938 764 l 1
-53.3466796875 0 m 1
 -27.2509765625 148 l 1
 355.162109375 553 l 1
 62.162109375 553 l 1
 89.8447265625 710 l 1
 631.844726562 710 l 1
 605.749023438 562 l 1
 213.3359375 157 l 1
 549.3359375 157 l 1
 521.653320312 0 l 1
 -53.3466796875 0 l 1
EndSplineSet
Validated: 1
Substitution2: "'ss08' Style Set 8 in Latin lookup 41 subtable" Zdotaccent.ss08
Substitution2: "'aalt' Access All Alternates in Latin lookup 0 subtable" Zdotaccent.ss08
EndChar

StartChar: uniA78B
Encoding: 42891 42891 132
Width: 260
GlyphClass: 1
Flags: HMW
HStem: 690 20G<40 220 220 220>
VStem: 40 180<556 710 556 710>
LayerCount: 2
Fore
SplineSet
19.263671875 316 m 1
 47.58203125 556 l 1
 74.736328125 710 l 1
 254.736328125 710 l 1
 227.58203125 556 l 1
 171.263671875 316 l 1
 19.263671875 316 l 1
EndSplineSet
Validated: 1
EndChar

StartChar: uni013B.loclMAH
Encoding: 65538 -1 133
Width: 595
GlyphClass: 2
Flags: HMW
HStem: -180 134<239 273 239 389> 0 157<258 567 258 567> 690 20G<62 258 258 258>
VStem: 62 196<157 710 157 710 157 710> 239 150<-166 -46 -166 -46 -166 -46>
AnchorPoint: "Anchor-4" 405.72 540 basechar 0
AnchorPoint: "Anchor-3" 245.695 710 basechar 0
AnchorPoint: "Anchor-1" 217.507 380 basechar 0
AnchorPoint: "Anchor-0" 228.305 -262 basechar 0
LayerCount: 2
Fore
SplineSet
22.5029296875 0 m 1xf0
 147.6953125 710 l 1
 343.6953125 710 l 1
 246.186523438 157 l 1
 555.186523438 157 l 1
 527.502929688 0 l 1
 22.5029296875 0 l 1xf0
137.3046875 -262 m 1
 201.763671875 -180 l 1
 167.763671875 -180 l 1
 191.391601562 -46 l 1
 341.391601562 -46 l 1
 320.232421875 -166 l 1xe8
 245.3046875 -262 l 1
 137.3046875 -262 l 1
EndSplineSet
Validated: 1
EndChar

StartChar: uni0145.loclMAH
Encoding: 65539 -1 134
Width: 755
GlyphClass: 2
Flags: HMW
HStem: -180 134<297 331 297 447> 0 21G<62 62 62 258 495 495 495 693> 690 20G<62 260 260 260 497 693 693 693>
VStem: 62 196<0 380 0 710> 297 150<-166 -46 -166 -46 -166 -46> 497 196<310 710 0 710>
AnchorPoint: "Anchor-3" 463.695 710 basechar 0
AnchorPoint: "Anchor-0" 286.305 -262 basechar 0
LayerCount: 2
Fore
SplineSet
22.5029296875 0 m 1
 147.6953125 710 l 1
 345.6953125 710 l 1
 512.1640625 310 l 1
 582.6953125 710 l 1
 778.6953125 710 l 1
 653.502929688 0 l 1
 455.502929688 0 l 1
 285.506835938 380 l 1
 218.502929688 0 l 1
 22.5029296875 0 l 1
195.3046875 -262 m 1
 259.763671875 -180 l 1
 225.763671875 -180 l 1
 249.391601562 -46 l 1
 399.391601562 -46 l 1
 378.232421875 -166 l 1
 303.3046875 -262 l 1
 195.3046875 -262 l 1
EndSplineSet
Validated: 1
EndChar

StartChar: R.ss04
Encoding: 65540 -1 135
Width: 729
GlyphClass: 2
Flags: HMW
HStem: 0 21G<62 62 62 258 476 476 476 686> 244 155<258 351 351 354 258 351> 553 157<258 351 258 258>
VStem: 62 196<0 244 399 553> 454 199<449 501.5>
AnchorPoint: "Anchor-3" 411.596 710 basechar 0
AnchorPoint: "Anchor-0" 286.404 0 basechar 0
LayerCount: 2
Fore
SplineSet
-0.595703125 0 m 1
 124.595703125 710 l 1
 428.595703125 710 l 2
 612.595703125 710 700.784179688 626 674.688476562 478 c 0
 659.700195312 393 607.947265625 315 521.775390625 280 c 1
 623.404296875 0 l 1
 413.404296875 0 l 1
 334.427734375 244 l 1
 238.427734375 244 l 1
 195.404296875 0 l 1
 -0.595703125 0 l 1
265.758789062 399 m 1
 358.758789062 399 l 2
 417.758789062 399 465.990234375 423 475.159179688 475 c 0
 484.504882812 528 444.913085938 553 385.913085938 553 c 2
 292.913085938 553 l 1
 265.758789062 399 l 1
EndSplineSet
Validated: 33
EndChar

StartChar: Racute.ss04
Encoding: 65541 -1 136
Width: 729
GlyphClass: 2
Flags: HMW
HStem: 0 21G<62 62 62 258 476 476 476 686> 244 155<258 351 351 354 258 351> 553 157<258 351 258 258> 757 160<260 494 314 404>
VStem: 62 196<0 244 399 553> 454 199<449 501.5>
AnchorPoint: "Anchor-3" 393.347 710 basechar 0
AnchorPoint: "Anchor-0" 268.154 0 basechar 0
LayerCount: 2
Fore
SplineSet
312.633789062 757 m 1
 394.845703125 917 l 1
 574.845703125 917 l 1
 456.633789062 757 l 1
 312.633789062 757 l 1
-18.845703125 0 m 1
 106.346679688 710 l 1
 410.346679688 710 l 2
 594.346679688 710 682.53515625 626 656.438476562 478 c 0
 641.450195312 393 589.697265625 315 503.525390625 280 c 1
 605.154296875 0 l 1
 395.154296875 0 l 1
 316.177734375 244 l 1
 220.177734375 244 l 1
 177.154296875 0 l 1
 -18.845703125 0 l 1
247.508789062 399 m 1
 340.508789062 399 l 2
 399.508789062 399 447.740234375 423 456.909179688 475 c 0
 466.254882812 528 426.663085938 553 367.663085938 553 c 2
 274.663085938 553 l 1
 247.508789062 399 l 1
EndSplineSet
Validated: 33
EndChar

StartChar: Rcaron.ss04
Encoding: 65542 -1 137
Width: 729
GlyphClass: 2
Flags: HMW
HStem: 0 21G<62 62 62 258 476 476 476 686> 244 155<258 351 351 354 258 351> 553 157<258 351 258 258> 757 166<260 288 410 438 260 260>
VStem: 62 196<0 244 399 553> 454 199<449 501.5>
AnchorPoint: "Anchor-3" 392.817 710 basechar 0
AnchorPoint: "Anchor-0" 267.625 0 basechar 0
LayerCount: 2
Fore
SplineSet
241.375 923 m 1
 369.375 923 l 1
 414.858398438 835 l 1
 491.375 923 l 1
 619.375 923 l 1
 490.104492188 757 l 1
 312.104492188 757 l 1
 241.375 923 l 1
-19.375 0 m 1
 105.817382812 710 l 1
 409.817382812 710 l 2
 593.817382812 710 682.005859375 626 655.909179688 478 c 0
 640.921875 393 589.16796875 315 502.997070312 280 c 1
 604.625 0 l 1
 394.625 0 l 1
 315.6484375 244 l 1
 219.6484375 244 l 1
 176.625 0 l 1
 -19.375 0 l 1
246.979492188 399 m 1
 339.979492188 399 l 2
 398.979492188 399 447.2109375 423 456.380859375 475 c 0
 465.725585938 528 426.133789062 553 367.133789062 553 c 2
 274.133789062 553 l 1
 246.979492188 399 l 1
EndSplineSet
Validated: 33
EndChar

StartChar: uni0156.ss04
Encoding: 65543 -1 138
Width: 729
GlyphClass: 2
Flags: HMW
HStem: -180 134<274 308 274 424> 0 21G<62 62 62 258 476 476 476 686> 244 155<258 351 351 354 258 351> 553 157<258 351 258 258>
VStem: 62 196<0 244 399 553> 274 150<-166 -46 -166 -46 -166 -46> 454 199<449 501.5>
AnchorPoint: "Anchor-3" 434.695 710 basechar 0
AnchorPoint: "Anchor-0" 263.305 -262 basechar 0
LayerCount: 2
Fore
SplineSet
22.5029296875 0 m 1
 147.6953125 710 l 1
 451.6953125 710 l 2
 635.6953125 710 723.883789062 626 697.787109375 478 c 0
 682.798828125 393 631.045898438 315 544.874023438 280 c 1
 646.502929688 0 l 1
 436.502929688 0 l 1
 357.526367188 244 l 1
 261.526367188 244 l 1
 218.502929688 0 l 1
 22.5029296875 0 l 1
288.857421875 399 m 1
 381.857421875 399 l 2
 440.857421875 399 489.088867188 423 498.2578125 475 c 0
 507.603515625 528 468.01171875 553 409.01171875 553 c 2
 316.01171875 553 l 1
 288.857421875 399 l 1
172.3046875 -262 m 1
 236.763671875 -180 l 1
 202.763671875 -180 l 1
 226.391601562 -46 l 1
 376.391601562 -46 l 1
 355.232421875 -166 l 1xf4
 280.3046875 -262 l 1
 172.3046875 -262 l 1
EndSplineSet
Validated: 33
EndChar

StartChar: I.ss05
Encoding: 65544 -1 139
Width: 503
GlyphClass: 2
Flags: HMW
HStem: 0 157<40 153 40 153 350 463> 553 157<46 153 46 457 350 350 350 457>
VStem: 153 197<157 553 157 553>
AnchorPoint: "Anchor-3" 313.596 710 basechar 0
AnchorPoint: "Anchor-2" 400.404 0 basechar 0
AnchorPoint: "Anchor-0" 188.404 0 basechar 0
LayerCount: 2
Fore
SplineSet
-22.595703125 0 m 1
 5.0869140625 157 l 1
 118.086914062 157 l 1
 187.913085938 553 l 1
 80.9130859375 553 l 1
 108.595703125 710 l 1
 519.595703125 710 l 1
 491.913085938 553 l 1
 384.913085938 553 l 1
 315.086914062 157 l 1
 428.086914062 157 l 1
 400.404296875 0 l 1
 -22.595703125 0 l 1
EndSplineSet
Validated: 1
EndChar

StartChar: Iacute.ss05
Encoding: 65545 -1 140
Width: 503
GlyphClass: 2
Flags: HMW
HStem: 0 157<40 153 40 153 350 463> 553 157<46 153 46 457 350 350 350 457> 757 160<162 396 216 306>
VStem: 153 197<157 553 157 553>
AnchorPoint: "Anchor-3" 295.347 710 basechar 0
AnchorPoint: "Anchor-2" 382.154 0 basechar 0
AnchorPoint: "Anchor-0" 170.154 0 basechar 0
LayerCount: 2
Fore
SplineSet
214.633789062 757 m 1
 296.845703125 917 l 1
 476.845703125 917 l 1
 358.633789062 757 l 1
 214.633789062 757 l 1
-40.845703125 0 m 1
 -13.162109375 157 l 1
 99.837890625 157 l 1
 169.663085938 553 l 1
 62.6630859375 553 l 1
 90.3466796875 710 l 1
 501.346679688 710 l 1
 473.663085938 553 l 1
 366.663085938 553 l 1
 296.837890625 157 l 1
 409.837890625 157 l 1
 382.154296875 0 l 1
 -40.845703125 0 l 1
EndSplineSet
Validated: 1
EndChar

StartChar: Icircumflex.ss05
Encoding: 65546 -1 141
Width: 503
GlyphClass: 2
Flags: HMW
HStem: 0 157<40 153 40 153 350 463> 553 157<46 153 46 457 350 350 350 457> 757 166<62 340 162 190 312 312 312 340 162 440>
VStem: 153 197<157 553 157 553>
AnchorPoint: "Anchor-3" 294.817 710 basechar 0
AnchorPoint: "Anchor-2" 381.625 0 basechar 0
AnchorPoint: "Anchor-0" 169.625 0 basechar 0
LayerCount: 2
Fore
SplineSet
114.104492188 757 m 1
 243.375 923 l 1
 421.375 923 l 1
 492.104492188 757 l 1
 364.104492188 757 l 1
 318.62109375 845 l 1
 242.104492188 757 l 1
 114.104492188 757 l 1
-41.375 0 m 1
 -13.69140625 157 l 1
 99.30859375 157 l 1
 169.133789062 553 l 1
 62.1337890625 553 l 1
 89.8173828125 710 l 1
 500.817382812 710 l 1
 473.133789062 553 l 1
 366.133789062 553 l 1
 296.30859375 157 l 1
 409.30859375 157 l 1
 381.625 0 l 1
 -41.375 0 l 1
EndSplineSet
Validated: 1
EndChar

StartChar: Idieresis.ss05
Encoding: 65547 -1 142
Width: 503
GlyphClass: 2
Flags: HMW
HStem: 0 157<40 153 40 153 350 463> 553 157<46 153 46 457 350 350 350 457> 760 136<40 220 40 220 282 462 40 282>
VStem: 40 180<760 896 760 896> 46 174<553 896 710 896> 153 197<157 553 157 553> 282 175<553 896> 282 180<760 896 760 896>
AnchorPoint: "Anchor-3" 297.197 710 basechar 0
AnchorPoint: "Anchor-2" 384.006 0 basechar 0
AnchorPoint: "Anchor-0" 172.006 0 basechar 0
LayerCount: 2
Fore
SplineSet
95.013671875 760 m 1xf1
 118.994140625 896 l 1
 298.994140625 896 l 1
 275.013671875 760 l 1
 95.013671875 760 l 1xf1
337.013671875 760 m 1
 360.994140625 896 l 1
 540.994140625 896 l 1
 517.013671875 760 l 1
 337.013671875 760 l 1
-38.994140625 0 m 1
 -11.3115234375 157 l 1
 101.688476562 157 l 1
 171.514648438 553 l 1xe4
 64.5146484375 553 l 1
 92.197265625 710 l 1
 503.197265625 710 l 1
 475.514648438 553 l 1xea
 368.514648438 553 l 1
 298.688476562 157 l 1xe4
 411.688476562 157 l 1
 384.005859375 0 l 1
 -38.994140625 0 l 1
EndSplineSet
Validated: 1
Substitution2: "'ss08' Style Set 8 in Latin lookup 41 subtable" Idieresis.ss05.ss08
Substitution2: "'aalt' Access All Alternates in Latin lookup 0 subtable" Idieresis.ss05.ss08
EndChar

StartChar: Idotaccent.ss05
Encoding: 65548 -1 143
Width: 503
GlyphClass: 2
Flags: HMW
HStem: 0 157<40 153 40 153 350 463> 553 157<46 153 46 457 350 350 350 457> 764 136<151 351 151 351>
VStem: 151 200<764 900 764 900> 153 197<157 553 157 553>
AnchorPoint: "Anchor-3" 296.845 710 basechar 0
AnchorPoint: "Anchor-2" 383.653 0 basechar 0
AnchorPoint: "Anchor-0" 171.653 0 basechar 0
LayerCount: 2
Fore
SplineSet
206.366210938 764 m 1xf0
 230.346679688 900 l 1
 430.346679688 900 l 1
 406.366210938 764 l 1
 206.366210938 764 l 1xf0
-39.3466796875 0 m 1
 -11.6640625 157 l 1
 101.3359375 157 l 1
 171.162109375 553 l 1
 64.162109375 553 l 1
 91.8447265625 710 l 1
 502.844726562 710 l 1
 475.162109375 553 l 1
 368.162109375 553 l 1
 298.3359375 157 l 1xe8
 411.3359375 157 l 1
 383.653320312 0 l 1
 -39.3466796875 0 l 1
EndSplineSet
Validated: 1
Substitution2: "'ss08' Style Set 8 in Latin lookup 41 subtable" Idotaccent.ss05.ss08
Substitution2: "'aalt' Access All Alternates in Latin lookup 0 subtable" Idotaccent.ss05.ss08
EndChar

StartChar: Igrave.ss05
Encoding: 65549 -1 144
Width: 503
GlyphClass: 2
Flags: HMW
HStem: 0 157<40 153 40 153 350 463> 553 157<46 153 46 457 350 350 350 457> 764 160<192 192 192 282 102 336>
VStem: 153 197<157 553 157 553>
AnchorPoint: "Anchor-3" 294.729 710 basechar 0
AnchorPoint: "Anchor-2" 381.537 0 basechar 0
AnchorPoint: "Anchor-0" 169.537 0 basechar 0
LayerCount: 2
Fore
SplineSet
245.250976562 764 m 1
 183.462890625 924 l 1
 363.462890625 924 l 1
 389.250976562 764 l 1
 245.250976562 764 l 1
-41.462890625 0 m 1
 -13.779296875 157 l 1
 99.220703125 157 l 1
 169.045898438 553 l 1
 62.0458984375 553 l 1
 89.7294921875 710 l 1
 500.729492188 710 l 1
 473.045898438 553 l 1
 366.045898438 553 l 1
 296.220703125 157 l 1
 409.220703125 157 l 1
 381.537109375 0 l 1
 -41.462890625 0 l 1
EndSplineSet
Validated: 1
EndChar

StartChar: Imacron.ss05
Encoding: 65550 -1 145
Width: 503
GlyphClass: 2
Flags: HMW
HStem: 0 157<40 153 40 153 350 463> 553 157<46 153 46 457 350 350 350 457> 765 135<91 411 91 411>
VStem: 91 320<765 900 765 900> 153 197<157 553 157 553>
AnchorPoint: "Anchor-3" 296.845 710 basechar 0
AnchorPoint: "Anchor-2" 383.653 0 basechar 0
AnchorPoint: "Anchor-0" 171.653 0 basechar 0
LayerCount: 2
Fore
SplineSet
146.54296875 765 m 1xf0
 170.346679688 900 l 1
 490.346679688 900 l 1
 466.54296875 765 l 1
 146.54296875 765 l 1xf0
-39.3466796875 0 m 1
 -11.6640625 157 l 1
 101.3359375 157 l 1
 171.162109375 553 l 1
 64.162109375 553 l 1
 91.8447265625 710 l 1
 502.844726562 710 l 1
 475.162109375 553 l 1
 368.162109375 553 l 1
 298.3359375 157 l 1xe8
 411.3359375 157 l 1
 383.653320312 0 l 1
 -39.3466796875 0 l 1
EndSplineSet
Validated: 1
EndChar

StartChar: Iogonek.ss05
Encoding: 65551 -1 146
Width: 503
GlyphClass: 2
Flags: HMW
HStem: -222 104<340.5 436> 0 157<40 153 40 153 40 313> 553 157<46 153 46 457 350 350 350 457>
VStem: 153 197<157 553 157 553> 254 150<-157 -85.5> 254 209<-157 157>
AnchorPoint: "Anchor-3" 333.168 710 basechar 0
AnchorPoint: "Anchor-2" 419.977 0 basechar 0
AnchorPoint: "Anchor-0" 207.977 0 basechar 0
LayerCount: 2
Fore
SplineSet
-3.0234375 0 m 1xe4
 24.6591796875 157 l 1
 137.659179688 157 l 1
 207.485351562 553 l 1
 100.485351562 553 l 1
 128.16796875 710 l 1
 539.16796875 710 l 1
 511.485351562 553 l 1
 404.485351562 553 l 1
 334.659179688 157 l 1x70
 447.659179688 157 l 1
 419.9765625 0 l 1x64
 386.981445312 -34 l 2
 367.278320312 -55 347.399414062 -77 344.401367188 -94 c 0xe8
 341.404296875 -111 352.169921875 -118 364.169921875 -118 c 0
 380.169921875 -118 400.227539062 -112 409.28515625 -106 c 1
 423.416015625 -196 l 1
 400.947265625 -210 346.83203125 -222 298.83203125 -222 c 0
 217.83203125 -222 177.827148438 -188 188.758789062 -126 c 0
 196.165039062 -84 224.512695312 -48 252.802734375 -18 c 2
 269.9765625 0 l 1
 -3.0234375 0 l 1xe4
EndSplineSet
Validated: 33
EndChar

StartChar: Itilde.ss05
Encoding: 65552 -1 147
Width: 503
GlyphClass: 2
Flags: HMW
HStem: 0 157<40 153 40 153 350 463> 553 157<46 153 46 457 350 350 350 457> 759 159<151.5 160 70 207> 764 111<302 315.5 302 346.5> 764 160<341 346.5> 807 111<187 200>
VStem: 70 90<759 806> 153 197<157 553 157 553> 341 90<875.5 924>
AnchorPoint: "Anchor-3" 294.729 710 basechar 0
AnchorPoint: "Anchor-2" 381.537 0 basechar 0
AnchorPoint: "Anchor-0" 169.537 0 basechar 0
LayerCount: 2
Fore
SplineSet
358.250976562 764 m 0xc880
 324.250976562 764 307.30859375 770 283.541015625 794 c 0
 274.951171875 802 265.833007812 807 255.833007812 807 c 0xc6
 239.833007812 807 222.893554688 796 212.369140625 759 c 1
 122.369140625 759 l 1
 138.944335938 853 192.405273438 918 271.405273438 918 c 0xe2
 303.405273438 918 327.170898438 911 351.291992188 889 c 0
 362.528320312 879 369.823242188 875 379.823242188 875 c 0xd080
 396.823242188 875 413.5859375 885 422.462890625 924 c 1
 512.462890625 924 l 1
 495.359375 827 441.250976562 764 358.250976562 764 c 0xc880
-41.462890625 0 m 1
 -13.779296875 157 l 1
 99.220703125 157 l 1
 169.045898438 553 l 1
 62.0458984375 553 l 1
 89.7294921875 710 l 1
 500.729492188 710 l 1
 473.045898438 553 l 1
 366.045898438 553 l 1
 296.220703125 157 l 1xc1
 409.220703125 157 l 1
 381.537109375 0 l 1
 -41.462890625 0 l 1
EndSplineSet
Validated: 1
EndChar

StartChar: G.ss06
Encoding: 65553 -1 148
Width: 754
GlyphClass: 2
Flags: HMW
HStem: -16 157<340 428 340 490> 246 130<390 523 390 719> 569 157<341.5 430>
VStem: 40 201<290 418.5 290 461> 390 329<246 335 335 376 215 376> 523 196<246 246>
AnchorPoint: "Anchor-3" 454.596 710 basechar 0
AnchorPoint: "Anchor-0" 332.404 0 basechar 0
LayerCount: 2
Fore
SplineSet
327.583007812 -16 m 0xf8
 90.5830078125 -16 2.08984375 140 39.8232421875 354 c 0
 77.5576171875 568 232.416992188 726 462.416992188 726 c 0
 642.416992188 726 736.666015625 631 736.749023438 467 c 1
 532.337890625 459 l 1
 532.857421875 530 505.734375 569 429.734375 569 c 0
 328.734375 569 263.5703125 483 240.823242188 354 c 0
 218.25390625 226 254.265625 141 350.265625 141 c 0
 430.265625 141 483.790039062 178 503.780273438 246 c 1xf4
 370.780273438 246 l 1
 393.703125 376 l 1
 722.703125 376 l 1
 715.473632812 335 l 2
 673.155273438 95 521.583007812 -16 327.583007812 -16 c 0xf8
EndSplineSet
Validated: 33
EndChar

StartChar: Gbreve.ss06
Encoding: 65554 -1 149
Width: 754
GlyphClass: 2
Flags: HMW
HStem: -16 157<340 428 340 490> 246 130<390 523 390 719> 569 157<341.5 430> 754 96<374 410 374 442> 754 160<224 442>
VStem: 40 201<290 418.5 290 461> 224 106<914 914> 390 329<246 335 335 376 215 376> 454 106<914 914> 523 196<246 246>
AnchorPoint: "Anchor-3" 438.021 710 basechar 0
AnchorPoint: "Anchor-0" 315.829 0 basechar 0
LayerCount: 2
Fore
SplineSet
445.779296875 754 m 0xcc80
 345.779296875 754 291.654296875 810 305.9921875 914 c 1xcb
 411.9921875 914 l 1
 407.880859375 868 426.70703125 850 462.70703125 850 c 0xd280
 498.70703125 850 523.880859375 868 535.9921875 914 c 1
 641.9921875 914 l 1
 619.654296875 810 545.779296875 754 445.779296875 754 c 0xcc80
311.0078125 -16 m 0
 74.0078125 -16 -14.4853515625 140 23.2490234375 354 c 0
 60.9833984375 568 215.842773438 726 445.842773438 726 c 0
 625.842773438 726 720.091796875 631 720.173828125 467 c 1
 515.763671875 459 l 1
 516.282226562 530 489.159179688 569 413.159179688 569 c 0
 312.159179688 569 246.995117188 483 224.249023438 354 c 0
 201.678710938 226 237.69140625 141 333.69140625 141 c 0
 413.69140625 141 467.215820312 178 487.206054688 246 c 1xe440
 354.206054688 246 l 1
 377.127929688 376 l 1
 706.127929688 376 l 1
 698.8984375 335 l 2
 656.580078125 95 505.0078125 -16 311.0078125 -16 c 0
EndSplineSet
Validated: 33
EndChar

StartChar: Gcircumflex.ss06
Encoding: 65555 -1 150
Width: 754
GlyphClass: 2
Flags: HMW
HStem: -16 157<340 428 340 490> 246 130<390 523 390 719> 569 157<341.5 430> 757 166<203 481 303 331 453 453 453 481 303 581>
VStem: 40 201<290 418.5 290 461> 390 329<246 335 335 376 215 376> 523 196<246 246>
AnchorPoint: "Anchor-3" 437.228 710 basechar 0
AnchorPoint: "Anchor-0" 315.036 0 basechar 0
LayerCount: 2
Fore
SplineSet
256.515625 757 m 1xfc
 385.78515625 923 l 1
 563.78515625 923 l 1
 634.515625 757 l 1
 506.515625 757 l 1
 461.032226562 845 l 1
 384.515625 757 l 1
 256.515625 757 l 1xfc
310.21484375 -16 m 0
 73.21484375 -16 -15.2783203125 140 22.455078125 354 c 0
 60.189453125 568 215.048828125 726 445.048828125 726 c 0
 625.048828125 726 719.297851562 631 719.380859375 467 c 1
 514.969726562 459 l 1
 515.489257812 530 488.366210938 569 412.366210938 569 c 0
 311.366210938 569 246.201171875 483 223.455078125 354 c 0
 200.885742188 226 236.897460938 141 332.897460938 141 c 0
 412.897460938 141 466.421875 178 486.412109375 246 c 1xfa
 353.412109375 246 l 1
 376.334960938 376 l 1
 705.334960938 376 l 1
 698.10546875 335 l 2
 655.787109375 95 504.21484375 -16 310.21484375 -16 c 0
EndSplineSet
Validated: 33
EndChar

StartChar: uni0122.ss06
Encoding: 65556 -1 151
Width: 754
GlyphClass: 2
Flags: HMW
HStem: -180 134<320 354 320 470> -16 157<340 428 340 490> 246 130<390 523 390 719> 569 157<341.5 430>
VStem: 40 201<290 418.5 290 461> 320 150<-166 -46 -166 -46 -166 -46> 390 329<246 335 335 376 215 376> 523 196<246 246>
AnchorPoint: "Anchor-3" 476.284 710 basechar 0
AnchorPoint: "Anchor-0" 307.895 -262 basechar 0
LayerCount: 2
Fore
SplineSet
349.270507812 -16 m 0x7a
 112.270507812 -16 23.7783203125 140 61.51171875 354 c 0
 99.24609375 568 254.10546875 726 484.10546875 726 c 0
 664.10546875 726 758.354492188 631 758.436523438 467 c 1
 554.026367188 459 l 1
 554.545898438 530 527.421875 569 451.421875 569 c 0
 350.421875 569 285.2578125 483 262.51171875 354 c 0
 239.942382812 226 275.954101562 141 371.954101562 141 c 0
 451.954101562 141 505.478515625 178 525.46875 246 c 1x7d
 392.46875 246 l 1
 415.390625 376 l 1
 744.390625 376 l 1
 737.162109375 335 l 2
 694.842773438 95 543.270507812 -16 349.270507812 -16 c 0x7a
216.89453125 -262 m 1
 281.353515625 -180 l 1
 247.353515625 -180 l 1
 270.981445312 -46 l 1
 420.981445312 -46 l 1xbc
 399.822265625 -166 l 1
 324.89453125 -262 l 1
 216.89453125 -262 l 1
EndSplineSet
Validated: 33
EndChar

StartChar: Gdotaccent.ss06
Encoding: 65557 -1 152
Width: 754
GlyphClass: 2
Flags: HMW
HStem: -16 157<340 428 340 490> 246 130<390 523 390 719> 569 157<341.5 430> 764 136<292 492 292 492>
VStem: 40 201<290 418.5 290 461> 292 200<764 900 764 900> 390 329<246 335 335 376 215 376> 523 196<246 246>
AnchorPoint: "Anchor-3" 439.256 710 basechar 0
AnchorPoint: "Anchor-0" 317.063 0 basechar 0
LayerCount: 2
Fore
SplineSet
348.77734375 764 m 1xfc
 372.7578125 900 l 1
 572.7578125 900 l 1
 548.77734375 764 l 1
 348.77734375 764 l 1xfc
312.2421875 -16 m 0
 75.2421875 -16 -13.2509765625 140 24.4833984375 354 c 0
 62.216796875 568 217.077148438 726 447.077148438 726 c 0
 627.077148438 726 721.326171875 631 721.408203125 467 c 1
 516.998046875 459 l 1
 517.516601562 530 490.393554688 569 414.393554688 569 c 0
 313.393554688 569 248.229492188 483 225.483398438 354 c 0
 202.913085938 226 238.92578125 141 334.92578125 141 c 0
 414.92578125 141 468.44921875 178 488.439453125 246 c 1xfd
 355.439453125 246 l 1
 378.362304688 376 l 1
 707.362304688 376 l 1
 700.1328125 335 l 2xfa
 657.814453125 95 506.2421875 -16 312.2421875 -16 c 0
EndSplineSet
Validated: 33
Substitution2: "'ss08' Style Set 8 in Latin lookup 41 subtable" Gdotaccent.ss06.ss08
Substitution2: "'aalt' Access All Alternates in Latin lookup 0 subtable" Gdotaccent.ss06.ss08
EndChar

StartChar: uni1E20.ss06
Encoding: 65558 -1 153
Width: 754
GlyphClass: 2
Flags: HMW
HStem: -16 157<340 428 340 490> 246 130<390 523 390 719> 569 157<341.5 430> 765 135<232 552 232 552>
VStem: 40 201<290 418.5 290 461> 232 320<765 900 765 900> 390 329<246 335 335 376 215 376> 523 196<246 246>
AnchorPoint: "Anchor-3" 439.256 710 basechar 0
AnchorPoint: "Anchor-0" 317.063 0 basechar 0
LayerCount: 2
Fore
SplineSet
288.954101562 765 m 1xf4
 312.7578125 900 l 1
 632.7578125 900 l 1
 608.954101562 765 l 1
 288.954101562 765 l 1xf4
312.2421875 -16 m 0
 75.2421875 -16 -13.2509765625 140 24.4833984375 354 c 0
 62.216796875 568 217.077148438 726 447.077148438 726 c 0
 627.077148438 726 721.326171875 631 721.408203125 467 c 1
 516.998046875 459 l 1
 517.516601562 530 490.393554688 569 414.393554688 569 c 0
 313.393554688 569 248.229492188 483 225.483398438 354 c 0
 202.913085938 226 238.92578125 141 334.92578125 141 c 0
 414.92578125 141 468.44921875 178 488.439453125 246 c 1xf9
 355.439453125 246 l 1
 378.362304688 376 l 1
 707.362304688 376 l 1
 700.1328125 335 l 2xfa
 657.814453125 95 506.2421875 -16 312.2421875 -16 c 0
EndSplineSet
Validated: 33
EndChar

StartChar: Adieresis.ss08
Encoding: 65559 -1 154
Width: 771
GlyphClass: 2
Flags: HMW
HStem: 0 21G<18 18 18 217 553 553 553 753> 117 152<309 462 309 513 257 462> 690 20G<274 497 497 497> 748 172<243 299 473 529>
VStem: 181 180<807 861> 411 180<807 861>
AnchorPoint: "Anchor-3" 430.082 710 basechar 0
AnchorPoint: "Anchor-2" 671.89 0 basechar 0
AnchorPoint: "Anchor-0" 304.89 0 basechar 0
LayerCount: 2
Fore
SplineSet
321.782226562 748 m 0
 265.782226562 748 237.424804688 780 246.946289062 834 c 0
 256.467773438 888 296.110351562 920 352.110351562 920 c 0
 408.110351562 920 436.467773438 888 426.946289062 834 c 0
 417.424804688 780 377.782226562 748 321.782226562 748 c 0
551.782226562 748 m 0
 495.782226562 748 467.424804688 780 476.946289062 834 c 0
 486.467773438 888 526.110351562 920 582.110351562 920 c 0
 638.110351562 920 666.467773438 888 656.946289062 834 c 0
 647.424804688 780 607.782226562 748 551.782226562 748 c 0
-63.1103515625 0 m 1
 318.08203125 710 l 1
 541.08203125 710 l 1
 671.889648438 0 l 1
 471.889648438 0 l 1
 452.51953125 117 l 1
 196.51953125 117 l 1
 135.889648438 0 l 1
 -63.1103515625 0 l 1
275.321289062 269 m 1
 428.321289062 269 l 1
 391.995117188 494 l 1
 275.321289062 269 l 1
EndSplineSet
Validated: 33
EndChar

StartChar: Cdotaccent.ss08
Encoding: 65560 -1 155
Width: 755
GlyphClass: 2
Flags: HMW
HStem: -16 157<339.5 423.5 339.5 480> 569 157<338 421> 748 172<359 415>
VStem: 40 201<289 417 289 466> 293 188<807 861>
AnchorPoint: "Anchor-3" 432.492 710 basechar 0
AnchorPoint: "Anchor-0" 307.3 0 basechar 0
LayerCount: 2
Fore
SplineSet
439.192382812 748 m 0
 383.192382812 748 350.834960938 780 360.356445312 834 c 0
 369.87890625 888 413.521484375 920 469.521484375 920 c 0
 525.521484375 920 557.87890625 888 548.356445312 834 c 0
 538.834960938 780 495.192382812 748 439.192382812 748 c 0
300.478515625 -16 m 0
 102.478515625 -16 -18.541015625 120 22.7197265625 354 c 0
 62.216796875 578 221.313476562 726 435.313476562 726 c 0
 630.313476562 726 719.209960938 629 718.294921875 448 c 1
 514.060546875 441 l 1
 514.342773438 522 475.629882812 569 407.629882812 569 c 0xd8
 309.629882812 569 245.9375 480 223.719726562 354 c 0
 200.797851562 224 239.162109375 141 330.162109375 141 c 0
 407.162109375 141 457.802734375 190 485.142578125 277 c 1
 687.908203125 270 l 1
 624.111328125 84 494.478515625 -16 300.478515625 -16 c 0
EndSplineSet
Validated: 33
EndChar

StartChar: Edieresis.ss08
Encoding: 65561 -1 156
Width: 634
GlyphClass: 2
Flags: HMW
HStem: 0 157<258 596 258 596> 278 156<258 576 258 576> 553 157<258 588 258 258> 748 172<182 238 412 468>
VStem: 62 196<157 278 434 553> 120 180<807 861> 350 180<807 861>
AnchorPoint: "Anchor-3" 369.082 710 basechar 0
AnchorPoint: "Anchor-2" 514.89 0 basechar 0
AnchorPoint: "Anchor-0" 243.89 0 basechar 0
LayerCount: 2
Fore
SplineSet
260.782226562 748 m 0xf6
 204.782226562 748 176.424804688 780 185.946289062 834 c 0
 195.467773438 888 235.110351562 920 291.110351562 920 c 0
 347.110351562 920 375.467773438 888 365.946289062 834 c 0
 356.424804688 780 316.782226562 748 260.782226562 748 c 0xf6
490.782226562 748 m 0
 434.782226562 748 406.424804688 780 415.946289062 834 c 0
 425.467773438 888 465.110351562 920 521.110351562 920 c 0
 577.110351562 920 605.467773438 888 595.946289062 834 c 0
 586.424804688 780 546.782226562 748 490.782226562 748 c 0
-19.1103515625 0 m 1xe8
 106.08203125 710 l 1
 632.08203125 710 l 1
 604.3984375 553 l 1
 274.3984375 553 l 1
 253.415039062 434 l 1
 571.415039062 434 l 1
 543.908203125 278 l 1
 225.908203125 278 l 1
 204.573242188 157 l 1
 542.573242188 157 l 1
 514.889648438 0 l 1
 -19.1103515625 0 l 1xe8
EndSplineSet
Validated: 33
EndChar

StartChar: Edotaccent.ss08
Encoding: 65562 -1 157
Width: 634
GlyphClass: 2
Flags: HMW
HStem: 0 157<258 596 258 596> 278 156<258 576 258 576> 553 157<258 588 258 258> 748 172<297 353>
VStem: 62 196<157 278 434 553> 231 188<807 861>
AnchorPoint: "Anchor-3" 369.082 710 basechar 0
AnchorPoint: "Anchor-2" 514.89 0 basechar 0
AnchorPoint: "Anchor-0" 243.89 0 basechar 0
LayerCount: 2
Fore
SplineSet
375.782226562 748 m 0xf4
 319.782226562 748 287.424804688 780 296.946289062 834 c 0
 306.467773438 888 350.110351562 920 406.110351562 920 c 0
 462.110351562 920 494.467773438 888 484.946289062 834 c 0
 475.424804688 780 431.782226562 748 375.782226562 748 c 0xf4
-19.1103515625 0 m 1xe8
 106.08203125 710 l 1
 632.08203125 710 l 1
 604.3984375 553 l 1
 274.3984375 553 l 1
 253.415039062 434 l 1
 571.415039062 434 l 1
 543.908203125 278 l 1
 225.908203125 278 l 1
 204.573242188 157 l 1
 542.573242188 157 l 1
 514.889648438 0 l 1
 -19.1103515625 0 l 1xe8
EndSplineSet
Validated: 33
EndChar

StartChar: Gdotaccent.ss08
Encoding: 65563 -1 158
Width: 764
GlyphClass: 2
Flags: HMW
HStem: -16 157<342 426> 0 21G<605 719 605 605> 246 130<390 523 390 719> 569 157<343 428> 748 172<363 419>
VStem: 40 201<290 418.5 290 461> 297 188<807 861> 602 117
AnchorPoint: "Anchor-3" 436.492 710 basechar 0
AnchorPoint: "Anchor-0" 315.3 0 basechar 0
LayerCount: 2
Fore
SplineSet
443.192382812 748 m 0xaf
 387.192382812 748 354.834960938 780 364.356445312 834 c 0
 373.87890625 888 417.521484375 920 473.521484375 920 c 0
 529.521484375 920 561.87890625 888 552.356445312 834 c 0
 542.834960938 780 499.192382812 748 443.192382812 748 c 0xaf
292.478515625 -16 m 0
 84.478515625 -16 -16.4248046875 132 22.7197265625 354 c 0
 60.4541015625 568 217.313476562 726 437.313476562 726 c 0
 631.313476562 726 713.5625 631 719.64453125 467 c 1
 515.234375 459 l 1
 515.577148438 529 485.629882812 569 411.629882812 569 c 0
 315.629882812 569 246.465820312 483 223.719726562 354 c 0
 201.150390625 226 234.162109375 141 340.162109375 141 c 0xb5
 413.162109375 141 464.862304688 179 486.676757812 246 c 1
 353.676757812 246 l 1
 376.599609375 376 l 1
 705.599609375 376 l 1
 639.299804688 0 l 1
 525.299804688 0 l 1x75
 535.345703125 91 l 1
 485.708007812 25 394.478515625 -16 292.478515625 -16 c 0
EndSplineSet
Validated: 33
EndChar

StartChar: Idieresis.ss08
Encoding: 65564 -1 159
Width: 320
GlyphClass: 2
Flags: HMW
HStem: 0 21G<62 62 62 258> 690 20G<62 258 258 258> 748 172<17 73 247 303>
VStem: -45 180<807 861> 62 73 62 196<0 710 0 710> 185 73 185 180<807 861>
AnchorPoint: "Anchor-3" 204.082 710 basechar 0
AnchorPoint: "Anchor-2" 176.89 0 basechar 0
AnchorPoint: "Anchor-0" 78.8896 0 basechar 0
LayerCount: 2
Fore
SplineSet
95.7822265625 748 m 0xe8
 39.7822265625 748 11.4248046875 780 20.9462890625 834 c 0xf1
 30.4677734375 888 70.1103515625 920 126.110351562 920 c 0
 182.110351562 920 210.467773438 888 200.946289062 834 c 0
 191.424804688 780 151.782226562 748 95.7822265625 748 c 0xe8
325.782226562 748 m 0
 269.782226562 748 241.424804688 780 250.946289062 834 c 0xe2
 260.467773438 888 300.110351562 920 356.110351562 920 c 0
 412.110351562 920 440.467773438 888 430.946289062 834 c 0
 421.424804688 780 381.782226562 748 325.782226562 748 c 0
-19.1103515625 0 m 1xe4
 106.08203125 710 l 1
 302.08203125 710 l 1
 176.889648438 0 l 1
 -19.1103515625 0 l 1xe4
EndSplineSet
Validated: 33
EndChar

StartChar: Idotaccent.ss08
Encoding: 65565 -1 160
Width: 320
GlyphClass: 2
Flags: HMW
HStem: 0 21G<62 62 62 258> 690 20G<62 258 258 258> 748 172<132 188>
VStem: 62 196<0 710 0 710> 66 188<807 861>
AnchorPoint: "Anchor-3" 204.082 710 basechar 0
AnchorPoint: "Anchor-2" 176.89 0 basechar 0
AnchorPoint: "Anchor-0" 78.8896 0 basechar 0
LayerCount: 2
Fore
SplineSet
210.782226562 748 m 0xe8
 154.782226562 748 122.424804688 780 131.946289062 834 c 0
 141.467773438 888 185.110351562 920 241.110351562 920 c 0
 297.110351562 920 329.467773438 888 319.946289062 834 c 0
 310.424804688 780 266.782226562 748 210.782226562 748 c 0xe8
-19.1103515625 0 m 1xf0
 106.08203125 710 l 1
 302.08203125 710 l 1
 176.889648438 0 l 1
 -19.1103515625 0 l 1xf0
EndSplineSet
Validated: 33
EndChar

StartChar: Odieresis.ss08
Encoding: 65566 -1 161
Width: 800
GlyphClass: 2
Flags: HMW
HStem: -16 157<350 450 350 512.5> 569 157<350 450> 748 172<257 313 487 543>
VStem: 40 201<286 422 286 468> 195 180<807 861> 425 180<807 861> 559 201<286 422>
AnchorPoint: "Anchor-3" 445.492 710 basechar 0
AnchorPoint: "Anchor-1" 382.896 355 basechar 0
AnchorPoint: "Anchor-0" 320.3 0 basechar 0
LayerCount: 2
Fore
SplineSet
337.192382812 748 m 0xac
 281.192382812 748 252.834960938 780 262.356445312 834 c 0
 271.87890625 888 311.521484375 920 367.521484375 920 c 0
 423.521484375 920 451.87890625 888 442.356445312 834 c 0
 432.834960938 780 393.192382812 748 337.192382812 748 c 0xac
567.192382812 748 m 0
 511.192382812 748 482.834960938 780 492.356445312 834 c 0
 501.87890625 888 541.521484375 920 597.521484375 920 c 0
 653.521484375 920 681.87890625 888 672.356445312 834 c 0
 662.834960938 780 623.192382812 748 567.192382812 748 c 0
317.478515625 -16 m 0
 92.478515625 -16 -17.482421875 126 22.7197265625 354 c 0
 62.9228515625 582 223.313476562 726 448.313476562 726 c 0
 673.313476562 726 782.922851562 582 742.719726562 354 c 0xd2
 702.517578125 126 542.478515625 -16 317.478515625 -16 c 0
345.162109375 141 m 0
 445.162109375 141 517.739257812 218 541.719726562 354 c 0
 565.700195312 490 520.629882812 569 420.629882812 569 c 0
 320.629882812 569 247.700195312 490 223.719726562 354 c 0
 199.739257812 218 245.162109375 141 345.162109375 141 c 0
EndSplineSet
Validated: 33
EndChar

StartChar: Udieresis.ss08
Encoding: 65567 -1 162
Width: 713
GlyphClass: 2
Flags: HMW
HStem: -16 157<319.5 393 319.5 451> 691 20G<47 243 243 243 470 666 666 666> 748 172<213 269 443 499>
VStem: 47 196<262 711> 151 92 151 180<807 861> 381 180<807 861> 470 91 470 196<262 711>
AnchorPoint: "Anchor-3" 401.492 710 basechar 0
AnchorPoint: "Anchor-2" 393.3 0 basechar 0
AnchorPoint: "Anchor-0" 276.3 0 basechar 0
LayerCount: 2
Fore
SplineSet
293.192382812 748 m 0xe480
 237.192382812 748 208.834960938 780 218.356445312 834 c 0xe9
 227.87890625 888 267.521484375 920 323.521484375 920 c 0
 379.521484375 920 407.87890625 888 398.356445312 834 c 0
 388.834960938 780 349.192382812 748 293.192382812 748 c 0xe480
523.192382812 748 m 0
 467.192382812 748 438.834960938 780 448.356445312 834 c 0xf2
 457.87890625 888 497.521484375 920 553.521484375 920 c 0
 609.521484375 920 637.87890625 888 628.356445312 834 c 0
 618.834960938 780 579.192382812 748 523.192382812 748 c 0
273.478515625 -16 m 0
 84.478515625 -16 -16.4775390625 92 13.498046875 262 c 2
 92.6689453125 711 l 1
 288.668945312 711 l 1
 209.498046875 262 l 2
 195.744140625 184 228.162109375 141 301.162109375 141 c 0
 375.162109375 141 422.744140625 184 436.498046875 262 c 2
 515.668945312 711 l 1
 711.668945312 711 l 1
 632.498046875 262 l 2xf080
 602.522460938 92 463.478515625 -16 273.478515625 -16 c 0
EndSplineSet
Validated: 33
EndChar

StartChar: Wdieresis.ss08
Encoding: 65568 -1 163
Width: 1061
GlyphClass: 2
Flags: HMW
HStem: 0 21G<231 231 231 431 631 631 631 831> 690 20G<36 238 238 238 453 609 609 609 823 1025 1025 1025> 748 172<388 444 618 674>
VStem: 326 180<807 861> 556 180<807 861>
AnchorPoint: "Anchor-3" 575.082 710 basechar 0
AnchorPoint: "Anchor-0" 449.89 0 basechar 0
LayerCount: 2
Fore
SplineSet
466.782226562 748 m 0
 410.782226562 748 382.424804688 780 391.946289062 834 c 0
 401.467773438 888 441.110351562 920 497.110351562 920 c 0
 553.110351562 920 581.467773438 888 571.946289062 834 c 0
 562.424804688 780 522.782226562 748 466.782226562 748 c 0
696.782226562 748 m 0
 640.782226562 748 612.424804688 780 621.946289062 834 c 0
 631.467773438 888 671.110351562 920 727.110351562 920 c 0
 783.110351562 920 811.467773438 888 801.946289062 834 c 0
 792.424804688 780 752.782226562 748 696.782226562 748 c 0
149.889648438 0 m 1
 80.08203125 710 l 1
 282.08203125 710 l 1
 310.850585938 272 l 1
 497.08203125 710 l 1
 653.08203125 710 l 1
 684.850585938 272 l 1
 867.08203125 710 l 1
 1069.08203125 710 l 1
 749.889648438 0 l 1
 549.889648438 0 l 1
 518.657226562 390 l 1
 349.889648438 0 l 1
 149.889648438 0 l 1
EndSplineSet
Validated: 33
EndChar

StartChar: Ydieresis.ss08
Encoding: 65569 -1 164
Width: 668
GlyphClass: 2
Flags: HMW
HStem: 0 21G<236 236 236 433> 690 20G<-8 204 204 204 464 676 676 676> 748 172<192 248 422 478>
VStem: 130 180<807 861> 236 197<0 266 0 266> 360 180<807 861>
AnchorPoint: "Anchor-3" 379.082 710 basechar 0
AnchorPoint: "Anchor-0" 253.89 0 basechar 0
LayerCount: 2
Fore
SplineSet
270.782226562 748 m 0xf4
 214.782226562 748 186.424804688 780 195.946289062 834 c 0
 205.467773438 888 245.110351562 920 301.110351562 920 c 0
 357.110351562 920 385.467773438 888 375.946289062 834 c 0
 366.424804688 780 326.782226562 748 270.782226562 748 c 0xf4
500.782226562 748 m 0
 444.782226562 748 416.424804688 780 425.946289062 834 c 0
 435.467773438 888 475.110351562 920 531.110351562 920 c 0
 587.110351562 920 615.467773438 888 605.946289062 834 c 0
 596.424804688 780 556.782226562 748 500.782226562 748 c 0
154.889648438 0 m 1xe8
 201.79296875 266 l 1
 36.08203125 710 l 1
 248.08203125 710 l 1
 333.942382812 454 l 1
 508.08203125 710 l 1
 720.08203125 710 l 1
 398.79296875 266 l 1
 351.889648438 0 l 1
 154.889648438 0 l 1xe8
EndSplineSet
Validated: 33
EndChar

StartChar: Zdotaccent.ss08
Encoding: 65570 -1 165
Width: 627
GlyphClass: 2
Flags: HMW
HStem: 0 157<265 601 265 601> 553 157<44 337 44 586> 748 172<295 351>
VStem: 229 188<807 861>
AnchorPoint: "Anchor-3" 367.082 710 basechar 0
AnchorPoint: "Anchor-0" 241.89 0 basechar 0
LayerCount: 2
Fore
SplineSet
373.782226562 748 m 0
 317.782226562 748 285.424804688 780 294.946289062 834 c 0
 304.467773438 888 348.110351562 920 404.110351562 920 c 0
 460.110351562 920 492.467773438 888 482.946289062 834 c 0
 473.424804688 780 429.782226562 748 373.782226562 748 c 0
-55.1103515625 0 m 1
 -29.013671875 148 l 1
 353.3984375 553 l 1
 60.3984375 553 l 1
 88.08203125 710 l 1
 630.08203125 710 l 1
 603.985351562 562 l 1
 211.573242188 157 l 1
 547.573242188 157 l 1
 519.889648438 0 l 1
 -55.1103515625 0 l 1
EndSplineSet
Validated: 33
EndChar

StartChar: Idieresis.ss05.ss08
Encoding: 65571 -1 166
Width: 503
GlyphClass: 2
Flags: HMW
HStem: 0 157<40 153 40 153 350 463> 553 157<46 153 46 457 350 350 350 457> 748 172<108 164 338 394>
VStem: 46 180<553 861 710 861 807 861> 153 197<157 553 157 553> 276 180<807 861>
AnchorPoint: "Anchor-3" 295.082 710 basechar 0
AnchorPoint: "Anchor-2" 381.89 0 basechar 0
AnchorPoint: "Anchor-0" 169.89 0 basechar 0
LayerCount: 2
Fore
SplineSet
186.782226562 748 m 0xf4
 130.782226562 748 102.424804688 780 111.946289062 834 c 0
 121.467773438 888 161.110351562 920 217.110351562 920 c 0
 273.110351562 920 301.467773438 888 291.946289062 834 c 0
 282.424804688 780 242.782226562 748 186.782226562 748 c 0xf4
416.782226562 748 m 0
 360.782226562 748 332.424804688 780 341.946289062 834 c 0
 351.467773438 888 391.110351562 920 447.110351562 920 c 0
 503.110351562 920 531.467773438 888 521.946289062 834 c 0
 512.424804688 780 472.782226562 748 416.782226562 748 c 0
-41.1103515625 0 m 1
 -13.4267578125 157 l 1
 99.5732421875 157 l 1
 169.3984375 553 l 1
 62.3984375 553 l 1
 90.08203125 710 l 1
 501.08203125 710 l 1
 473.3984375 553 l 1
 366.3984375 553 l 1
 296.573242188 157 l 1xc8
 409.573242188 157 l 1
 381.889648438 0 l 1
 -41.1103515625 0 l 1
EndSplineSet
Validated: 33
EndChar

StartChar: Idotaccent.ss05.ss08
Encoding: 65572 -1 167
Width: 503
GlyphClass: 2
Flags: HMW
HStem: 0 157<40 153 40 153 350 463> 553 157<46 153 46 457 350 350 350 457> 748 172<223 279>
VStem: 153 197<157 553 157 553> 157 188<807 861>
AnchorPoint: "Anchor-3" 295.082 710 basechar 0
AnchorPoint: "Anchor-2" 381.89 0 basechar 0
AnchorPoint: "Anchor-0" 169.89 0 basechar 0
LayerCount: 2
Fore
SplineSet
301.782226562 748 m 0xe8
 245.782226562 748 213.424804688 780 222.946289062 834 c 0
 232.467773438 888 276.110351562 920 332.110351562 920 c 0
 388.110351562 920 420.467773438 888 410.946289062 834 c 0
 401.424804688 780 357.782226562 748 301.782226562 748 c 0xe8
-41.1103515625 0 m 1
 -13.4267578125 157 l 1
 99.5732421875 157 l 1
 169.3984375 553 l 1
 62.3984375 553 l 1
 90.08203125 710 l 1
 501.08203125 710 l 1
 473.3984375 553 l 1
 366.3984375 553 l 1
 296.573242188 157 l 1xd0
 409.573242188 157 l 1
 381.889648438 0 l 1
 -41.1103515625 0 l 1
EndSplineSet
Validated: 33
EndChar

StartChar: Gdotaccent.ss06.ss08
Encoding: 65573 -1 168
Width: 754
GlyphClass: 2
Flags: HMW
HStem: -16 157<340 428 340 490> 246 130<390 523 390 719> 569 157<341.5 430> 748 172<364 420>
VStem: 40 201<290 418.5 290 461> 298 188<807 861> 390 329<246 335 335 376 215 376> 523 196<246 246>
AnchorPoint: "Anchor-3" 437.492 710 basechar 0
AnchorPoint: "Anchor-0" 315.3 0 basechar 0
LayerCount: 2
Fore
SplineSet
444.192382812 748 m 0xdd
 388.192382812 748 355.834960938 780 365.356445312 834 c 0
 374.87890625 888 418.521484375 920 474.521484375 920 c 0
 530.521484375 920 562.87890625 888 553.356445312 834 c 0
 543.834960938 780 500.192382812 748 444.192382812 748 c 0xdd
310.478515625 -16 m 0
 73.478515625 -16 -15.013671875 140 22.7197265625 354 c 0
 60.4541015625 568 215.313476562 726 445.313476562 726 c 0
 625.313476562 726 719.5625 631 719.64453125 467 c 1
 515.234375 459 l 1
 515.75390625 530 488.629882812 569 412.629882812 569 c 0
 311.629882812 569 246.465820312 483 223.719726562 354 c 0
 201.150390625 226 237.162109375 141 333.162109375 141 c 0
 413.162109375 141 466.686523438 178 486.676757812 246 c 1xed
 353.676757812 246 l 1
 376.599609375 376 l 1
 705.599609375 376 l 1
 698.370117188 335 l 2xea
 656.05078125 95 504.478515625 -16 310.478515625 -16 c 0
EndSplineSet
Validated: 33
EndChar

StartChar: A_I.dlig
Encoding: 65574 -1 169
Width: 1274
GlyphClass: 3
Flags: HMW
HStem: 0 157<553 924 811 924 1121 1234 811 924> 117 152<309 462 309 513 257 462> 553 157<817 924 1121 1121 1121 1228>
VStem: 924 197<157 553 157 553>
AnchorPoint: "Anchor-8" 448.596 710 baselig 0
AnchorPoint: "Anchor-7" 690.404 0 baselig 0
AnchorPoint: "Anchor-5" 323.404 0 baselig 0
AnchorPoint: "Anchor-8" 1084.6 710 baselig 1
AnchorPoint: "Anchor-5" 959.404 0 baselig 1
AnchorPoint: "Anchor-7" 1171.4 0 baselig 1
LayerCount: 2
Fore
SplineSet
-44.595703125 0 m 1xb0
 336.595703125 710 l 1
 559.595703125 710 l 1
 690.404296875 0 l 1
 490.404296875 0 l 1xb0
 471.034179688 117 l 1
 215.034179688 117 l 1x70
 154.404296875 0 l 1
 -44.595703125 0 l 1xb0
748.404296875 0 m 1
 776.086914062 157 l 1
 889.086914062 157 l 1
 958.913085938 553 l 1
 851.913085938 553 l 1
 879.595703125 710 l 1
 1290.59570312 710 l 1
 1262.91308594 553 l 1
 1155.91308594 553 l 1
 1086.08691406 157 l 1
 1199.08691406 157 l 1
 1171.40429688 0 l 1
 748.404296875 0 l 1
293.8359375 269 m 1x70
 446.8359375 269 l 1
 410.509765625 494 l 1
 293.8359375 269 l 1x70
EndSplineSet
Validated: 1
Ligature2: "'dlig' Discretionary Ligatures in Latin lookup 32 subtable" A I
EndChar

StartChar: U_I.dlig
Encoding: 65575 -1 170
Width: 1216
GlyphClass: 3
Flags: HMW
HStem: -16 157<319.5 393 319.5 451> 0 157<753 866 753 866 1063 1176> 553 157<759 866 759 1170 1063 1063 1063 1170>
VStem: 47 196<262 711> 470 196<262 711> 866 197<157 553 157 553>
AnchorPoint: "Anchor-8" 419.919 710 baselig 0
AnchorPoint: "Anchor-7" 411.727 0 baselig 0
AnchorPoint: "Anchor-5" 294.727 0 baselig 0
AnchorPoint: "Anchor-8" 1027.92 710 baselig 1
AnchorPoint: "Anchor-5" 902.727 0 baselig 1
AnchorPoint: "Anchor-7" 1114.73 0 baselig 1
LayerCount: 2
Fore
SplineSet
291.905273438 -16 m 0xbc
 102.905273438 -16 1.9482421875 92 31.923828125 262 c 2
 111.094726562 711 l 1
 307.094726562 711 l 1
 227.923828125 262 l 2
 214.170898438 184 246.588867188 141 319.588867188 141 c 0
 393.588867188 141 441.170898438 184 454.923828125 262 c 2
 534.094726562 711 l 1
 730.094726562 711 l 1
 650.923828125 262 l 2
 620.948242188 92 481.905273438 -16 291.905273438 -16 c 0xbc
691.7265625 0 m 1x7c
 719.41015625 157 l 1
 832.41015625 157 l 1
 902.235351562 553 l 1
 795.235351562 553 l 1
 822.918945312 710 l 1
 1233.91894531 710 l 1
 1206.23535156 553 l 1
 1099.23535156 553 l 1
 1029.41015625 157 l 1
 1142.41015625 157 l 1
 1114.7265625 0 l 1
 691.7265625 0 l 1x7c
EndSplineSet
Validated: 33
Ligature2: "'dlig' Discretionary Ligatures in Latin lookup 32 subtable" U I
EndChar

StartChar: a
Encoding: 97 97 171
Width: 623
GlyphClass: 2
Flags: HMW
HStem: -12 122<263.5 277.5> -8 21G<521 558.5> -8 130<521 614> 424 128<286.5 330.5>
VStem: 32 199<140 168 140 184> 377 194<212 230 230 230 146.5 366>
AnchorPoint: "Anchor-3" 356.608 540 basechar 0
AnchorPoint: "Anchor-2" 566.392 0 basechar 0
AnchorPoint: "Anchor-0" 261.392 0 basechar 0
LayerCount: 2
Fore
SplineSet
177.275390625 -12 m 0x94
 63.275390625 -12 -8.2021484375 42 8.3720703125 136 c 0
 25.2998046875 232 98.5869140625 279 220.995117188 304 c 2
 388.990234375 338 l 1
 398.864257812 394 379.154296875 424 336.154296875 424 c 0
 291.154296875 424 262.275390625 402 248.693359375 359 c 1
 57.7509765625 365 l 1
 101.673828125 495 206.724609375 552 358.724609375 552 c 0
 534.724609375 552 607.323242188 476 580.168945312 322 c 2
 552.309570312 164 l 2
 546.137695312 129 556.903320312 122 576.903320312 122 c 2
 587.903320312 122 l 1x3c
 566.391601562 0 l 1
 553.686523438 -4 521.981445312 -8 496.981445312 -8 c 0x54
 446.981445312 -8 387.802734375 8 384.026367188 83 c 1
 345.624023438 24 278.275390625 -12 177.275390625 -12 c 0x94
252.788085938 110 m 0
 306.788085938 110 354.4296875 142 366.7734375 212 c 2
 369.947265625 230 l 1
 278.067382812 208 l 2
 242.657226562 200 215.483398438 182 210.545898438 154 c 0x9c
 205.609375 126 217.788085938 110 252.788085938 110 c 0
EndSplineSet
Validated: 33
Substitution2: "'ss02' Style Set 2 in Latin lookup 35 subtable" a.ss02
Substitution2: "'ss01' Style Set 1 in Latin lookup 34 subtable" a.ss01
Substitution2: "Single Substitution lookup 27 subtable" ordfeminine
AlternateSubs2: "'aalt' Access All Alternates in Latin lookup 1 subtable" ordfeminine a.ss01 a.ss02
EndChar

StartChar: aacute
Encoding: 225 225 172
Width: 623
GlyphClass: 2
Flags: HMW
HStem: -12 122<263.5 277.5> -8 21G<521 558.5> -8 130<521 614> 424 128<286.5 330.5> 587 160<220 454 274 364>
VStem: 32 199<140 168 140 184> 377 194<212 230 230 230 146.5 366>
AnchorPoint: "Anchor-3" 339.416 540 basechar 0
AnchorPoint: "Anchor-2" 549.2 0 basechar 0
AnchorPoint: "Anchor-0" 244.2 0 basechar 0
LayerCount: 2
Fore
SplineSet
258.704101562 587 m 1x9a
 340.916015625 747 l 1
 520.916015625 747 l 1
 402.704101562 587 l 1
 258.704101562 587 l 1x9a
160.083984375 -12 m 0
 46.083984375 -12 -25.39453125 42 -8.8193359375 136 c 0
 8.107421875 232 81.3955078125 279 203.803710938 304 c 2
 371.798828125 338 l 1
 381.672851562 394 361.962890625 424 318.962890625 424 c 0
 273.962890625 424 245.083007812 402 231.500976562 359 c 1
 40.5595703125 365 l 1
 84.4814453125 495 189.532226562 552 341.532226562 552 c 0
 517.532226562 552 590.131835938 476 562.977539062 322 c 2
 535.1171875 164 l 2
 528.946289062 129 539.711914062 122 559.711914062 122 c 2
 570.711914062 122 l 1x3e
 549.200195312 0 l 1
 536.494140625 -4 504.7890625 -8 479.7890625 -8 c 0x5a
 429.7890625 -8 370.610351562 8 366.834960938 83 c 1
 328.431640625 24 261.083984375 -12 160.083984375 -12 c 0
235.595703125 110 m 0
 289.595703125 110 337.23828125 142 349.581054688 212 c 2
 352.754882812 230 l 1
 260.875976562 208 l 2
 225.46484375 200 198.291015625 182 193.354492188 154 c 0x9e
 188.416992188 126 200.595703125 110 235.595703125 110 c 0
EndSplineSet
Validated: 33
Substitution2: "'ss02' Style Set 2 in Latin lookup 35 subtable" aacute.ss02
Substitution2: "'ss01' Style Set 1 in Latin lookup 34 subtable" aacute.ss01
AlternateSubs2: "'aalt' Access All Alternates in Latin lookup 1 subtable" aacute.ss01 aacute.ss02
EndChar

StartChar: abreve
Encoding: 259 259 173
Width: 623
GlyphClass: 2
Flags: HMW
HStem: -12 122<263.5 277.5> -8 21G<521 558.5> -8 130<521 614> 0 21G<614 614> 424 128<286.5 330.5> 584 96<291 327 291 359> 584 160<141 359>
VStem: 32 199<140 168 140 184> 141 106<744 744> 371 106<744 744> 377 194<212 230 230 230 146.5 366>
AnchorPoint: "Anchor-3" 339.681 540 basechar 0
AnchorPoint: "Anchor-2" 549.464 0 basechar 0
AnchorPoint: "Anchor-0" 244.464 0 basechar 0
LayerCount: 2
Fore
SplineSet
347.439453125 584 m 0x1a40
 247.439453125 584 193.313476562 640 207.651367188 744 c 1x8aa0
 313.651367188 744 l 1
 309.541015625 698 328.366210938 680 364.366210938 680 c 0x1cc0
 400.366210938 680 425.541015625 698 437.651367188 744 c 1
 543.651367188 744 l 1
 521.313476562 640 447.439453125 584 347.439453125 584 c 0x1a40
160.348632812 -12 m 0
 46.3486328125 -12 -25.1298828125 42 -8.5556640625 136 c 0
 8.3720703125 232 81.6591796875 279 204.067382812 304 c 2
 372.0625 338 l 1
 381.9375 394 362.2265625 424 319.2265625 424 c 0
 274.2265625 424 245.34765625 402 231.765625 359 c 1
 40.8232421875 365 l 1
 84.74609375 495 189.796875 552 341.796875 552 c 0
 517.796875 552 590.395507812 476 563.241210938 322 c 2
 535.381835938 164 l 2
 529.2109375 129 539.9765625 122 559.9765625 122 c 2
 570.9765625 122 l 1x2b20
 549.463867188 0 l 1
 536.758789062 -4 505.053710938 -8 480.053710938 -8 c 0x4a20
 430.053710938 -8 370.875 8 367.099609375 83 c 1
 328.696289062 24 261.348632812 -12 160.348632812 -12 c 0
235.860351562 110 m 0
 289.860351562 110 337.502929688 142 349.845703125 212 c 2
 353.01953125 230 l 1
 261.140625 208 l 2
 225.729492188 200 198.555664062 182 193.619140625 154 c 0x8b20
 188.681640625 126 200.860351562 110 235.860351562 110 c 0
EndSplineSet
Validated: 33
Substitution2: "'ss02' Style Set 2 in Latin lookup 35 subtable" abreve.ss02
Substitution2: "'ss01' Style Set 1 in Latin lookup 34 subtable" abreve.ss01
AlternateSubs2: "'aalt' Access All Alternates in Latin lookup 1 subtable" abreve.ss01 abreve.ss02
EndChar

StartChar: uni01CE
Encoding: 462 462 174
Width: 623
GlyphClass: 2
Flags: HMW
HStem: -12 122<263.5 277.5> -8 21G<521 558.5> -8 130<521 614> 424 128<286.5 330.5> 587 166<220 248 370 398 220 220>
VStem: 32 199<140 168 140 184> 377 194<212 230 230 230 146.5 366>
AnchorPoint: "Anchor-3" 338.888 540 basechar 0
AnchorPoint: "Anchor-2" 548.671 0 basechar 0
AnchorPoint: "Anchor-0" 243.671 0 basechar 0
LayerCount: 2
Fore
SplineSet
187.4453125 753 m 1x9a
 315.4453125 753 l 1
 360.928710938 665 l 1
 437.4453125 753 l 1
 565.4453125 753 l 1
 436.174804688 587 l 1
 258.174804688 587 l 1
 187.4453125 753 l 1x9a
159.5546875 -12 m 0
 45.5546875 -12 -25.923828125 42 -9.3486328125 136 c 0
 7.5791015625 232 80.8662109375 279 203.274414062 304 c 2
 371.26953125 338 l 1
 381.143554688 394 361.43359375 424 318.43359375 424 c 0
 273.43359375 424 244.5546875 402 230.97265625 359 c 1
 40.0302734375 365 l 1
 83.953125 495 189.002929688 552 341.002929688 552 c 0
 517.002929688 552 589.602539062 476 562.448242188 322 c 2
 534.588867188 164 l 2
 528.416992188 129 539.182617188 122 559.182617188 122 c 2
 570.182617188 122 l 1x3e
 548.670898438 0 l 1
 535.965820312 -4 504.259765625 -8 479.259765625 -8 c 0x5a
 429.259765625 -8 370.081054688 8 366.305664062 83 c 1
 327.90234375 24 260.5546875 -12 159.5546875 -12 c 0
235.06640625 110 m 0
 289.06640625 110 336.708984375 142 349.051757812 212 c 2
 352.225585938 230 l 1
 260.346679688 208 l 2
 224.936523438 200 197.762695312 182 192.825195312 154 c 0x9e
 187.887695312 126 200.06640625 110 235.06640625 110 c 0
EndSplineSet
Validated: 33
Substitution2: "'ss02' Style Set 2 in Latin lookup 35 subtable" uni01CE.ss02
Substitution2: "'ss01' Style Set 1 in Latin lookup 34 subtable" uni01CE.ss01
AlternateSubs2: "'aalt' Access All Alternates in Latin lookup 1 subtable" uni01CE.ss01 uni01CE.ss02
EndChar

StartChar: acircumflex
Encoding: 226 226 175
Width: 623
GlyphClass: 2
Flags: HMW
HStem: -12 122<263.5 277.5> -8 21G<521 558.5> -8 130<521 614> 424 128<286.5 330.5> 587 166<120 398 220 248 370 370 370 398 220 498>
VStem: 32 199<140 168 140 184> 377 194<212 230 230 230 146.5 366>
AnchorPoint: "Anchor-3" 338.888 540 basechar 0
AnchorPoint: "Anchor-2" 548.671 0 basechar 0
AnchorPoint: "Anchor-0" 243.671 0 basechar 0
LayerCount: 2
Fore
SplineSet
158.174804688 587 m 1x9a
 287.4453125 753 l 1
 465.4453125 753 l 1
 536.174804688 587 l 1
 408.174804688 587 l 1
 362.69140625 675 l 1
 286.174804688 587 l 1
 158.174804688 587 l 1x9a
159.5546875 -12 m 0
 45.5546875 -12 -25.923828125 42 -9.3486328125 136 c 0
 7.5791015625 232 80.8662109375 279 203.274414062 304 c 2
 371.26953125 338 l 1
 381.143554688 394 361.43359375 424 318.43359375 424 c 0
 273.43359375 424 244.5546875 402 230.97265625 359 c 1
 40.0302734375 365 l 1
 83.953125 495 189.002929688 552 341.002929688 552 c 0
 517.002929688 552 589.602539062 476 562.448242188 322 c 2
 534.588867188 164 l 2
 528.416992188 129 539.182617188 122 559.182617188 122 c 2
 570.182617188 122 l 1x3e
 548.670898438 0 l 1
 535.965820312 -4 504.259765625 -8 479.259765625 -8 c 0x5a
 429.259765625 -8 370.081054688 8 366.305664062 83 c 1
 327.90234375 24 260.5546875 -12 159.5546875 -12 c 0
235.06640625 110 m 0
 289.06640625 110 336.708984375 142 349.051757812 212 c 2
 352.225585938 230 l 1
 260.346679688 208 l 2
 224.936523438 200 197.762695312 182 192.825195312 154 c 0x9e
 187.887695312 126 200.06640625 110 235.06640625 110 c 0
EndSplineSet
Validated: 33
Substitution2: "'ss02' Style Set 2 in Latin lookup 35 subtable" acircumflex.ss02
Substitution2: "'ss01' Style Set 1 in Latin lookup 34 subtable" acircumflex.ss01
AlternateSubs2: "'aalt' Access All Alternates in Latin lookup 1 subtable" acircumflex.ss01 acircumflex.ss02
EndChar

StartChar: adieresis
Encoding: 228 228 176
Width: 623
GlyphClass: 2
Flags: HMW
HStem: -12 122<263.5 277.5> -8 21G<521 558.5> -8 130<521 614> 424 128<286.5 330.5> 590 136<98 278 98 278 340 520 98 340>
VStem: 32 199<140 168 140 184> 98 180<590 726 590 726> 340 180<590 726 590 726> 377 194<212 230 230 230 146.5 366>
AnchorPoint: "Anchor-3" 341.268 540 basechar 0
AnchorPoint: "Anchor-2" 551.051 0 basechar 0
AnchorPoint: "Anchor-0" 246.051 0 basechar 0
LayerCount: 2
Fore
SplineSet
139.083984375 590 m 1x9b
 163.064453125 726 l 1
 343.064453125 726 l 1
 319.083984375 590 l 1
 139.083984375 590 l 1x9b
381.083984375 590 m 1
 405.064453125 726 l 1
 585.064453125 726 l 1
 561.083984375 590 l 1
 381.083984375 590 l 1
161.935546875 -12 m 0
 47.935546875 -12 -23.54296875 42 -6.96875 136 c 0
 9.958984375 232 83.24609375 279 205.654296875 304 c 2
 373.649414062 338 l 1
 383.524414062 394 363.813476562 424 320.813476562 424 c 0
 275.813476562 424 246.934570312 402 233.352539062 359 c 1
 42.41015625 365 l 1
 86.3330078125 495 191.383789062 552 343.383789062 552 c 0
 519.383789062 552 591.983398438 476 564.828125 322 c 2
 536.96875 164 l 2
 530.797851562 129 541.563476562 122 561.563476562 122 c 2
 572.563476562 122 l 1x3c80
 551.05078125 0 l 1
 538.345703125 -4 506.640625 -8 481.640625 -8 c 0x5a80
 431.640625 -8 372.461914062 8 368.686523438 83 c 1
 330.283203125 24 262.935546875 -12 161.935546875 -12 c 0
237.447265625 110 m 0
 291.447265625 110 339.08984375 142 351.432617188 212 c 2
 354.606445312 230 l 1
 262.727539062 208 l 2
 227.31640625 200 200.142578125 182 195.206054688 154 c 0x9c80
 190.268554688 126 202.447265625 110 237.447265625 110 c 0
EndSplineSet
Validated: 33
Substitution2: "'ss08' Style Set 8 in Latin lookup 41 subtable" adieresis.ss08
Substitution2: "'ss02' Style Set 2 in Latin lookup 35 subtable" adieresis.ss02
Substitution2: "'ss01' Style Set 1 in Latin lookup 34 subtable" adieresis.ss01
AlternateSubs2: "'aalt' Access All Alternates in Latin lookup 1 subtable" adieresis.ss01 adieresis.ss02 adieresis.ss08
EndChar

StartChar: agrave
Encoding: 224 224 177
Width: 623
GlyphClass: 2
Flags: HMW
HStem: -12 122<263.5 277.5> -8 21G<521 558.5> -8 130<521 614> 424 128<286.5 330.5> 594 160<250 250 250 340 160 394>
VStem: 32 199<140 168 140 184> 377 194<212 230 230 230 146.5 366>
AnchorPoint: "Anchor-3" 338.799 540 basechar 0
AnchorPoint: "Anchor-2" 548.583 0 basechar 0
AnchorPoint: "Anchor-0" 243.583 0 basechar 0
LayerCount: 2
Fore
SplineSet
289.321289062 594 m 1x9a
 227.533203125 754 l 1
 407.533203125 754 l 1
 433.321289062 594 l 1
 289.321289062 594 l 1x9a
159.466796875 -12 m 0
 45.466796875 -12 -26.01171875 42 -9.4365234375 136 c 0
 7.490234375 232 80.7783203125 279 203.186523438 304 c 2
 371.181640625 338 l 1
 381.055664062 394 361.345703125 424 318.345703125 424 c 0
 273.345703125 424 244.465820312 402 230.883789062 359 c 1
 39.9423828125 365 l 1
 83.8642578125 495 188.915039062 552 340.915039062 552 c 0
 516.915039062 552 589.514648438 476 562.360351562 322 c 2
 534.5 164 l 2
 528.329101562 129 539.094726562 122 559.094726562 122 c 2
 570.094726562 122 l 1x3e
 548.583007812 0 l 1
 535.876953125 -4 504.171875 -8 479.171875 -8 c 0x5a
 429.171875 -8 369.993164062 8 366.217773438 83 c 1
 327.814453125 24 260.466796875 -12 159.466796875 -12 c 0
234.978515625 110 m 0
 288.978515625 110 336.62109375 142 348.963867188 212 c 2
 352.137695312 230 l 1
 260.258789062 208 l 2
 224.84765625 200 197.673828125 182 192.737304688 154 c 0x9e
 187.799804688 126 199.978515625 110 234.978515625 110 c 0
EndSplineSet
Validated: 33
Substitution2: "'ss02' Style Set 2 in Latin lookup 35 subtable" agrave.ss02
Substitution2: "'ss01' Style Set 1 in Latin lookup 34 subtable" agrave.ss01
AlternateSubs2: "'aalt' Access All Alternates in Latin lookup 1 subtable" agrave.ss01 agrave.ss02
EndChar

StartChar: amacron
Encoding: 257 257 178
Width: 623
GlyphClass: 2
Flags: HMW
HStem: -12 122<263.5 277.5> -8 21G<521 558.5> -8 130<521 614> 424 128<286.5 330.5> 595 135<149 469 149 469>
VStem: 32 199<140 168 140 184> 149 320<595 730 595 730> 377 194<212 230 230 230 146.5 366>
AnchorPoint: "Anchor-3" 340.915 540 basechar 0
AnchorPoint: "Anchor-2" 550.698 0 basechar 0
AnchorPoint: "Anchor-0" 245.698 0 basechar 0
LayerCount: 2
Fore
SplineSet
190.61328125 595 m 1x9a
 214.416992188 730 l 1
 534.416992188 730 l 1
 510.61328125 595 l 1
 190.61328125 595 l 1x9a
161.583007812 -12 m 0
 47.5830078125 -12 -23.8955078125 42 -7.3212890625 136 c 0
 9.6064453125 232 82.8935546875 279 205.301757812 304 c 2
 373.296875 338 l 1
 383.171875 394 363.4609375 424 320.4609375 424 c 0
 275.4609375 424 246.58203125 402 233 359 c 1
 42.0576171875 365 l 1
 85.98046875 495 191.03125 552 343.03125 552 c 0
 519.03125 552 591.629882812 476 564.475585938 322 c 2
 536.616210938 164 l 2
 530.444335938 129 541.2109375 122 561.2109375 122 c 2
 572.2109375 122 l 1x3d
 550.698242188 0 l 1
 537.993164062 -4 506.288085938 -8 481.288085938 -8 c 0x59
 431.288085938 -8 372.109375 8 368.333984375 83 c 1
 329.930664062 24 262.583007812 -12 161.583007812 -12 c 0
237.094726562 110 m 0
 291.094726562 110 338.737304688 142 351.080078125 212 c 2
 354.25390625 230 l 1
 262.375 208 l 2
 226.963867188 200 199.790039062 182 194.852539062 154 c 0x9d
 189.916015625 126 202.094726562 110 237.094726562 110 c 0
EndSplineSet
Validated: 33
Substitution2: "'ss02' Style Set 2 in Latin lookup 35 subtable" amacron.ss02
Substitution2: "'ss01' Style Set 1 in Latin lookup 34 subtable" amacron.ss01
AlternateSubs2: "'aalt' Access All Alternates in Latin lookup 1 subtable" amacron.ss01 amacron.ss02
EndChar

StartChar: aogonek
Encoding: 261 261 179
Width: 623
GlyphClass: 2
Flags: HMW
HStem: -222 104<491.5 587> -12 21G -12 122<263.5 277.5> 424 128<286.5 330.5>
VStem: 32 199<140 168 140 184> 377 194<212 230 230 230 146.5 366> 405 150<-157 -85.5> 405 209<-157 122>
AnchorPoint: "Anchor-3" 375.123 540 basechar 0
AnchorPoint: "Anchor-2" 584.906 0 basechar 0
AnchorPoint: "Anchor-0" 279.906 0 basechar 0
LayerCount: 2
Fore
SplineSet
195.790039062 -12 m 0xb4
 81.7900390625 -12 10.3115234375 42 26.88671875 136 c 0
 43.8134765625 232 117.1015625 279 239.509765625 304 c 2
 407.504882812 338 l 1
 417.37890625 394 397.668945312 424 354.668945312 424 c 0
 309.668945312 424 280.7890625 402 267.20703125 359 c 1
 76.265625 365 l 1
 120.1875 495 225.23828125 552 377.23828125 552 c 0
 553.23828125 552 625.837890625 476 598.68359375 322 c 2
 570.823242188 164 l 2xbc
 564.65234375 129 575.41796875 122 595.41796875 122 c 2
 606.41796875 122 l 1
 584.90625 0 l 1xb1
 551.911132812 -34 l 2
 532.208007812 -55 512.329101562 -77 509.331054688 -94 c 0xb2
 506.333984375 -111 517.099609375 -118 529.099609375 -118 c 0
 545.099609375 -118 565.157226562 -112 574.215820312 -106 c 1
 588.345703125 -196 l 1
 565.876953125 -210 511.76171875 -222 463.76171875 -222 c 0
 382.76171875 -222 342.756835938 -188 353.688476562 -126 c 0
 361.094726562 -84 389.442382812 -48 417.732421875 -18 c 2
 443.493164062 9 l 1xd1
 420.78515625 22 404.6640625 44 402.541015625 83 c 1
 364.137695312 24 296.790039062 -12 195.790039062 -12 c 0xb4
271.301757812 110 m 0
 325.301757812 110 372.944335938 142 385.287109375 212 c 2
 388.4609375 230 l 1
 296.58203125 208 l 2
 261.171875 200 233.998046875 182 229.060546875 154 c 0
 224.123046875 126 236.301757812 110 271.301757812 110 c 0
EndSplineSet
Validated: 33
Substitution2: "'ss02' Style Set 2 in Latin lookup 35 subtable" aogonek.ss02
Substitution2: "'ss01' Style Set 1 in Latin lookup 34 subtable" aogonek.ss01
AlternateSubs2: "'aalt' Access All Alternates in Latin lookup 1 subtable" aogonek.ss01 aogonek.ss02
EndChar

StartChar: aring
Encoding: 229 229 180
Width: 623
GlyphClass: 2
Flags: HMW
HStem: -12 122<263.5 277.5> -8 21G<521 558.5> -8 130<521 614> 424 128<286.5 330.5> 574 74<299 319 299 340> 716 74<299 319>
VStem: 32 199<140 168 140 184> 199 76<672 692 672 713> 343 76<672 692> 377 194<212 230 230 230 146.5 366>
AnchorPoint: "Anchor-3" 335.625 540 basechar 0
AnchorPoint: "Anchor-2" 545.409 0 basechar 0
AnchorPoint: "Anchor-0" 240.409 0 basechar 0
LayerCount: 2
Fore
SplineSet
341.620117188 574 m 0x8d80
 279.620117188 574 239.731445312 620 250.6640625 682 c 0
 261.595703125 744 317.70703125 790 379.70703125 790 c 0
 441.70703125 790 481.595703125 744 470.6640625 682 c 0
 459.731445312 620 403.620117188 574 341.620117188 574 c 0x8d80
354.668945312 648 m 0
 374.668945312 648 391.137695312 662 394.6640625 682 c 0
 398.190429688 702 386.659179688 716 366.659179688 716 c 0
 346.659179688 716 330.190429688 702 326.6640625 682 c 0
 323.137695312 662 334.668945312 648 354.668945312 648 c 0
156.29296875 -12 m 0
 42.29296875 -12 -29.185546875 42 -12.6103515625 136 c 0
 4.31640625 232 77.6044921875 279 200.01171875 304 c 2
 368.006835938 338 l 1
 377.881835938 394 358.171875 424 315.171875 424 c 0
 270.171875 424 241.291992188 402 227.709960938 359 c 1
 36.7685546875 365 l 1
 80.6904296875 495 185.741210938 552 337.741210938 552 c 0
 513.741210938 552 586.340820312 476 559.186523438 322 c 2
 531.326171875 164 l 2
 525.155273438 129 535.920898438 122 555.920898438 122 c 2
 566.920898438 122 l 1x3640
 545.409179688 0 l 1
 532.703125 -4 500.998046875 -8 475.998046875 -8 c 0x5540
 425.998046875 -8 366.819335938 8 363.043945312 83 c 1
 324.640625 24 257.29296875 -12 156.29296875 -12 c 0
231.8046875 110 m 0
 285.8046875 110 333.447265625 142 345.790039062 212 c 2
 348.963867188 230 l 1
 257.084960938 208 l 2
 221.673828125 200 194.5 182 189.563476562 154 c 0x9640
 184.625976562 126 196.8046875 110 231.8046875 110 c 0
EndSplineSet
Validated: 33
Substitution2: "'ss02' Style Set 2 in Latin lookup 35 subtable" aring.ss02
Substitution2: "'ss01' Style Set 1 in Latin lookup 34 subtable" aring.ss01
AlternateSubs2: "'aalt' Access All Alternates in Latin lookup 1 subtable" aring.ss01 aring.ss02
EndChar

StartChar: atilde
Encoding: 227 227 181
Width: 623
GlyphClass: 2
Flags: HMW
HStem: -12 122<263.5 277.5> -8 21G<521 558.5> -8 130<521 614> 0 21G<614 614> 424 128<286.5 330.5> 589 159<209.5 218 128 265> 594 111<360 373.5 360 404.5> 594 160<399 404.5> 637 111<245 258>
VStem: 32 199<140 168 140 184> 128 90<589 636> 377 194<212 230 230 230 146.5 366> 399 90<705.5 754>
AnchorPoint: "Anchor-3" 338.799 540 basechar 0
AnchorPoint: "Anchor-2" 548.583 0 basechar 0
AnchorPoint: "Anchor-0" 243.583 0 basechar 0
LayerCount: 2
Fore
SplineSet
402.321289062 594 m 0x1908
 368.321289062 594 351.37890625 600 327.610351562 624 c 0
 319.021484375 632 309.903320312 637 299.903320312 637 c 0x88b0
 283.903320312 637 266.963867188 626 256.439453125 589 c 1
 166.439453125 589 l 1
 183.013671875 683 236.475585938 748 315.475585938 748 c 0x1c30
 347.475585938 748 371.241210938 741 395.361328125 719 c 0
 406.598632812 709 413.893554688 705 423.893554688 705 c 0x1a08
 440.893554688 705 457.65625 715 466.533203125 754 c 1
 556.533203125 754 l 1
 539.4296875 657 485.321289062 594 402.321289062 594 c 0x1908
159.466796875 -12 m 0
 45.466796875 -12 -26.01171875 42 -9.4365234375 136 c 0
 7.490234375 232 80.7783203125 279 203.186523438 304 c 2
 371.181640625 338 l 1
 381.055664062 394 361.345703125 424 318.345703125 424 c 0
 273.345703125 424 244.465820312 402 230.883789062 359 c 1
 39.9423828125 365 l 1
 83.8642578125 495 188.915039062 552 340.915039062 552 c 0
 516.915039062 552 589.514648438 476 562.360351562 322 c 2
 534.5 164 l 2
 528.329101562 129 539.094726562 122 559.094726562 122 c 2
 570.094726562 122 l 1x2950
 548.583007812 0 l 1
 535.876953125 -4 504.171875 -8 479.171875 -8 c 0x4910
 429.171875 -8 369.993164062 8 366.217773438 83 c 1
 327.814453125 24 260.466796875 -12 159.466796875 -12 c 0
234.978515625 110 m 0
 288.978515625 110 336.62109375 142 348.963867188 212 c 2
 352.137695312 230 l 1
 260.258789062 208 l 2
 224.84765625 200 197.673828125 182 192.737304688 154 c 0x8950
 187.799804688 126 199.978515625 110 234.978515625 110 c 0
EndSplineSet
Validated: 33
Substitution2: "'ss02' Style Set 2 in Latin lookup 35 subtable" atilde.ss02
Substitution2: "'ss01' Style Set 1 in Latin lookup 34 subtable" atilde.ss01
AlternateSubs2: "'aalt' Access All Alternates in Latin lookup 1 subtable" atilde.ss01 atilde.ss02
EndChar

StartChar: ae
Encoding: 230 230 182
Width: 985
GlyphClass: 2
Flags: HMW
HStem: -12 120 -12 136<648 694 648 741> 220 104<582 759 582 953 582 759> 420 132<646 697> 424 128<286 329>
VStem: 32 199<137.5 168 137.5 185> 377 205<220 220 220 230 220 230 220 367.5> 759 194<220 324>
AnchorPoint: "Anchor-3" 540.608 540 basechar 0
AnchorPoint: "Anchor-2" 820.444 40 basechar 0
AnchorPoint: "Anchor-0" 445.392 0 basechar 0
LayerCount: 2
Fore
SplineSet
177.275390625 -12 m 0x77
 63.275390625 -12 -8.37890625 41 8.3720703125 136 c 0
 25.65234375 234 98.5869140625 279 220.995117188 304 c 2
 388.990234375 338 l 1
 399.393554688 397 376.154296875 424 336.154296875 424 c 0x6f
 290.154296875 424 261.098632812 401 248.693359375 359 c 1
 57.7509765625 365 l 1
 101.14453125 492 203.724609375 552 356.724609375 552 c 0
 436.724609375 552 497.903320312 536 537.083984375 503 c 1
 589.55078125 534 651.724609375 552 720.724609375 552 c 0
 894.724609375 552 982.270507812 436 950.178710938 254 c 2
 944.18359375 220 l 1
 573.18359375 220 l 1
 563.72265625 155 595.255859375 124 649.255859375 124 c 0
 687.255859375 124 718.548828125 137 737.072265625 174 c 1
 927.309570312 164 l 1
 876.85546875 48 761.275390625 -12 621.275390625 -12 c 0
 523.275390625 -12 450.447265625 23 411.203125 84 c 1
 356.565429688 18 278.275390625 -12 177.275390625 -12 c 0x77
591.521484375 324 m 1
 768.521484375 324 l 1
 777.629882812 387 749.44921875 420 697.44921875 420 c 0xb7
 647.44921875 420 605.924804688 383 591.521484375 324 c 1
260.434570312 108 m 0
 315.611328125 109 354.077148438 140 366.067382812 208 c 2
 369.947265625 230 l 1
 278.067382812 208 l 2
 244.657226562 200 215.8359375 184 210.193359375 152 c 0
 205.080078125 123 216.258789062 107 260.434570312 108 c 0
EndSplineSet
Validated: 33
EndChar

StartChar: b
Encoding: 98 98 183
Width: 660
GlyphClass: 2
Flags: HMW
HStem: -12 139<312.5 475> 0 127<56 367.5> 413 139<312.5 475> 690 20G<56 250 250 250>
VStem: 56 190.5 56 194<224.5 316 462 710> 429 199<224 316>
AnchorPoint: "Anchor-3" 364.679 540 basechar 0
AnchorPoint: "Anchor-1" 151.07 270 basechar 0
AnchorPoint: "Anchor-0" 269.462 0 basechar 0
LayerCount: 2
Fore
SplineSet
344.345703125 -12 m 0xb6
 268.345703125 -12 220.165039062 21 200.215820312 78 c 1
 183.461914062 0 l 1x7a
 -5.5380859375 0 l 1x76
 119.654296875 710 l 1
 313.654296875 710 l 1
 269.924804688 462 l 1
 309.446289062 516 370.793945312 552 443.793945312 552 c 0
 577.793945312 552 644.045898438 440 614.0703125 270 c 0
 584.094726562 100 478.345703125 -12 344.345703125 -12 c 0xb6
302.85546875 127 m 0
 353.85546875 127 398.84765625 178 415.0703125 270 c 0
 431.291992188 362 406.28515625 413 353.28515625 413 c 0
 294.28515625 413 252.291992188 362 236.0703125 270 c 0xb6
 220.024414062 179 243.85546875 127 302.85546875 127 c 0
EndSplineSet
Validated: 33
EndChar

StartChar: c
Encoding: 99 99 184
Width: 632
GlyphClass: 2
Flags: HMW
HStem: -12 139<294 348 294 404.5> 412 140<294 347.5>
VStem: 32 199<224 315.5 224 354.5>
AnchorPoint: "Anchor-3" 371.608 540 basechar 0
AnchorPoint: "Anchor-0" 276.392 0 basechar 0
LayerCount: 2
Fore
SplineSet
274.275390625 -12 m 0
 98.275390625 -12 2.0244140625 100 32 270 c 0
 61.798828125 439 197.724609375 552 373.724609375 552 c 0
 529.724609375 552 630.560546875 466 619.698242188 325 c 1
 419.287109375 317 l 1
 422.572265625 381 396.038085938 412 349.038085938 412 c 0
 289.038085938 412 247.045898438 361 231 270 c 0
 214.778320312 178 238.78515625 127 298.78515625 127 c 0
 346.78515625 127 385.075195312 157 403.065429688 225 c 1
 601.006835938 219 l 1
 563.96875 77 435.275390625 -12 274.275390625 -12 c 0
EndSplineSet
Validated: 33
EndChar

